<?xml version="1.0" encoding="utf-8"?>
<!-- Generator: Adobe Illustrator 22.1.0, SVG Export Plug-In . SVG Version: 6.00 Build 0)  -->
<svg version="1.1" id="Layer_1" xmlns="http://www.w3.org/2000/svg" xmlns:xlink="http://www.w3.org/1999/xlink" x="0px" y="0px"
	 viewBox="0 0 150 150" style="enable-background:new 0 0 150 150;" xml:space="preserve">
<style type="text/css">
	.st0{fill:#FFFFFF;}
</style>
<title>icons</title>
<g>
	<path class="st0" d="M63.4,40.3c-12.8,0-23.1,10.4-23.1,23.1s10.4,23.1,23.1,23.1c0.1,0,0.2,0,0.3,0c12.7-0.1,22.9-10.4,22.9-23.1
		C86.6,50.7,76.2,40.3,63.4,40.3z"/>
	<path class="st0" d="M75,0C33.6,0,0,33.6,0,75c0,41.4,33.6,75,75,75c41.4,0,75-33.6,75-75C150,33.6,116.4,0,75,0z M112.3,120
		L86.5,94.3v-4.1L85,88.6c-5.9,5.3-13.6,8.2-21.6,8.2C45,96.9,30,81.9,30,63.5C30,45,44.9,30,63.4,30c18.5,0,33.4,14.9,33.5,33.4
		c0,8-2.9,15.7-8.2,21.6l1.5,1.6h4.1l25.7,25.7L112.3,120z"/>
</g>
</svg>
