<svg xmlns="http://www.w3.org/2000/svg" viewBox="0 0 50 50">
  <defs>
    <style>
      .cls-1 {
        fill: #fff;
      }
    </style>
  </defs>
  <path id="Subtraction_19" data-name="Subtraction 19" class="cls-1" d="M25,50A25.007,25.007,0,0,1,15.269,1.965,25.007,25.007,0,0,1,34.731,48.036,24.843,24.843,0,0,1,25,50ZM9.472,17.544V27.12a5.594,5.594,0,0,0,1.908,4.524,7.888,7.888,0,0,0,5.2,1.6,7.883,7.883,0,0,0,5.2-1.6A5.594,5.594,0,0,0,23.68,27.12V17.544H19.816V26.76a3.192,3.192,0,0,1-.828,2.4,3.374,3.374,0,0,1-2.412.792,3.371,3.371,0,0,1-2.412-.792,3.19,3.19,0,0,1-.828-2.4V17.544ZM32.9,28.32h0L36.232,33h4.656l-5.64-7.776,5.472-7.681H36.112L32.9,22.152,29.7,17.544H25.1l5.472,7.681L24.928,33h4.656L32.9,28.321Z"/>
</svg>
