<?xml version="1.0" encoding="utf-8"?>
<!-- Generator: Adobe Illustrator 22.1.0, SVG Export Plug-In . SVG Version: 6.00 Build 0)  -->
<svg version="1.1" id="Layer_1" xmlns="http://www.w3.org/2000/svg" xmlns:xlink="http://www.w3.org/1999/xlink" x="0px" y="0px"
	 viewBox="0 0 250 50" style="enable-background:new 0 0 250 50;" xml:space="preserve">
<style type="text/css">
	.st0{fill:#00C19C;}
	.st1{fill:#FFFFFF;}
</style>
<path class="st0" d="M33.9,14.9c0,0-9.2,7.2-9.7,13.9c0,0.4,0,0.5,0,0.5c0-0.2,0-0.4,0-0.5c-0.1-1.5-1-6.3-9.6-13.9
	c0,0-13,7.6-13,14.5c0,6.6,3.2,14.5,3.2,14.5s9.1-7.2,9.8-13.8c0-0.5,0-0.8,0-0.8c0,0.3,0,0.5,0,0.8c0,1.8,0.7,6.4,6.4,13.8
	c0,0,6.1-7.4,6.5-14c0-0.4,0-0.6,0-0.6c0,0.2,0,0.4,0,0.6c0,1.7,0.7,6.8,6.5,14c0,0,9.2-7.1,9.6-14.1c0-0.3,0-0.5,0-0.5
	c0,0.2,0,0.3,0,0.5c0,1.6,0.9,6.8,9.6,14.1c0,0,6.5-7.5,6.5-14.6C59.7,23.7,46,19.4,33.9,14.9 M33.9,13.3c0.2,0,0.4,0,0.6,0.1
	c1.4,0.5,2.8,1,4.2,1.5c12.2,4.5,22.6,8.3,22.6,14.4c0,7.6-6.6,15.3-6.9,15.6c-0.3,0.4-0.8,0.5-1.2,0.5c-0.4,0-0.7-0.1-1-0.4
	c-4.7-3.9-7.2-7.3-8.6-10c-2.8,5.4-8.4,9.8-8.7,10c-0.3,0.2-0.6,0.3-1,0.3c-0.5,0-0.9-0.2-1.2-0.6c-2.7-3.3-4.3-6.2-5.3-8.6
	c-2,4.6-5,8.4-5.2,8.6c-0.3,0.4-0.7,0.6-1.2,0.6c0,0,0,0,0,0c-0.5,0-0.9-0.2-1.2-0.6c-2.8-3.7-4.5-6.8-5.5-9.2
	c-2.9,5.1-8.1,9.3-8.4,9.5c-0.3,0.2-0.6,0.3-1,0.3c-0.1,0-0.3,0-0.4-0.1c-0.5-0.1-0.9-0.5-1.1-0.9C3.2,44.2,0,36.2,0,29.4
	c0-3.3,2.4-7,7-11c3.3-2.8,6.6-4.8,6.7-4.8c0.3-0.1,0.5-0.2,0.8-0.2c0.4,0,0.7,0.1,1,0.4c4.6,4.1,7.2,7.4,8.6,10
	c2.8-5.4,8.5-9.8,8.8-10.1C33.2,13.4,33.6,13.3,33.9,13.3L33.9,13.3z"/>
<path class="st1" d="M164.7,40.6c-1.6,3.3-6.2,5.5-10.5,5.5c-1.9-0.1-3.8-0.5-5.4-1.4c-2.5-1.5-4.1-4.3-4.1-8.1c0-2.5,0-10.3,0-16.8
	h-3.1c0,0-0.2,0-0.2-0.3v-5.1c0-0.2,0.2-0.2,0.2-0.2h3.1c0-2.7,0-4.6,0-4.6c0-0.3,0.3-0.3,0.3-0.3l11.6-4.8c0,0,0.3,0.1,0.2,0.3
	c0,0,0.1,4.2,0.1,9.4h7.4c0,0,0.2,0,0.2,0.3v5.1c0,0.3-0.2,0.3-0.2,0.3h-7.3c0,5.5,0,10.8,0,12.6c0,0.4,0,0.7,0,1
	c0,0.7,0.1,1.3,0.1,1.9c0.8,4.9,4.5,3.8,6.9,3.8C165,39.1,165.1,39.9,164.7,40.6z M166.7,1.1h12.1c0,0,0.3,0,0.2,0.3
	c0,0,0.1,26.8,0.1,31c0,9.6,4.1,7.5,3.6,9.2c-0.7,1.9-4.4,4.3-7.8,4.3c-4.9,0-8.5-3.5-8.5-9.2c0-0.4,0-35.2,0-35.2
	C166.4,1.1,166.7,1.1,166.7,1.1z M219.8,41.5c-0.6,1.9-3.9,4.3-7.2,4.3c-4.2,0-7.4-2.6-8.2-6.9c-2.1,3.9-5.3,6.8-9.5,6.8
	c-7.6,0-11.8-8.4-11.8-16.5c0-8.3,4.2-16.4,12.1-16.4c4.2,0,7.1,2.4,9,5.7c0-2.5,0-4.2,0-4.2c0-0.3,0.3-0.4,0.3-0.4h12.1
	c0,0,0.2,0.1,0.2,0.3c0,0-0.4,13.8-0.4,17.9C216.3,42,220.4,39.9,219.8,41.5z M204.5,29.3c0-4.5-1.6-8.2-4.5-8.2s-4.5,3.7-4.5,8.2
	c0,4.5,1.6,8.1,4.5,8.1S204.5,33.8,204.5,29.3z M250,36c0,7.3-8.7,9.8-15.6,9.8c-5.4,0-14.2-1.9-14.2-7.8c0-3,2.4-5.5,5.9-5.5
	c2,0,4.3,0.5,4.5,1c0.4,0.5,0.1,1.3,0.1,2.5c0,2.4,1.5,3.7,3.6,3.7c2.2,0,3.2-1.1,3.3-2.7c-0.1-2.9-4.2-3.6-8.6-5
	c-4.1-1.4-8.1-4.3-8.2-9.1c0-0.1,0-0.1,0-0.2c0-6.3,7.4-9.8,13.6-9.8c7.1,0,14.2,2.5,14.2,7.8c0.1,2.9-2.1,5.3-5.9,5.3
	c-2.1,0-4.1-0.7-4.3-1.1c-0.3-0.5-0.1-1.3-0.1-2.5c0-2.4-1-3.5-3.1-3.4c-1.9,0.1-2.8,1.7-2.8,2.8c0,3,3.6,3.7,7.7,4.9
	C244.9,28.1,250,30.6,250,36z M140.7,36.5c-0.7,2.6-5.8,9.8-14.8,9.8c-4.7,0-8.9-1.9-12-5c-2.6,3.1-5.6,5-11,5.1
	c-4.6,0.1-8.1-3.6-8.8-7c-2.1,4-5.4,6.9-9.7,6.9c-7.7,0-12-8.5-12-16.8c0-8.4,4.3-16.7,12.4-16.7c4.2,0,7.3,2.4,9.2,5.8v-4.2
	c0-0.3,0.3-0.4,0.3-0.4h12.2c0,0,0.2,0.1,0.2,0.3c0,0-0.1,13.8-0.2,18.3c0,5,2.3,5.5,4.2,3.8c-0.9-2.2-1.5-4.5-1.5-7
	c0-9,6.9-16.7,17.5-16.7c10.1,0,14.4,6.3,14.4,10.7c0,9.7-11.2,10.8-19.3,9.5c2.2,6.1,10.3,6.8,17.8,2.6c0.2-0.2,0.6-0.2,0.8-0.1
	C140.7,35.7,140.9,35.9,140.7,36.5z M94.3,29.5c0-4.6-1.6-8.4-4.6-8.4S85,24.9,85,29.5s1.6,8.3,4.6,8.3S94.3,34.2,94.3,29.5z
	 M121.4,27.6c5.5,0.5,8.2-1.5,8.2-4.9c0-1.7-1.4-3.1-3.3-3c0,0,0,0.1-0.1,0.1H126c-0.4,0.1-1,0.2-1.5,0.6
	C122.5,21.6,121.6,24.6,121.4,27.6z M67.8,48.6V10.2c0-0.4-0.4-0.6-0.8-0.6s-0.8,0.3-0.8,0.6v38.4c0,0.4,0.4,0.6,0.8,0.6
	S67.8,48.9,67.8,48.6z"/>
</svg>
