<svg xmlns="http://www.w3.org/2000/svg" viewBox="0 0 50 48.737">
  <defs>
    <style>
      .cls-1 {
        fill: #3d3d3d;
      }
    </style>
  </defs>
  <path id="Union_4" data-name="Union 4" class="cls-1" d="M-7960.672-1601.476a6.72,6.72,0,0,1-1.567-7.015l-2.245-.842-.565,1.692a.836.836,0,0,1-1.062.531.841.841,0,0,1-.531-1.062l1.116-3.345,4.051,1.519a6.589,6.589,0,0,1,.8-.978,6.661,6.661,0,0,1,1.333-1.026l-8.294-7.987-.745.746a.834.834,0,0,1-.593.246.832.832,0,0,1-.593-.246.836.836,0,0,1,0-1.187l.721-.724-3.684-3.55-.439.439a.841.841,0,0,1-.6.246.836.836,0,0,1-.593-.246.837.837,0,0,1,0-1.187l.417-.417-3.764-3.624-.347.347a.84.84,0,0,1-.593.245.834.834,0,0,1-.593-.245.837.837,0,0,1,0-1.187l.325-.327-4.4-4.233a9.447,9.447,0,0,1-2.624-4.558,9.547,9.547,0,0,1-.271-2.245,6.475,6.475,0,0,1,1.377-3.99l-1.13-1.13a.84.84,0,0,1,0-1.188.839.839,0,0,1,1.188,0l1.134,1.136a6.475,6.475,0,0,1,3.953-1.347,13.129,13.129,0,0,1,3.918.6l11.645,3.64,11.73,3.5a11.741,11.741,0,0,1-.224-2.279,4.623,4.623,0,0,1,4.618-4.618,4.622,4.622,0,0,1,4.618,4.618v.84a4.613,4.613,0,0,1-.03.537,4.247,4.247,0,0,1-2.1,3.179,4.673,4.673,0,0,1-4.089.309l-.1-.032a10.1,10.1,0,0,0,1.82,2.411l4.251,4.149,2.772,2.774v-1.15a.841.841,0,0,1,.84-.84.839.839,0,0,1,.839.84v2.173l.247-.245a.84.84,0,0,1,1.188,0,.841.841,0,0,1,0,1.187l-.575.575,1.1,1.1a3.387,3.387,0,0,1,.984,2.886,4.7,4.7,0,0,1-1.387,2.672c-1.092,1.092-2.021,1.537-2.9,1.411-1.136-.164-1.718-1.237-2.141-2.018a4.137,4.137,0,0,0-.465-.748l-1.433-1.433h2.868a.839.839,0,0,1,.838.84.838.838,0,0,1-.283.631c.249.457.573,1.024.858,1.066.11.016.541,0,1.473-.936a3.026,3.026,0,0,0,.91-1.7,1.7,1.7,0,0,0-.507-1.483l-1.1-1.1-.755.758a.838.838,0,0,1-.6.246.835.835,0,0,1-.593-.246.84.84,0,0,1,0-1.189l.247-.245h-2.173a.841.841,0,0,1-.84-.84.84.84,0,0,1,.84-.84h1.515l-2.948-2.948-4.245-4.143a11.821,11.821,0,0,1-2.782-4.249l-12.773-3.812-11.655-3.642a11.436,11.436,0,0,0-3.419-.521,4.818,4.818,0,0,0-2.754.864l1.058,1.058a2.526,2.526,0,0,1,2.806.5l27.007,26.2.012-.012,6.023,5.852-.006.006,6.622,6.424a3.365,3.365,0,0,1,.01,4.758,3.353,3.353,0,0,1-2.377.982,3.349,3.349,0,0,1-2.375-.982l-5.784-5.963a6.7,6.7,0,0,1-1.934,5.369,6.7,6.7,0,0,1-4.75,1.964A6.7,6.7,0,0,1-7960.672-1601.476Zm1.188-1.187a5.046,5.046,0,0,0,7.125,0,5.046,5.046,0,0,0,0-7.125,5.03,5.03,0,0,0-3.563-1.473,5.024,5.024,0,0,0-3.563,1.473,4.268,4.268,0,0,0-.334.411l1.826.685a.838.838,0,0,1,.491,1.08.841.841,0,0,1-.786.545.837.837,0,0,1-.295-.052l-2.074-.778A5.028,5.028,0,0,0-7959.484-1602.662Zm10.787-6.037,6.441,6.64a1.682,1.682,0,0,0,2.367-.01,1.684,1.684,0,0,0,0-2.375l-6.632-6.432Zm-4.678-4.824,3.51,3.618,2.14-2.141-3.618-3.509Zm-13.069-7.652,8.73,8.408c.02.018.026.042.044.064a6.715,6.715,0,0,1,2.549-.182l-.624-.643.012-.012-9.035-9.312Zm-14.289-21.738a.848.848,0,0,0,.01,1.2l26.177,26.987,2-2-26.987-26.179a.881.881,0,0,0-.611-.253A.817.817,0,0,0-7980.733-1642.914Zm9.394,17.024,3.684,3.547,1.718-1.718-3.562-3.672Zm-4.975-4.79,3.764,3.624,1.882-1.882-3.638-3.748Zm-8.007-11.013a7.861,7.861,0,0,0,.222,1.846,7.769,7.769,0,0,0,2.157,3.748l4.419,4.255,2.046-2.048-6.454-6.654a2.52,2.52,0,0,1-.455-2.9l-1.042-1.042A4.807,4.807,0,0,0-7984.32-1641.693Zm33.591-1.062a10.088,10.088,0,0,0,.409,2.836l1.529.461a2.98,2.98,0,0,0,2.635-.188,2.549,2.549,0,0,0,1.285-1.924,3.234,3.234,0,0,0,.018-.345v-.84a2.94,2.94,0,0,0-2.938-2.938A2.94,2.94,0,0,0-7950.729-1642.755Zm-7.568,38.9,1.187-1.187a1.686,1.686,0,0,0,2.377,0,1.68,1.68,0,0,0,0-2.375l1.187-1.189a3.36,3.36,0,0,1,0,4.75,3.347,3.347,0,0,1-2.375.982A3.347,3.347,0,0,1-7958.3-1603.851Z" transform="translate(7986 1648.249)"/>
</svg>
