<svg xmlns="http://www.w3.org/2000/svg" viewBox="0 0 50 50.006">
  <defs>
    <style>
      .cls-1 {
        fill: #fff;
      }
    </style>
  </defs>
  <path id="Path_1056" data-name="Path 1056" class="cls-1" d="M47.787,14.661v0A25,25,0,0,0,.029,25.005v7.828a5.794,5.794,0,0,0,1.709,4.124l3.368,3.369.457,1.262a9.461,9.461,0,0,0,9.023,6.12c.175,0,.352-.022.529-.03l.042.115a3.353,3.353,0,0,0,4.293,2.012h0l.137-.049A3.35,3.35,0,0,0,21.6,45.468h0L15,27.218a3.363,3.363,0,0,0-4.295-2.012l-.135.049A3.333,3.333,0,0,0,8.39,28.832a9.963,9.963,0,0,0-3.27,4.076.833.833,0,0,1-.091-.361V25.005a20,20,0,1,1,40,0v7.542a.783.783,0,0,1-.035.174A9.993,9.993,0,0,0,41.8,28.83a3.333,3.333,0,0,0-2.181-3.575l-.138-.05a3.359,3.359,0,0,0-4.29,2.012l-6.6,18.25a3.35,3.35,0,0,0,2.013,4.288l.137.05a3.356,3.356,0,0,0,4.293-2.013l.042-.115c.176.008.354.03.529.03a9.461,9.461,0,0,0,9.023-6.119l.534-1.477,3.154-3.155a5.794,5.794,0,0,0,1.709-4.123V25.005A24.8,24.8,0,0,0,47.787,14.661ZM10.185,27.69a1.666,1.666,0,0,1,.954-.868l.135-.049a1.687,1.687,0,0,1,2.161,1.012l6.6,18.25a1.681,1.681,0,0,1-1.01,2.152h0l-.137.049a1.689,1.689,0,0,1-2.16-1.012l-.25-.7-6.35-17.556A1.667,1.667,0,0,1,10.185,27.69ZM8.913,30.527v0l5.616,15.518A7.853,7.853,0,0,1,7.4,41.672h.129c.083,0,.158-.016.237-.023s.137-.007.205-.019a2.589,2.589,0,0,0,.322-.083c.06-.018.12-.03.178-.052a2.555,2.555,0,0,0,.324-.162c.049-.028.1-.048.148-.078a2.594,2.594,0,0,0,.423-4.019L6.382,34.246A8.2,8.2,0,0,1,8.913,30.527ZM3.362,25.005v7.542a2.482,2.482,0,0,0,.732,1.767l4.095,4.1a.935.935,0,1,1-1.322,1.322L2.916,35.778A4.137,4.137,0,0,1,1.7,32.833V25.005a23.131,23.131,0,0,1,1.877-9.167H5.394A21.721,21.721,0,0,0,3.362,25.005ZM25.029,3.338A21.678,21.678,0,0,0,6.263,14.172h-1.9a23.333,23.333,0,0,1,41.333,0h-1.9A21.678,21.678,0,0,0,25.029,3.338Zm9.6,40.69-.9,2.5-.25.7a1.688,1.688,0,0,1-2.161,1.013h0l-.137-.05a1.682,1.682,0,0,1-1.013-2.153l6.6-18.25a1.685,1.685,0,0,1,2.157-1.012h0l.138.05a1.681,1.681,0,0,1,1.013,2.15v0Zm1.044,2.013,3.682-10.182,1.929-5.333a8.227,8.227,0,0,1,2.5,3.617l-3.088,3.089a2.587,2.587,0,0,0,.441,4.028c.053.033.108.056.162.083a2.591,2.591,0,0,0,.333.157c.065.024.131.04.2.058a2.614,2.614,0,0,0,.327.074c.071.01.141.015.212.02s.113.017.167.017.1-.012.152-.015.083.005.121,0A7.851,7.851,0,0,1,35.67,46.042ZM48.362,32.833a4.14,4.14,0,0,1-1.221,2.946l-3.284,3.285-.667.667a.935.935,0,0,1-1.322-1.322l4.095-4.1a2.485,2.485,0,0,0,.732-1.767V25.005a21.719,21.719,0,0,0-2.032-9.167h1.822a23.131,23.131,0,0,1,1.877,9.167Z" transform="translate(-0.029 0)"/>
</svg>
