<svg xmlns="http://www.w3.org/2000/svg" viewBox="0 0 150 155.598">
  <defs>
    <style>
      .cls-1 {
        fill: #3d3d3d;
      }
    </style>
  </defs>
  <path id="Path_1074" data-name="Path 1074" class="cls-1" d="M87.248,61.334a52.41,52.41,0,0,0,19.845,4.076,41.858,41.858,0,0,0,18.24-4.06c16.691-8,28.07-27.218,33.821-57.118A3.166,3.166,0,0,0,156.263.476C122.254-1.875,99.352,4.492,88.188,19.384c-10.634,14.183-7.052,31.38-5.4,37.173A103.436,103.436,0,0,0,71.256,80.24,35.792,35.792,0,0,0,60.8,65.07c.015-4.214-.863-14.332-8.893-21.662C43.463,35.7,29.957,33.6,11.766,37.172a3.165,3.165,0,0,0-2.4,4.087C15.793,60.974,24.7,72.47,35.85,75.428a22.209,22.209,0,0,0,5.716.744c7.176,0,13.077-3.4,16.053-5.508,6.486,6.1,9.781,14.4,9.781,24.781a3.168,3.168,0,0,0,.081.692,80.731,80.731,0,0,0-.8,14.768,20.589,20.589,0,0,0-27.864,6.95A19,19,0,1,0,35.74,155.6h91.811A19,19,0,1,0,116.9,120.883a26.922,26.922,0,0,0-43.93-12.052,78.578,78.578,0,0,1,1.946-18.188A93.269,93.269,0,0,1,87.248,61.334Zm6.005-38.152C102.671,10.62,122.5,5.043,152.218,6.574c-5.512,25.749-15.449,42.24-29.561,49.038-12.825,6.178-26.01,2.533-31.777.337A124.51,124.51,0,0,1,110.63,34.519a3.166,3.166,0,1,0-4.147-4.784,132.673,132.673,0,0,0-18.731,19.8C86.7,42.746,86.577,32.087,93.254,23.182Zm-57.8,37.425a43.2,43.2,0,0,1,16.089,5.509c.257.152.5.316.748.473-3.292,1.976-8.8,4.314-14.816,2.72-8.209-2.179-15.4-11.334-20.9-26.561,14.231-2.254,24.657-.479,31.023,5.295A21.439,21.439,0,0,1,54.031,60.33a50.713,50.713,0,0,0-18-6.028,3.166,3.166,0,1,0-.574,6.305Zm38.261,57.149a20.575,20.575,0,0,1,37.966,9.611,3.166,3.166,0,0,0,5.7,1.689,12.664,12.664,0,1,1,10.171,20.21H35.74a12.664,12.664,0,1,1,3.775-24.755,3.166,3.166,0,0,0,3.826-1.712A14.252,14.252,0,0,1,67.5,119.861a3.661,3.661,0,0,0,6.211-2.105Z" transform="translate(-9.211 0)"/>
</svg>
