<svg xmlns="http://www.w3.org/2000/svg" viewBox="0 0 50 43.204">
  <defs>
    <style>
      .cls-1 {
        fill: #fff;
      }
    </style>
  </defs>
  <path id="Union_3" data-name="Union 3" class="cls-1" d="M-7942.783-1383.342l-15.012-15.012-13.974,13.974a3.639,3.639,0,0,1-2.582,1.068,3.638,3.638,0,0,1-2.579-1.068,3.626,3.626,0,0,1-1.07-2.579,3.627,3.627,0,0,1,1.07-2.582l13.973-13.974-8.506-8.506-.531.533a.963.963,0,0,1-1.353.008c-.341-.331-1.09-.172-1.6.341s-.669,1.261-.339,1.6a.964.964,0,0,1-.01,1.353l-2.848,2.848a.961.961,0,0,1-.682.283.961.961,0,0,1-.681-.283l-6.209-6.209a.963.963,0,0,1,0-1.363l2.848-2.848a.963.963,0,0,1,1.355-.006c.341.333,1.09.176,1.605-.339s.671-1.263.336-1.6a.96.96,0,0,1,.008-1.355l5.85-5.852a.963.963,0,0,1,1.363,0l.527.525a8.773,8.773,0,0,1,9.057-1.086,8.626,8.626,0,0,1,3.147,2.445.964.964,0,0,1,.074,1.1.967.967,0,0,1-1.012.447,6.078,6.078,0,0,0-6.219,2.139l.635.635a.963.963,0,0,1,0,1.363l-.6.6,8.46,8.46a13.684,13.684,0,0,0,2.918-6.251l.914-4.951a.964.964,0,0,1,.471-.663.97.97,0,0,1,.812-.066l3.974,1.473a8.354,8.354,0,0,1,6.841-5.854.969.969,0,0,1,.884.349.963.963,0,0,1,.154.938l-2.419,6.588,1.715.635,2.3-6.2a.965.965,0,0,1,.726-.611.967.967,0,0,1,.9.309,8.379,8.379,0,0,1-.356,11.456A7.336,7.336,0,0,1-7940-1409.9c-.383.217-2.1.956-2.1.956l-6.315,2.658a13.675,13.675,0,0,0-4.391,2.95l-.269.269,15.012,15.012a.963.963,0,0,1,.282.681.971.971,0,0,1-.282.681l-3.355,3.355a.959.959,0,0,1-.681.283A.961.961,0,0,1-7942.783-1383.342Zm-10.688-30.837a15.61,15.61,0,0,1-4.329,8.233l-17.766,17.768a1.72,1.72,0,0,0,0,2.435,1.7,1.7,0,0,0,1.216.505,1.705,1.705,0,0,0,1.219-.505l18.96-18.96a15.628,15.628,0,0,1,5.007-3.365l6.193-2.6s1.794-.782,2.019-.91a5.5,5.5,0,0,0,1.142-.91,6.456,6.456,0,0,0,1.247-7.358l-1.982,5.341a.965.965,0,0,1-1.239.569l-10.979-4.065Zm-2.96,14.463,14.331,14.33,1.992-1.992-14.331-14.33Zm-13.667-13.667,8.506,8.506,1.992-1.994-8.506-8.5Zm-13.575,1.156,4.846,4.846,1.485-1.485-4.846-4.846Zm5.125-2.511a3.82,3.82,0,0,1-1.146.794l2.591,2.592a3.8,3.8,0,0,1,.794-1.148,3.779,3.779,0,0,1,1.292-.854l-2.675-2.676A3.766,3.766,0,0,1-7978.548-1414.739Zm1.13-3.744,4.846,4.846,4.385-4.385-4.846-4.846Zm30.038.417,1.838.679,1.77-4.82A6.424,6.424,0,0,0-7947.38-1418.066Zm-23.069-4.946,2.3,2.3a7.782,7.782,0,0,1,5.027-2.788c-.146-.08-.3-.156-.453-.227a6.745,6.745,0,0,0-2.824-.616A6.851,6.851,0,0,0-7970.449-1423.012Zm-4.774,35.954a1.01,1.01,0,0,1,1.01-1.012,1.011,1.011,0,0,1,1.01,1.012,1.011,1.011,0,0,1-1.01,1.01A1.01,1.01,0,0,1-7975.223-1387.058Zm27.217-22.624-4.736-1.7a.966.966,0,0,1-.547-.5.956.956,0,0,1-.034-.735l1.144-3.189a.964.964,0,0,1,1.233-.581l4.738,1.7a.96.96,0,0,1,.545.495.962.962,0,0,1,.036.738l-1.145,3.189a.967.967,0,0,1-.908.637A.985.985,0,0,1-7948.006-1409.682Zm-3.179-3.191,2.924,1.05.493-1.375-2.924-1.05Z" transform="translate(7986 1426.263)"/>
</svg>
