<?xml version="1.0" encoding="utf-8"?>
<!-- Generator: Adobe Illustrator 16.0.0, SVG Export Plug-In . SVG Version: 6.00 Build 0)  -->
<!DOCTYPE svg PUBLIC "-//W3C//DTD SVG 1.1//EN" "http://www.w3.org/Graphics/SVG/1.1/DTD/svg11.dtd">
<svg version="1.1" id="Layer_1" xmlns="http://www.w3.org/2000/svg" xmlns:xlink="http://www.w3.org/1999/xlink" x="0px" y="0px"
	 width="216px" height="180px" viewBox="0 0 216 180" enable-background="new 0 0 216 180" xml:space="preserve">
<g>
	<path fill="#EF3E42" d="M108,12.539c-47.611,0-99,29.613-99,77.458c0,47.847,51.389,77.464,99,77.464
		c47.609,0,98.998-29.617,98.998-77.464C206.999,42.152,155.611,12.539,108,12.539"/>
	<path fill="#00539F" d="M12.957,89.998c0-46.133,50.194-73.503,95.045-73.503c44.848,0,95.042,27.37,95.042,73.503
		c0,46.134-50.194,73.507-95.042,73.507C63.151,163.505,12.957,136.132,12.957,89.998"/>
	<path fill="#FFFFFF" d="M39.249,89.998c0-25.921,30.779-48.564,68.753-48.564c37.973,0,68.754,22.644,68.754,48.564
		c0,25.922-30.781,48.564-68.754,48.564C70.028,138.563,39.249,115.92,39.249,89.998"/>
	<path fill="#FFFFFF" d="M54.469,129.081l0.697,0.494c1.295,0.922,0.843,2.04,0.555,2.444c-0.149,0.213-1.037,1.36-2.562,0.279
		l-0.65-0.462L54.469,129.081z M45.177,136.73l4.071,2.894c0.665,0.472,3.686,2.228,5.726-0.644
		c1.268-1.782,0.773-3.184-0.323-4.353l0.025-0.033c0.705,0.38,2.605,0.657,3.884-1.143c0.864-1.216,1.26-3.353-1.124-5.046
		l-4.216-2.994L45.177,136.73z M51.196,133.686l1.021,0.728c0.876,0.622,1.07,1.519,0.367,2.507
		c-1.035,1.462-2.384,0.501-2.738,0.25l-0.746-0.529L51.196,133.686z"/>
	<path fill="#FFFFFF" d="M69.897,144.589l-2.88-1.209l3.755-4.681l0.038,0.016L69.897,144.589z M69.163,150.191l3.081,1.297
		l1.267-14.531l-3.301-1.387l-9.632,11.021l2.898,1.216l2.081-2.492l4.02,1.687L69.163,150.191z"/>
	<path fill="#FFFFFF" d="M91.136,144.798c-0.676-0.549-1.684-1.084-2.539-1.259c-1.033-0.213-1.909,0.09-2.12,1.104
		c-0.513,2.474,5.082,2.436,4.08,7.266c-0.535,2.57-2.901,3.707-5.609,3.144c-1.656-0.343-2.996-1.026-3.545-1.325l0.727-2.611
		c0.876,0.568,1.616,1.212,2.807,1.455c1.012,0.213,2.091-0.092,2.319-1.2c0.546-2.634-5.076-2.461-4.071-7.308
		c0.085-0.412,0.961-3.847,5.519-2.897c1.246,0.257,1.981,0.634,3.098,1.13L91.136,144.798z"/>
	<polygon fill="#FFFFFF" points="100.403,143.107 108.415,143.42 108.318,145.848 103.449,145.654 103.328,148.758 107.96,148.939 
		107.865,151.365 103.233,151.186 103.097,154.682 108.205,154.882 108.107,157.309 99.859,156.982 	"/>
	<path fill="#FFFFFF" d="M119.699,144.964l0.849-0.104c1.577-0.201,2.003,0.929,2.063,1.421c0.033,0.257,0.156,1.706-1.698,1.938
		l-0.79,0.1L119.699,144.964z M118.037,156.883l4.953-0.626c0.809-0.103,4.225-0.853,3.781-4.348
		c-0.274-2.171-1.586-2.867-3.184-2.987l-0.004-0.038c0.775-0.196,2.361-1.28,2.085-3.472c-0.187-1.479-1.34-3.318-4.241-2.954
		l-5.133,0.649L118.037,156.883z M120.407,150.57l1.243-0.159c1.065-0.134,1.813,0.394,1.966,1.598
		c0.226,1.775-1.414,1.984-1.849,2.039l-0.908,0.113L120.407,150.57z"/>
	<path fill="#FFFFFF" d="M141.57,146.404l-2.975,0.955l-0.193-5.996l0.039-0.012L141.57,146.404z M144.658,151.139l3.181-1.021
		l-8.489-11.855l-3.408,1.096l-0.147,14.629l2.994-0.959l-0.041-3.247l4.146-1.331L144.658,151.139z"/>
	<polygon fill="#FFFFFF" points="149.814,133.914 152.661,132.318 158.227,142.244 162.234,139.997 163.458,142.184 
		156.605,146.025 	"/>
	<polygon fill="#FFFFFF" points="162.417,125.954 164.866,123.797 172.391,132.33 175.836,129.29 177.495,131.171 171.598,136.369 	
		"/>
	<path fill="#FFFFFF" d="M191.898,142.082l0.69-0.01c0.462-0.006,1.031,0.056,1.039,0.556c0.005,0.572-0.36,0.671-0.901,0.677
		l-0.814,0.012L191.898,142.082z M190.866,146.445l1.087-0.01l-0.029-2.226l0.477-0.008l1.192,2.212l1.248-0.018l-1.354-2.264
		c0.675-0.072,1.24-0.459,1.229-1.412c-0.017-1.188-0.767-1.562-2.026-1.545l-1.885,0.021L190.866,146.445z M189.234,143.876
		c-0.027-2.169,1.477-3.745,3.439-3.772c1.939-0.021,3.504,1.52,3.53,3.688c0.028,2.186-1.499,3.752-3.438,3.771
		C190.799,147.587,189.258,146.061,189.234,143.876 M187.825,143.895c0.03,2.699,2.255,4.867,4.954,4.838
		c2.697-0.035,4.871-2.26,4.837-4.959c-0.031-2.697-2.257-4.869-4.954-4.834C189.962,138.973,187.792,141.195,187.825,143.895"/>
	<path fill="#EF3E42" d="M96.176,93.504c-1.007-2.347,0.186-7.626,0-8.559c-0.336-1.678-0.838-4.866-0.838-4.866
		c-0.931-0.507-1.858-1.491-2.682-2.892l-9.453,4.15c0,0-0.683,0.413-1.521,0.527l-0.819,0.358c0,0-3.024,1.847-4.199-1.173
		c-1.174-3.022,1.847-3.695,1.847-3.695l12.301-4.793c-0.06-0.23-0.117-0.467-0.172-0.707c-1.007-4.362,2.014-6.21,2.348-7.552
		c0.337-1.343,0.304-0.844-1.343-1.007c-0.838-0.084-1.174-1.764-2.517-1.342c0,0-4.363-5.036-4.363-7.89
		c0-2.009,1.595-4.918,4.757-6.47c-26.009,5.277-45.183,21.386-46.273,40.67c0.475,1.446,1.302,3.18,2.755,5.006l0.642-2.457
		c0.186-0.714,0.915-1.141,1.629-0.951c0.713,0.188,1.14,0.917,0.95,1.628l-1.069,4.087c0.815,0.751,1.76,1.504,2.831,2.243
		l-0.018-2.475c-0.007-0.736,0.588-1.338,1.321-1.341c0.739-0.008,1.34,0.588,1.344,1.323l0.03,4.143
		c1.197,0.661,2.52,1.301,3.988,1.911l-0.318-2.43c-0.096-0.729,0.416-1.4,1.148-1.495c0.731-0.096,1.401,0.421,1.495,1.15
		l0.504,3.843c1.351,0.467,2.804,0.907,4.365,1.317l-0.669-2.636c-0.182-0.713,0.251-1.438,0.964-1.621
		c0.716-0.183,1.442,0.255,1.623,0.966l1.013,4c0.925,0.201,1.876,0.396,2.868,0.575c0.587,0.105,1.153,0.216,1.726,0.326
		l-0.607-2.761c-0.158-0.719,0.296-1.434,1.018-1.588c0.721-0.157,1.432,0.302,1.586,1.017l0.856,3.896
		c1.643,0.338,3.22,0.686,4.742,1.045l-0.444-2.736c-0.117-0.725,0.375-1.413,1.104-1.527c0.728-0.121,1.413,0.379,1.529,1.104
		l0.624,3.857c2.814,0.73,5.399,1.51,7.781,2.34c1.914-0.812,4.106-1.75,4.106-1.75c0.037-3.719,1.51-6.715,2.351-9.398
		C97.017,98.876,97.184,95.857,96.176,93.504 M79.28,113.624c-0.526,0.515-1.369,0.508-1.885-0.015
		c-0.52-0.526-0.51-1.373,0.017-1.889l2.096-2.057c-1.426-0.338-2.903-0.668-4.441-0.988l-3.023,3.315
		c-0.497,0.541-1.339,0.582-1.883,0.089c-0.546-0.498-0.585-1.346-0.09-1.885l1.94-2.127c-0.612-0.114-1.221-0.232-1.851-0.348
		c-0.895-0.162-1.751-0.339-2.595-0.519l-2.809,3.288c-0.479,0.558-1.317,0.621-1.878,0.15c-0.56-0.48-0.628-1.324-0.147-1.884
		l1.909-2.235c-1.594-0.405-3.074-0.849-4.47-1.314l-3.366,3.104c-0.539,0.498-1.381,0.465-1.88-0.069
		c-0.503-0.546-0.469-1.39,0.072-1.888l2.354-2.172c-1.683-0.668-3.193-1.377-4.568-2.115l-3.488,2.502
		c-0.597,0.428-1.43,0.293-1.859-0.301c-0.432-0.604-0.292-1.438,0.305-1.865l2.526-1.811c-1.408-0.91-2.631-1.847-3.685-2.792
		l-2.154,0.812c3.464,11.966,14,22.193,28.51,28.58c-0.119-1.426-0.14-2.729-0.257-3.311c-0.335-1.679-0.838-4.697,0.168-7.722
		c0.237-0.706,1.304-0.888,2.344-0.884v-0.002c0.489-1.467,4.531-0.672,4.531-0.672s1.054,0.135,2.239-0.022
		c0.102-0.083,0.196-0.17,0.285-0.265c1.134-1.229,2.878-2.121,4.353-2.734c-1.293-0.4-2.639-0.786-4.053-1.16L79.28,113.624z"/>
	<path fill="#00539F" d="M92.657,77.188c0.823,1.399,1.752,2.384,2.682,2.891c0,0,0.503,3.188,0.839,4.867
		c0.185,0.932-1.008,6.21,0,8.557c1.006,2.354,0.839,5.374,0.839,5.374c-0.839,2.686-2.313,5.68-2.351,9.396
		c0,0-2.192,0.939-4.105,1.75c0.022,0.01,0.048,0.018,0.07,0.023c0.369-0.13,0.66-0.234,0.841-0.311
		c2.013-0.84,5.538-2.35,5.538-2.35c0.036-3.721,1.512-6.715,2.349-9.396c0,0,0.168-3.021-0.837-5.372
		c-1.008-2.349,0.185-7.629,0-8.559c-0.336-1.678-0.84-4.867-0.84-4.867c-0.956-0.521-1.913-1.539-2.752-3.002L92.657,77.188z
		 M133.236,49.24c0.127,0.642-0.229,1.288-0.86,1.51l-2.722,0.954c0.998,1.125,1.992,2.386,2.982,3.798l4.469-0.59
		c0.729-0.095,1.397,0.415,1.496,1.141c0.099,0.733-0.416,1.402-1.145,1.499l-3.188,0.421c0.804,1.293,1.604,2.692,2.4,4.209
		l4.404,0.008c0.736,0.003,1.33,0.597,1.333,1.33c-0.003,0.743-0.601,1.334-1.334,1.334l-3.058-0.005
		c0.651,1.354,1.301,2.789,1.946,4.312l4.418,0.47c0.731,0.079,1.265,0.73,1.188,1.463c-0.077,0.735-0.736,1.266-1.469,1.19
		l-2.992-0.32c0.24,0.604,0.479,1.209,0.719,1.84c0.311,0.816,0.635,1.601,0.969,2.358l4.555,0.419
		c0.732,0.069,1.271,0.714,1.207,1.446c-0.065,0.735-0.717,1.273-1.451,1.207l-2.932-0.27c0.695,1.3,1.428,2.496,2.189,3.594
		l4.635-0.51c0.73-0.08,1.391,0.443,1.471,1.173c0.083,0.736-0.447,1.393-1.176,1.476l-3.041,0.337
		c0.957,1.124,1.948,2.11,2.958,2.989l4.326-1.589c0.688-0.254,1.454,0.096,1.707,0.786c0.26,0.693-0.101,1.46-0.788,1.715
		l-2.76,1.015c1.158,0.789,2.328,1.45,3.488,1.999l3.863-2.664c0.604-0.42,1.436-0.269,1.854,0.334
		c0.42,0.609,0.264,1.439-0.336,1.855l-2.404,1.659c1.359,0.445,2.683,0.759,3.945,0.97l2.955-3.52
		c0.473-0.563,1.312-0.639,1.875-0.166c0.566,0.475,0.637,1.316,0.166,1.879l-1.813,2.161c2.167,0.114,3.979-0.03,5.211-0.194
		c0.198-1.404,0.308-2.828,0.308-4.268C172.809,71.677,156.492,55.958,133.236,49.24 M152.087,72.588
		c-2.052,0-3.715-1.664-3.715-3.715c0-2.055,1.663-3.717,3.715-3.717c2.056,0,3.718,1.662,3.718,3.717
		C155.805,70.924,154.143,72.588,152.087,72.588 M81.962,114.582c0.942-0.128,1.97-0.438,2.628-1.148
		c0.633-0.688,1.46-1.271,2.321-1.759c-0.102-0.03-0.209-0.062-0.312-0.093c-1.474,0.613-3.219,1.508-4.352,2.734
		C82.159,114.412,82.063,114.499,81.962,114.582 M130.631,48.538c-1.893-0.481-3.829-0.9-5.799-1.262
		c0.93,0.681,1.859,1.443,2.784,2.319L130.631,48.538z M75.192,115.279c-1.041-0.004-2.107,0.176-2.344,0.883
		c-1.008,3.023-0.504,6.043-0.168,7.723c0.116,0.58,0.136,1.885,0.257,3.311c0.847,0.375,1.71,0.734,2.586,1.082
		c-0.368-2.063-0.33-4.432-0.5-5.279C74.687,121.32,74.183,118.301,75.192,115.279 M138.967,127.025
		c-1.178,0-3.189,1.344-5.876,0.502c-2.684-0.838-2.013-5.369-2.013-6.377c0-1.006-1.008-1.174-2.014-2.517
		c-0.504-0.67,0.504-2.181-1.008-3.188c-1.512-1.01-1.68-2.687-2.014-3.356c-0.336-0.672-1.848-0.504-2.854-1.844
		c-1.008-1.349-1.682-4.703-1.682-4.703c-4.328-3.032-7.46-6.894-10.068-7.218c0,0-4.193,13.261-8.391,17.455
		c-0.076,0.078-0.159,0.145-0.238,0.214c0.553,0.39,1.087,0.786,1.591,1.194l1.208-2.807c0.291-0.675,1.074-0.988,1.749-0.697
		c0.682,0.293,0.989,1.078,0.699,1.754l-1.567,3.639c1.13,1.14,2.099,2.343,2.907,3.619l1.973-2.023
		c0.513-0.527,1.355-0.538,1.881-0.025c0.533,0.518,0.541,1.362,0.025,1.889l-2.553,2.617c0.637,1.406,1.112,2.894,1.437,4.464
		l2.141-1.435c0.61-0.412,1.438-0.248,1.845,0.362c0.414,0.614,0.25,1.442-0.36,1.851l-3.196,2.142
		c0.045,0.517,0.075,1.042,0.094,1.575c11.174-0.547,21.562-3.023,30.452-6.948C141.229,127.193,139.45,127.025,138.967,127.025
		 M81.681,81.865c-0.932,0.126-2.058-0.114-2.675-1.7c-1.174-3.021,1.846-3.694,1.846-3.694l12.301-4.794
		c-0.06-0.232-0.115-0.466-0.172-0.706c-1.007-4.366,2.013-6.211,2.351-7.552c0.335-1.344,0.303-0.845-1.343-1.008
		c-0.841-0.084-1.176-1.763-2.518-1.341c0,0-4.364-5.037-4.364-7.892c0-1.744,1.199-4.176,3.586-5.806
		c-0.391,0.074-0.783,0.144-1.172,0.224c-3.161,1.551-4.756,4.46-4.756,6.47c0,2.853,4.363,7.888,4.363,7.888
		c1.342-0.421,1.678,1.26,2.517,1.343c1.646,0.163,1.68-0.335,1.342,1.007c-0.335,1.342-3.355,3.188-2.348,7.551
		c0.056,0.24,0.111,0.478,0.173,0.707l-12.303,4.795c0,0-3.019,0.671-1.846,3.693c1.176,3.021,4.198,1.175,4.198,1.175
		L81.681,81.865z M166.968,97.057l0.759,2.883c0.187,0.711-0.24,1.44-0.951,1.627c-0.715,0.188-1.442-0.24-1.631-0.949l-1.021-3.874
		c-1.549-0.243-3.19-0.614-4.881-1.171l-0.033,2.906c-0.007,0.736-0.61,1.324-1.347,1.316c-0.74-0.007-1.329-0.613-1.323-1.352
		l0.044-3.889c-1.457-0.646-2.932-1.44-4.383-2.42l-0.738,2.748c-0.188,0.709-0.92,1.131-1.629,0.938
		c-0.716-0.19-1.136-0.925-0.945-1.634l1.019-3.786c-1.226-1.013-2.427-2.164-3.581-3.494l-1.303,2.363
		c-0.358,0.645-1.168,0.88-1.813,0.521c-0.648-0.356-0.88-1.171-0.525-1.814l1.852-3.344c-0.941-1.292-1.844-2.718-2.688-4.285
		l-1.803,2.109c-0.477,0.56-1.318,0.626-1.879,0.146c-0.563-0.478-0.624-1.323-0.148-1.88l2.535-2.966
		c-0.438-0.958-0.865-1.944-1.262-2.995c-0.179-0.469-0.355-0.913-0.533-1.367l-1.766,2.007c-0.484,0.554-1.325,0.607-1.881,0.12
		c-0.557-0.485-0.605-1.332-0.123-1.883l2.648-3.011c-0.604-1.43-1.207-2.778-1.809-4.05l-1.504,2.12
		c-0.424,0.598-1.258,0.742-1.858,0.312c-0.6-0.425-0.741-1.26-0.315-1.858l2.332-3.289c-0.694-1.336-1.393-2.573-2.092-3.726
		l-1.109,2.121c-0.346,0.647-1.146,0.901-1.801,0.556c-0.654-0.341-0.903-1.149-0.563-1.799l1.816-3.453
		c-0.9-1.308-1.803-2.482-2.707-3.53l-0.734,2.586c-0.203,0.706-0.939,1.119-1.646,0.914c-0.713-0.2-1.121-0.94-0.92-1.649
		l1.17-4.099c-1.025-0.98-2.053-1.824-3.086-2.547l-0.227,2.576c-0.064,0.732-0.711,1.273-1.445,1.207
		c-0.734-0.06-1.275-0.714-1.211-1.442l0.342-3.892c-1.205-0.637-2.42-1.126-3.635-1.525c-2.828-0.257-5.705-0.404-8.636-0.404
		c-3.139,0-6.224,0.158-9.243,0.454c1.629,0.962,2.447,2.771,2.447,2.771s3.944-0.924,4.447-0.335
		c0.639,0.74-1.931,4.362-1.931,4.362s0.589,1.847,0.67,2.351c0.144,0.843,1.178,0.754,1.01,2.517
		c-0.113,1.182-0.506,2.519,0.837,2.013c1.344-0.502,2.517,1.346,3.858,0.842c1.344-0.503,8.898,0,9.737-0.168
		s2.519-0.841,4.362-1.512c1.848-0.671,2.854,0.671,3.356,2.52c0.503,1.847-3.524,3.188-4.194,3.522
		c-0.672,0.335-0.168,1.007-1.008,1.847c-0.842,0.837-2.016-0.505-3.188,5.201c-1.176,5.709-4.198,4.7-3.861,6.714
		c0.338,2.014,1.676,5.373,2.016,6.547c0.336,1.174-0.172,2.348,0.841,2.854c2.704,1.35,6.04,5.703,9.229,8.727
		c1.732,1.641,2.854,3.021,3.356,6.211c0.505,3.188,5.172,6.557,5.873,8.055c3.453,7.361,1.596,7.988,1.596,7.988
		s-0.007,0.785,0.327,1.623c2.521,0,3.28,1.633,4.792,2.136c1.456,0.485,4.857-0.657,5.322,1.446
		c12.201-6.721,20.762-16.396,23.336-27.438C170.663,97.122,168.939,97.188,166.968,97.057 M105.679,131.859
		c-0.686-0.26-1.029-1.03-0.77-1.713c0.263-0.696,1.036-1.039,1.723-0.776l2.912,1.114c-0.263-1.284-0.642-2.51-1.143-3.678
		l-4.708-0.75c-0.725-0.113-1.219-0.795-1.107-1.521c0.114-0.734,0.8-1.227,1.524-1.112l2.691,0.429
		c-0.61-0.908-1.319-1.774-2.117-2.606l-4.318,0.911c-0.717,0.152-1.422-0.307-1.578-1.021c-0.154-0.727,0.312-1.436,1.026-1.588
		l2.438-0.515c-0.713-0.562-1.485-1.104-2.305-1.632c-2.039,0.543-4.298,0.594-5.794,1.233c-2.348,1.009-5.874,3.188-6.713,2.854
		c-0.838-0.338-3.526-1.01-4.028,0.838c-0.502,1.85-2.182,2.52-2.182,2.52s-0.457,2.959-1.318,4.999
		c8.503,2.8,18.015,4.394,28.088,4.394c0.659,0,1.311-0.021,1.963-0.033c-0.007-0.238-0.015-0.479-0.029-0.713L105.679,131.859z"/>
	<polygon fill="#FFFFFF" points="29.497,58.431 31.479,55.83 40.552,62.74 43.341,59.076 45.34,60.598 40.569,66.863 	"/>
	
		<rect x="43.015" y="44.686" transform="matrix(0.7336 -0.6796 0.6796 0.7336 -23.2012 44.1009)" fill="#FFFFFF" width="3.271" height="13.915"/>
	<polygon fill="#FFFFFF" points="49.644,41.878 47.135,43.58 45.725,41.501 53.451,36.266 54.858,38.345 52.349,40.044 
		58.747,49.484 56.042,51.319 	"/>
	<polygon fill="#FFFFFF" points="61.695,34.754 58.954,36.041 57.885,33.767 66.333,29.805 67.4,32.078 64.656,33.366 
		69.499,43.691 66.538,45.08 	"/>
	<polygon fill="#FFFFFF" points="71.864,27.769 74.987,26.805 78.353,37.701 82.753,36.341 83.495,38.74 75.968,41.065 	"/>
	<polygon fill="#FFFFFF" points="85.127,24.121 93.047,22.775 93.456,25.173 88.64,25.992 89.161,29.058 93.741,28.279 
		94.149,30.679 89.569,31.454 90.157,34.914 95.208,34.057 95.616,36.455 87.458,37.84 	"/>
	<polygon fill="#FFFFFF" points="108.179,21.836 111.448,21.944 111.068,33.342 115.675,33.492 115.59,36.004 107.72,35.744 	"/>
	<polygon fill="#FFFFFF" points="121.839,22.679 129.775,23.941 129.393,26.343 124.568,25.575 124.081,28.647 128.667,29.378 
		128.286,31.779 123.698,31.05 123.146,34.515 128.206,35.32 127.825,37.721 119.654,36.422 	"/>
	<path fill="#FFFFFF" d="M140.064,35.452l-2.985-0.942l3.319-5.016l0.039,0.013L140.064,35.452z M139.844,41.111l3.194,1.009
		l-0.067-14.614l-3.424-1.081l-8.6,11.877l3.001,0.948l1.851-2.678l4.163,1.315L139.844,41.111z"/>
	<path fill="#FFFFFF" d="M154.63,38.912l4.358,2.244l-3.422,6.648c-0.81-0.036-2.447-0.431-4.432-1.453
		c-2.307-1.187-5.301-4.209-2.57-9.51c1.56-3.03,4.961-5.451,9.674-3.023c1.453,0.75,2.354,1.571,2.988,2.168l-1.428,2.339
		c-0.475-0.605-1.203-1.498-2.48-2.154c-3.065-1.578-5.118,0.929-5.842,2.329c-1.188,2.304-1.056,4.66,1.16,5.802
		c0.428,0.219,0.79,0.339,1.102,0.343l1.443-2.801l-1.631-0.84L154.63,38.912z"/>
	<path fill="#FFFFFF" d="M167.779,39.821l2.543,2.053l-5.897,7.31c-0.877,1.085-1.01,2.078,0.015,2.904
		c1.023,0.826,1.963,0.484,2.84-0.603l5.896-7.307l2.547,2.054l-5.572,6.904c-2.164,2.685-4.854,2.871-7.291,0.905
		c-2.436-1.966-2.818-4.632-0.651-7.317L167.779,39.821z"/>
	<polygon fill="#FFFFFF" points="181.039,51.729 186.014,58.037 184.105,59.543 181.081,55.709 178.639,57.634 181.514,61.282 
		179.605,62.789 176.729,59.142 173.973,61.313 177.146,65.337 175.236,66.844 170.111,60.347 	"/>
</g>
</svg>
