<?xml version="1.0" encoding="utf-8"?>
<!-- Generator: Adobe Illustrator 22.1.0, SVG Export Plug-In . SVG Version: 6.00 Build 0)  -->
<svg version="1.1" id="Layer_1" xmlns="http://www.w3.org/2000/svg" xmlns:xlink="http://www.w3.org/1999/xlink" x="0px" y="0px"
	 viewBox="0 0 200 64" style="enable-background:new 0 0 200 64;" xml:space="preserve">
<style type="text/css">
	.st0{fill-rule:evenodd;clip-rule:evenodd;fill:#9C9C9C;}
	.st1{fill-rule:evenodd;clip-rule:evenodd;fill:#CCCCCC;}
	.st2{fill-rule:evenodd;clip-rule:evenodd;fill:#FFFFFF;}
	.st3{fill-rule:evenodd;clip-rule:evenodd;fill:#DDA453;}
	.st4{clip-path:url(#SVGID_2_);}
	.st5{clip-path:url(#SVGID_6_);}
	.st6{fill-rule:evenodd;clip-rule:evenodd;fill:#999999;}
	.st7{fill-rule:evenodd;clip-rule:evenodd;fill:#83AC25;}
</style>
<path class="st0" d="M172.3,3.2c0.5,0.4,0.9,1,1.2,1.5c0.5,0.9,0.8,1.8,0.8,2.8l0,6c-0.2,0.2-0.3,0.3-0.4,0.5c0-2.3,0-4.6,0-6.9
	c0.1-1-0.3-2-0.8-2.8C172.8,3.9,172.6,3.5,172.3,3.2L172.3,3.2z M197.7,6.3c0.4,0.3,0.7,0.7,1,1.1c0.3,0.4,0.6,0.9,0.8,1.4
	c0.5,1.4,0.7,3,0.2,4.4c-0.4,1.4-1.3,2.7-2.5,3.5c-1.5,1.2-3.1,2.3-4.7,3.3c-1.9,1.3-3.8,2.8-5.7,4.1c-0.3,0.2-0.5,0.4-0.8,0.5
	c0.8,0.8,1.6,1.8,1.9,2.8c0.4,1.2,0.2,2.5-0.6,3.5l-0.1,0.1c-0.2-0.1-0.4-0.2-0.7-0.2c0.1-0.1,0.2-0.2,0.3-0.3c0.8-1,1-2.3,0.6-3.5
	c-0.4-1.1-1.2-2-1.9-2.8c0.3-0.2,0.5-0.3,0.8-0.5c1.9-1.3,3.8-2.8,5.7-4.1c1.6-1.1,3.2-2.2,4.7-3.3c1.2-0.8,2-2.1,2.5-3.5
	c0.5-1.4,0.3-3.1-0.2-4.4c-0.2-0.5-0.5-1-0.8-1.4C198.1,6.7,197.9,6.5,197.7,6.3L197.7,6.3z M192.4,34.6c0.5,0.5,0.9,1,1.3,1.4
	c1.2,1.6,2.1,3.8,2.3,5.8c0.2,1.4,0.1,3.1-0.2,4.5c-0.7,3.1-2.7,5.7-5.4,7.4c-1.7,1.1-3.4,1.8-5.4,2c-4.4,0.6-8.9,0.1-12.5-2.7
	c-0.5,1.3-1.9,2.3-3.3,2.3c-2.1,0-4.1,0-6.2,0c-1.1,0.1-2.2-0.4-2.9-1.2c-0.1,0.1-0.1,0.1-0.2,0.2c-0.6,0.6-1.5,1-2.3,1
	c-2.1,0-4.2,0-6.3,0c-1.1,0.1-2.2-0.4-2.9-1.3c-0.7,0.9-1.8,1.3-2.9,1.3c-2,0-3.9,0-5.8,0c-0.9,0-1.9-0.3-2.6-0.9
	c-0.1-0.1-0.2-0.2-0.3-0.3c0.7,0.6,1.6,0.9,2.5,0.9c1.9,0,3.9,0,5.8,0c1.1,0.1,2.2-0.4,2.9-1.3c0.7,0.9,1.8,1.3,2.9,1.3
	c2.1,0,4.2,0,6.3,0c0.9-0.1,1.7-0.4,2.3-1c0.1-0.1,0.1-0.1,0.2-0.2c0.7,0.8,1.8,1.3,2.9,1.2c2,0,4.1,0,6.2,0c1.4,0,2.8-1,3.3-2.3
	c3.6,2.8,8.1,3.3,12.5,2.7c2-0.3,3.7-0.9,5.4-2c2.6-1.7,4.6-4.4,5.4-7.4c0.3-1.4,0.4-3.1,0.2-4.5c-0.2-2-1.1-4.2-2.3-5.8
	C193,35.2,192.7,34.9,192.4,34.6L192.4,34.6z M136.2,53.7c-0.6,1-1.8,1.7-2.9,1.7c-2.2,0-4.5,0-6.7,0h0l0,0
	c-0.2-0.1-0.4-0.1-0.6-0.1c0,0-0.1,0-0.1,0c-3,1.1-6.3,1-9.3-0.3c-0.6-0.3-1.2-0.6-1.7-0.9c-0.5-0.3-1-0.7-1.4-1.1
	c-0.2-0.2-0.4-0.4-0.6-0.6c0,0.1,0,0.2-0.1,0.3c-0.3,1.4-1.5,2.5-2.9,2.7c-0.3,0.1-0.7,0-1,0.1c-2,0-3.9,0-5.9,0c-1,0-2-0.5-2.6-1.3
	c0.6,0.5,1.4,0.8,2.2,0.9c2,0,4,0,5.9,0c0.4,0,0.7,0,1-0.1c1.4-0.2,2.6-1.4,2.9-2.7c0-0.1,0-0.2,0.1-0.3c0.2,0.2,0.4,0.4,0.6,0.6
	c0.5,0.4,0.9,0.8,1.4,1.1c0.5,0.4,1.1,0.6,1.7,0.9c2.9,1.3,6.3,1.4,9.3,0.3c0,0,0.1,0,0.1,0c0.2,0.1,0.4,0.1,0.6,0.1l0,0h0
	c2.2,0,4.5,0,6.7,0c1.2,0,2.4-0.7,3-1.8C135.9,53.3,136.1,53.5,136.2,53.7L136.2,53.7z M100,53.8c-0.6,0.9-1.7,1.5-2.8,1.5
	c-2.2,0-4.3,0-6.5,0c-1,0-2-0.5-2.6-1.3c0.6,0.5,1.4,0.8,2.2,0.9c2.2,0,4.3,0,6.5,0c1.1,0,2.2-0.7,2.9-1.6
	C99.7,53.5,99.8,53.7,100,53.8L100,53.8z M87.2,53.1c-1.4,1.3-3.7,2.2-5.4,2.6c-2.1,0.6-6.1,0.5-8.3,0.1c-1.4-0.3-2.7-0.7-3.9-1.3
	c-1-0.6-2-1.3-2.8-2.1c0.7,0.6,1.5,1.2,2.3,1.7c1.2,0.6,2.6,1.1,3.9,1.3c2.2,0.4,6.2,0.5,8.3-0.1c1.7-0.3,4.2-1.4,5.5-2.7
	c0,0,0,0.1,0,0.1C87.1,52.8,87.2,53,87.2,53.1L87.2,53.1z M64.9,49.6c0,0.7,0,1.3,0,2c0,1-0.4,2.1-1.1,2.8c-0.7,0.7-1.8,1.1-2.8,1
	c-2.1,0-4.1,0-6.2,0h0l0,0c-0.6-0.1-1.1-0.2-1.6-0.5c-0.3-0.2-0.6-0.5-0.9-0.8c0.1,0.1,0.3,0.2,0.4,0.3c0.5,0.3,1,0.5,1.6,0.5l0,0h0
	c2.1,0,4.1,0,6.2,0c1,0.1,2.1-0.3,2.8-1c0.7-0.7,1.1-1.7,1.1-2.8c0-0.9,0-1.8,0-2.7c0,0.1,0.1,0.2,0.1,0.3
	C64.7,49,64.8,49.3,64.9,49.6L64.9,49.6z M50.9,49.6c-0.6,1-1.3,1.9-2.2,2.7c-0.9,0.8-1.9,1.6-3,2.1c-3.9,2.1-9.9,2.1-13.9,0.4
	c-0.8-0.4-1.7-0.8-2.4-1.4c-0.5-0.4-1-0.8-1.5-1.2c0,0.7-0.1,1.3-0.2,2c-0.5,3.7-3.3,6.7-6.6,8.3c-3.9,1.8-9.4,1.8-13.3,0.2
	c-1.6-0.7-3.1-1.7-4.3-3c1.1,1.1,2.4,1.9,3.9,2.5c4,1.6,9.4,1.6,13.3-0.2c3.3-1.6,6.1-4.6,6.6-8.3c0.2-0.7,0.2-1.3,0.2-2
	c0.5,0.5,1,0.9,1.5,1.2c0.8,0.6,1.6,1,2.4,1.4c4.1,1.7,10,1.7,13.9-0.4c1.1-0.5,2.1-1.3,3-2.1c0.9-0.9,1.7-1.9,2.3-3
	c0.1-0.2,0.2-0.4,0.3-0.6L50.9,49.6L50.9,49.6z M26.7,32.1c0.5,0.4,0.9,1,1.1,1.6c-0.1,0.1-0.2,0.2-0.3,0.3
	C27.5,33.3,27.2,32.7,26.7,32.1L26.7,32.1z M67.9,22.3c0.5,0.4,0.8,0.9,1.1,1.5c0.3,0.6,0.2,1.3,0.2,2c0,1.5,0,2.9,0,4.4
	c0,0.2,0,0.5,0,0.7l-0.6,0c0.1-0.4,0.2-0.8,0.2-1.1c0-1.4,0-2.9,0-4.4c0-0.7,0-1.4-0.2-2C68.4,23,68.2,22.6,67.9,22.3L67.9,22.3z
	 M76.7,32.1c0.1,0.1,0.2,0.2,0.4,0.3l0,0c0,0,0,0,0,0C76.9,32.4,76.8,32.3,76.7,32.1L76.7,32.1z M109.9,33.5c0.5,0.5,0.9,1,1.3,1.5
	l-0.1,0.1c-0.1-0.1-0.2-0.3-0.3-0.4C110.6,34.3,110.3,33.9,109.9,33.5L109.9,33.5z M135.5,21.7c0.1,0.1,0.2,0.2,0.3,0.3
	c0.7,0.7,0.8,1.2,1,2.1l0,0v0c0,2.5,0,4.9,0,7.4l0,0c-0.1,0.1-0.3,0.2-0.4,0.4c0-2.7,0-5.5,0-8.2v0l0,0
	C136.1,22.8,136,22.3,135.5,21.7L135.5,21.7z M141.8,23.8c-3-2.2-6.2-4.3-9.2-6.6c-0.7-0.6-1.5-1.1-2.1-1.8c0.5,0.5,1.1,0.9,1.7,1.3
	C135.4,19.2,138.7,21.4,141.8,23.8L141.8,23.8L141.8,23.8z M154,13.5c0.1,0.1,0.3,0.3,0.4,0.4l0,0.1C154.3,13.9,154.1,13.7,154,13.5
	L154,13.5z"/>
<path class="st1" d="M154.4,14c0-2.5,0-5,0-7.6v0l0,0c0.3-1.9,1.3-3.2,2.8-4.3c2-1.5,4.3-2,6.8-2c1.4,0,2.9,0.2,4.2,0.6
	c1.9,0.6,3.8,1.7,4.8,3.5c0.5,0.9,0.8,1.8,0.8,2.8c0,2.3,0,4.6,0,6.9c1-1.1,2.6-2.1,3.7-2.9c1.5-1.1,2.9-2.3,4.5-3.2
	c1.3-1,2.8-2,4.1-2.9c1.2-0.8,2.8-1.2,4.2-1.2c1.4-0.1,2.8,0.2,4.1,0.6c1.5,0.5,2.8,1.3,3.7,2.7c0.3,0.4,0.6,0.9,0.8,1.4
	c0.5,1.4,0.7,3,0.2,4.4c-0.4,1.4-1.3,2.7-2.5,3.5c-1.5,1.2-3.1,2.3-4.7,3.3c-1.9,1.3-3.8,2.8-5.7,4.1c-0.3,0.2-0.5,0.4-0.8,0.5
	c0.8,0.8,1.6,1.8,1.9,2.8c0.4,1.2,0.2,2.5-0.6,3.5c-0.1,0.1-0.2,0.2-0.3,0.3c2.4,0.6,5.2,2.8,6.6,4.6c1.2,1.6,2.1,3.8,2.3,5.8
	c0.2,1.4,0.1,3.1-0.2,4.5c-0.7,3.1-2.7,5.7-5.4,7.4c-1.7,1.1-3.4,1.8-5.4,2c-4.4,0.6-8.9,0.1-12.5-2.7c-0.5,1.3-1.9,2.3-3.3,2.3
	c-2.1,0-4.1,0-6.2,0c-1.1,0.1-2.2-0.4-2.9-1.2c-0.1,0.1-0.1,0.1-0.2,0.2c-0.6,0.6-1.5,1-2.3,1c-2.1,0-4.2,0-6.3,0
	c-1.1,0.1-2.2-0.4-2.9-1.3c-0.7,0.9-1.8,1.3-2.9,1.3c-2,0-3.9,0-5.8,0c-0.9,0-1.9-0.3-2.6-0.9c-0.3-0.2-0.5-0.5-0.7-0.8
	c-0.6,1-1.8,1.7-3,1.8c-2.2,0-4.5,0-6.7,0h0l0,0c-0.2-0.1-0.4-0.1-0.6-0.1c0,0-0.1,0-0.1,0c-3,1.1-6.3,1-9.3-0.3
	c-0.6-0.3-1.2-0.6-1.7-0.9c-0.5-0.3-1-0.7-1.4-1.1c-0.2-0.2-0.4-0.4-0.6-0.6c0,0.1,0,0.2-0.1,0.3c-0.3,1.4-1.5,2.5-2.9,2.7
	c-0.3,0.1-0.7,0-1,0.1c-2,0-3.9,0-5.9,0c-1.1,0-2.2-0.7-2.9-1.6c-0.6,0.9-1.7,1.6-2.9,1.6c-2.2,0-4.3,0-6.5,0
	c-1.4-0.1-2.7-1-3.2-2.3c0,0,0-0.1,0-0.1c-1.4,1.3-3.8,2.4-5.5,2.7c-2.1,0.6-6.1,0.5-8.3,0.1c-1.4-0.3-2.7-0.7-3.9-1.3
	c-2.1-1.2-3.9-3-4.7-5.4c0-0.1-0.1-0.2-0.1-0.3c0,0.9,0,1.8,0,2.7c0,1-0.4,2.1-1.1,2.8c-0.7,0.7-1.8,1.1-2.8,1c-2.1,0-4.1,0-6.2,0h0
	l0,0c-0.6-0.1-1.1-0.2-1.6-0.5c-1-0.6-1.7-1.8-1.7-3c0-1,0-2.1,0-3.1c-0.1,0.2-0.2,0.4-0.3,0.6c-0.6,1.1-1.4,2.1-2.3,3
	c-0.9,0.8-1.9,1.6-3,2.1c-3.9,2.1-9.9,2.1-13.9,0.4c-0.8-0.4-1.7-0.8-2.4-1.4c-0.5-0.4-1-0.8-1.5-1.2c0,0.7-0.1,1.3-0.2,2
	c-0.5,3.7-3.3,6.7-6.6,8.3c-3.9,1.8-9.4,1.8-13.3,0.2c-2.2-1-4-2.3-5.4-4.2c-1.2-1.7-1.7-2.9-1.8-5l0,0l0,0c0.2-1.2,0.8-2.3,1.8-2.9
	c-1.9-2.6-2.4-6.2-1.9-9.3c0.8-5.1,5-9.6,10.1-10.3c2-0.3,4.1-0.2,6,0.4c0.1,0,0.2,0.1,0.3,0.1c0.2-0.1,0.5-0.1,0.7-0.2l0,0h0
	c2.3,0,4.6,0,6.9,0c0.6,0.1,1.3,0.3,1.8,0.7c0.8,0.6,1.4,1.5,1.5,2.5c1.1-1.1,2.5-2.1,4-2.7c2.2-0.9,4.9-1.3,7.2-1.2
	c1.9,0.1,3.9,0.5,5.7,1.2c1.5,0.7,3.1,1.7,4.3,3c0.1-1.4,0.8-2.7,2.2-3.2c0-1.3,0.7-3.6,1.2-4.7c0.9-1.7,2.2-3.1,3.8-4.2
	c1.3-0.9,2.8-1.5,4.4-1.7c1.7-0.3,4.1-0.1,5.8,0.5c1.1,0.4,2,1.2,2.4,2.3c0.3,0.6,0.2,1.3,0.2,2c0,1.5,0,2.9,0,4.4
	c0,0.4,0,0.8-0.2,1.1c1.7,0,3.5,0,5.2,0c1.3-0.1,2.5,0.6,3.2,1.7c0,0,0,0,0,0c0.7-1.1,1.9-1.7,3.2-1.7c2.1,0,4.2,0,6.4,0
	c0.6,0.1,1.2,0.3,1.7,0.6c0.6-0.4,1.4-0.7,2.2-0.6c2.1,0,4.2,0,6.3,0c0.4,0,0.8,0.1,1.1,0.3c1.6-0.5,3.3-0.8,5-0.7
	c3.2,0.2,6.1,1.5,8,4.3c0.1,0.2,0.2,0.3,0.3,0.4c0.9-1.2,2.4-2.5,3.6-3.2c2.4-1.4,4.4-1.6,7.1-1.6h0l0,0c0.1,0,0.6,0.1,0.9,0.1
	c0-2.2,0-4.4,0-6.7c0.1-0.7,0.3-1.3,0.7-1.9c0.7-0.9,1.9-1.5,3-1.5c1.9,0,3.8,0,5.7,0c0.4,0,0.7,0,1.1,0.1c0.8,0.1,1.5,0.5,2,1.1
	c0.7,0.7,0.8,1.2,1,2.1l0,0v0c0,2.7,0,5.5,0,8.2c0.1-0.1,0.3-0.2,0.4-0.4c0.5-0.4,1.2-0.7,1.9-0.8l0,0l0,0c0.5,0,1,0,1.5,0
	c-1.3-1.3-1.4-3.4-0.2-4.9c0.4-0.6,1.2-1.6,1.9-2.2c-3.2-2.4-6.5-4.5-9.7-6.9c-0.8-0.6-1.7-1.2-2.3-2c-1.4-1.7-1.9-3.8-1.3-5.9
	c0.8-3,3.3-4.8,6.3-5.4c2-0.4,4.1-0.2,6,0.6c2,1.1,4,2.7,5.9,4c2.1,1.5,4.3,3,6.4,4.6C153.6,13.2,154.1,13.6,154.4,14L154.4,14z"/>
<path class="st2" d="M123,30.7c-0.2,0-0.9-0.1-1.1-0.1c-2.7,0-4.6,0.2-6.9,1.6c-1.3,0.8-3,2.2-3.8,3.5l-0.1,0.2l-0.1-0.2
	c-0.1-0.3-0.3-0.5-0.4-0.8c-1.8-2.7-4.6-3.9-7.7-4.1c-1.6-0.1-3.4,0.2-4.9,0.7l0,0l0,0c-0.4-0.1-0.7-0.3-1.1-0.3c-2.1,0-4.2,0-6.3,0
	c-0.8,0-1.5,0.2-2.1,0.7l0,0l0,0c-0.5-0.4-1.1-0.6-1.7-0.7c-2.1,0-4.2,0-6.3,0c-1.1,0-2.3,0.6-2.9,1.5c-0.1,0.1-0.2,0.3-0.2,0.5
	l0,0.1l-0.2,0l0-0.1c0-0.2-0.1-0.3-0.2-0.4c-0.6-1-1.8-1.6-2.9-1.6c-1.8,0-3.7,0-5.5,0l-0.1,0l0.1-0.1c0.2-0.4,0.3-0.9,0.3-1.3
	c0-1.5,0-2.9,0-4.4c0-0.6,0-1.3-0.2-1.9c-0.4-1-1.3-1.7-2.2-2.1c-1.6-0.6-3.9-0.8-5.6-0.5c-1.5,0.3-3,0.9-4.3,1.7
	c-1.6,1-2.9,2.4-3.7,4.1c-0.5,1.1-1.2,3.5-1.2,4.7v0.1l-0.1,0c-1.5,0.5-2.2,2-2.1,3.6l0,0.2L48.9,35c-1.2-1.4-2.9-2.7-4.6-3.4
	c-1.7-0.7-3.7-1.1-5.5-1.2c-2.3-0.1-4.9,0.3-7.1,1.2c-1.6,0.6-3.2,1.7-4.3,3l-0.2,0.2l0-0.2c0.1-1.1-0.5-2.2-1.4-2.9
	c-0.5-0.4-1.1-0.5-1.7-0.6c-2.3,0-4.6,0-6.8,0c-0.2,0.1-0.5,0.1-0.7,0.2c-0.2,0.1-0.3,0-0.5-0.1c-1.8-0.7-3.9-0.7-5.8-0.4
	c-5,0.7-9.1,5.1-9.9,10.1c-0.5,3.1,0,6.7,2,9.3l0.1,0.1l-0.1,0c-1.1,0.5-1.8,1.5-1.9,2.7c0,2,0.6,3.2,1.7,4.8
	C3.6,59.7,5.4,61,7.5,62c3.9,1.6,9.3,1.6,13.1-0.2c3.2-1.5,6-4.4,6.5-8.1c0.2-0.7,0.2-1.3,0.2-2.1c0-0.2,0.1-0.3,0.1-0.5l-0.1-0.3
	l0.2,0.2c0.5,0.6,1.1,1.1,1.8,1.6c0.7,0.5,1.6,0.9,2.4,1.3c4,1.7,9.8,1.7,13.6-0.4c1.1-0.5,2-1.2,2.9-2c0.9-0.9,1.7-1.8,2.3-2.9
	c0.3-0.6,0.6-1.1,0.8-1.7l0-0.1l0.1,0l0,0.1c0,1.5,0,2.9,0,4.4c0,1.1,0.7,2.1,1.6,2.7c0.4,0.3,1,0.4,1.5,0.5c2.1,0,4.1,0,6.2,0
	c0.9,0.1,1.9-0.3,2.6-1c0.7-0.6,1.1-1.6,1-2.5c0-1.7,0-3.4,0-5l0-0.1l0.1,0c0,0,0.1,0,0.1,0l0.1,0l0,0.1c0,0.2,0.1,0.4,0.1,0.6
	c0.1,0.6,0.2,1.3,0.5,1.9c0.7,2.3,2.4,4,4.5,5.2c1.2,0.6,2.5,1,3.9,1.3c2.1,0.4,6.1,0.5,8.1-0.1c1.8-0.3,4.4-1.5,5.7-2.9l0.2-0.2
	l0,0.3c0,0.2,0.1,0.3,0.1,0.5c0.5,1.2,1.7,2,2.9,2.1c2.2,0,4.3,0,6.5,0c1.1,0,2.2-0.7,2.8-1.7l0,0l0,0c0.2-0.1,0.2,0.1,0.3,0.2
	c0.6,0.9,1.6,1.5,2.7,1.6c2,0,3.9,0,5.9,0c0.3,0,0.6,0,1-0.1c1.3-0.2,2.4-1.2,2.7-2.5c0-0.2,0.1-0.5,0.1-0.7L112,51l0.2,0.2
	c0.3,0.3,0.6,0.6,0.9,1c0.4,0.4,0.9,0.7,1.4,1c0.5,0.4,1.1,0.6,1.7,0.9c2.8,1.2,6.1,1.3,9,0.3c0.1-0.1,0.2,0,0.3,0
	c0.2,0.1,0.4,0.1,0.6,0.1c2.2,0,4.5,0,6.7,0c1.3,0,2.5-0.9,2.9-2l0.1-0.2l0.1,0.2c0.1,0.5,0.5,0.9,0.8,1.2c0.6,0.6,1.5,0.9,2.4,0.9
	c2,0,3.9,0,5.9,0c1.1,0.1,2.2-0.5,2.8-1.4l0,0l0,0c0,0,0,0,0.1,0l0,0l0,0c0.6,0.9,1.7,1.4,2.8,1.4c2.1,0,4.2,0,6.3,0
	c0.8-0.1,1.6-0.4,2.1-0.9c0.1-0.1,0.3-0.3,0.3-0.4l0.1-0.1l0.1,0.1c0.6,0.9,1.7,1.4,2.8,1.4c2.1,0,4.1,0,6.2,0c1.4,0,2.7-1,3.1-2.4
	l0-0.1l0.1,0.1c3.5,2.9,8.1,3.4,12.6,2.9c2-0.2,3.6-0.9,5.3-2c2.6-1.7,4.5-4.2,5.2-7.3c0.3-1.4,0.4-3,0.2-4.4c-0.2-2-1-4.1-2.2-5.7
	c-1.5-1.9-4.4-4.2-6.9-4.6l-0.2,0l0.2-0.1c0.2-0.1,0.4-0.4,0.6-0.6c0.7-0.9,0.9-2.1,0.5-3.1c-0.4-1.1-1.3-2.1-2.1-2.9l-0.1-0.1
	l0.1,0c0.4-0.2,0.7-0.4,1-0.6c1.9-1.3,3.8-2.8,5.7-4.1c1.6-1.1,3.2-2.2,4.7-3.3c1.1-0.8,1.9-2.1,2.3-3.3c0.4-1.3,0.3-2.9-0.2-4.2
	c-0.2-0.5-0.5-1-0.8-1.4c-0.9-1.3-2.1-2.1-3.5-2.6c-1.3-0.5-2.6-0.7-4-0.6c-1.4,0.1-2.9,0.4-4.1,1.2c-1.4,0.9-2.8,1.9-4.1,2.9
	c-1.6,1-3,2.1-4.5,3.2c-1.2,0.9-3.3,2.1-4.1,3.4l-0.1,0.3l0-0.3c0-2.5,0-5.1,0-7.6c0-0.9-0.3-1.9-0.7-2.7c-0.9-1.7-2.8-2.8-4.6-3.4
	c-1.3-0.4-2.7-0.6-4.1-0.6c-2.4,0-4.7,0.5-6.6,2c-1.4,1.1-2.3,2.3-2.6,4.1c0,2.8,0,5.6,0,8.4l0,0.4l-0.2-0.3c-0.3-0.8-1-1.3-1.6-1.9
	c-2.1-1.6-4.3-3.1-6.4-4.6c-1.9-1.3-3.8-3-5.8-4c-1.8-0.7-3.9-0.9-5.8-0.5c-2.9,0.5-5.2,2.3-6,5.2c-0.6,2-0.1,4,1.2,5.6
	c0.6,0.8,1.5,1.4,2.3,2c3.2,2.4,6.5,4.6,9.7,7c0.1,0.1,0.2,0,0.2,0.2l0,0.1l0,0c-0.7,0.4-1.6,1.7-2.1,2.3c-1.2,1.6-1,3.7,0.6,4.9
	l0.2,0.1l-0.3,0c-0.7,0-1.4,0-2.2,0c-0.6,0.1-1.3,0.3-1.8,0.7c-0.3,0.2-0.6,0.5-0.8,0.9L136,33l0-0.4c0-3,0-6,0-9
	c-0.2-0.9-0.3-1.3-0.9-2c-0.5-0.5-1.2-0.9-1.9-1c-0.3-0.1-0.7,0-1,0c-1.9,0-3.8,0-5.7,0c-1.1,0-2.1,0.5-2.8,1.4
	c-0.4,0.5-0.6,1.1-0.6,1.7c0,2.3,0,4.6,0,6.9l0,0.2L123,30.7C123,30.8,123,30.7,123,30.7L123,30.7z"/>
<path class="st3" d="M190.4,7.3c1.4-0.1,3,0.2,4.1,1c0.8,0.6,1.4,1.5,1.4,2.5c0,1-0.6,2-1.4,2.6c-3.5,2.5-6.9,5-10.4,7.4
	c-1,0.7-2.4,1-3.6,1c-1,0-2.1-0.3-3-0.9c-0.6-0.4-1.1-0.9-1.4-1.6c-0.2-0.5-0.2-1-0.2-1.6c0.1-0.6,0.4-1.2,0.9-1.7
	c0.3-0.3,0.6-0.5,0.9-0.7c3.1-2.2,6.1-4.4,9.2-6.6c0.4-0.3,0.8-0.6,1.2-0.8C188.8,7.6,189.6,7.4,190.4,7.3L190.4,7.3z M136,7
	c1.1-0.1,2.2-0.1,3.2,0.4c0.7,0.3,1.3,0.8,2,1.2c3,2.2,6.1,4.3,9.1,6.5c0.5,0.3,1,0.7,1.3,1.2c0.6,0.9,0.7,2,0.2,3
	c-0.4,0.8-1.2,1.4-2,1.8c-0.8,0.4-1.6,0.5-2.4,0.5c-1.2,0-2.5-0.3-3.5-1c-3.5-2.5-7-5-10.5-7.5c-0.5-0.4-0.9-0.9-1.2-1.5
	c-0.3-0.9-0.2-1.9,0.4-2.7C133.4,7.8,134.7,7.2,136,7L136,7z M163.3,3.8c0.5-0.1,0.9,0,1.4,0c1.2,0.1,2.4,0.5,3.2,1.3
	c0.6,0.6,1.1,1.4,1,2.3c0,2.4,0,4.8,0,7.3c0,1-0.6,2-1.4,2.5c-0.6,0.5-1.4,0.8-2.2,0.9c-0.6,0.1-1.2,0.1-1.7,0.1
	c-0.8-0.1-1.6-0.3-2.3-0.6c-0.8-0.4-1.5-1.1-1.8-1.9c-0.2-0.5-0.2-1.1-0.2-1.7c0-2.1,0-4.3,0-6.4c0-0.3,0-0.6,0.1-1
	c0.2-0.7,0.7-1.3,1.3-1.7C161.4,4.2,162.4,3.9,163.3,3.8L163.3,3.8z"/>
<g>
	<defs>
		<path id="SVGID_1_" d="M176.9,17.9c0,0.3,0,0.7,0.1,1l0,0c0.2,0.5,0.6,0.9,1,1.1c0.7,0.5,1.6,0.7,2.5,0.7c1,0,2.1-0.2,3-0.8
			c3.5-2.5,6.9-5,10.4-7.4c0.5-0.4,1-1,1-1.7l0,0l0,0c0-0.7-0.4-1.3-1-1.7c-1-0.7-2.2-1-3.4-0.8c-0.7,0.1-1.3,0.3-1.9,0.6
			c-0.4,0.2-0.7,0.5-1.1,0.8c-3.1,2.2-6.1,4.4-9.2,6.6c-0.3,0.2-0.5,0.4-0.8,0.6C177.3,17.1,177,17.5,176.9,17.9L176.9,17.9z
			 M147.3,20.5c0.7,0,1.4-0.2,2-0.5c0.6-0.3,1.2-0.7,1.5-1.3c0.3-0.6,0.3-1.3-0.1-1.9l0,0c-0.3-0.4-0.7-0.7-1.1-1
			c-3-2.2-6.1-4.4-9.1-6.5c-0.5-0.4-1.1-0.9-1.7-1.1C137.9,8,137,7.9,136.1,8c-1,0.1-2.1,0.6-2.7,1.4c-0.3,0.5-0.5,1.1-0.3,1.7
			c0.1,0.4,0.5,0.8,0.8,1c3.5,2.5,7,5,10.5,7.5C145.3,20.3,146.3,20.5,147.3,20.5L147.3,20.5z M164.6,4.8c-0.4,0-0.8,0-1.2,0
			c-0.8,0.1-1.5,0.3-2.1,0.8c-0.4,0.3-0.8,0.7-0.9,1.2c-0.1,0.2-0.1,0.5-0.1,0.6c0,2.1,0,4.3,0,6.4c0,0.4,0,1,0.1,1.3
			c0.2,0.6,0.8,1.1,1.3,1.4c0.6,0.3,1.2,0.5,1.8,0.5c0.5,0,1,0,1.5-0.1c0.6-0.1,1.3-0.4,1.8-0.7c0.5-0.4,1-1,1-1.7
			c0-2.4,0-4.8,0-7.2l0,0c0-0.6-0.3-1.1-0.7-1.5C166.5,5.2,165.6,4.9,164.6,4.8L164.6,4.8z"/>
	</defs>
	<clipPath id="SVGID_2_">
		<use xlink:href="#SVGID_1_"  style="overflow:visible;"/>
	</clipPath>
	<g class="st4">
		<defs>
			<rect id="SVGID_3_" x="133" y="4.8" width="61.9" height="16.1"/>
		</defs>
		<clipPath id="SVGID_4_">
			<use xlink:href="#SVGID_3_"  style="overflow:visible;"/>
		</clipPath>
		<g style="clip-path:url(#SVGID_4_);">
			
				<image style="overflow:visible;" width="124" height="34" xlink:href="BE0174C4.jpg"  transform="matrix(0.5333 0 0 -0.5333 131.6443 22.0704)">
			</image>
		</g>
	</g>
</g>
<path class="st3" d="M161.5,20.5c0.5,0,1.1-0.1,1.6-0.1c0.9,0,1.8,0.1,2.7,0.1c0.4,0.1,0.7,0,1.1,0.1c2.8,0.2,5.7,0.8,8.4,1.7
	c2.2,0.7,4.4,1.8,6.2,3.2c1,0.8,2,1.7,2.7,2.9c-13.8,0-27.5,0-41.3,0c0.9-1.4,2.1-2.5,3.5-3.4c2.7-1.8,5.9-2.9,9.1-3.6
	c1.7-0.4,3.4-0.6,5.1-0.7C160.8,20.6,161.2,20.5,161.5,20.5L161.5,20.5z"/>
<g>
	<defs>
		<path id="SVGID_5_" d="M182.9,28.3c-12.9,0-25.9,0-38.8,0c0.8-1,1.8-1.8,2.8-2.5c2.6-1.8,5.7-2.8,8.8-3.5c1.6-0.3,3.3-0.6,4.9-0.7
			c0.3,0,0.7-0.1,1-0.1c0.5,0,1-0.1,1.5,0c0.9,0,1.7,0.1,2.6,0.1c0.3,0.1,0.7,0,1,0.1c2.8,0.2,5.5,0.7,8.1,1.6
			c2.1,0.7,4.2,1.7,6,3.1C181.6,26.9,182.3,27.5,182.9,28.3L182.9,28.3z"/>
	</defs>
	<clipPath id="SVGID_6_">
		<use xlink:href="#SVGID_5_"  style="overflow:visible;"/>
	</clipPath>
	<g class="st5">
		<defs>
			<rect id="SVGID_7_" x="144" y="21.4" width="38.8" height="6.9"/>
		</defs>
		<clipPath id="SVGID_8_">
			<use xlink:href="#SVGID_7_"  style="overflow:visible;"/>
		</clipPath>
		<g style="clip-path:url(#SVGID_8_);">
			
				<image style="overflow:visible;" width="80" height="16" xlink:href="BE0174C5.jpg"  transform="matrix(0.5333 0 0 -0.5333 142.5999 29.3864)">
			</image>
		</g>
	</g>
	<g class="st5">
		<defs>
			<rect id="SVGID_9_" x="144" y="21.4" width="38.8" height="6.9"/>
		</defs>
		<clipPath id="SVGID_10_">
			<use xlink:href="#SVGID_9_"  style="overflow:visible;"/>
		</clipPath>
		<g style="clip-path:url(#SVGID_10_);">
			
				<image style="overflow:visible;" width="80" height="16" xlink:href="BE0174C3.jpg"  transform="matrix(0.5333 0 0 -0.5333 142.5999 29.3864)">
			</image>
		</g>
	</g>
</g>
<path class="st6" d="M36.9,33.8c2.3-0.2,4.8,0.1,6.9,1.2c1.7,0.9,3.2,2.4,4,4.2c0.8,1.8,0.9,3.9,0.4,5.8c-0.5,1.8-1.6,3.5-3.1,4.6
	c-1.2,0.9-2.6,1.5-4,1.8c-1.4,0.3-2.8,0.3-4.1,0.3c-1.9-0.1-3.8-0.6-5.4-1.6c-1.6-1-2.9-2.6-3.5-4.4c-0.4-1.2-0.6-2.5-0.5-3.8
	c0.1-1.4,0.6-2.8,1.4-3.9c1-1.5,2.5-2.7,4.2-3.4C34.2,34.2,35.5,33.9,36.9,33.8L36.9,33.8z M37.4,38.9c-1.6,0.2-3,1.5-3.4,3
	c-0.2,0.9-0.1,1.8,0.3,2.6c0.5,0.9,1.4,1.7,2.4,2c0.7,0.2,1.5,0.2,2.2,0.1c1.1-0.2,2.1-1,2.6-2c0.5-0.9,0.6-2.1,0.3-3.1
	c-0.3-0.9-0.9-1.6-1.7-2.1C39.3,39,38.3,38.8,37.4,38.9L37.4,38.9z"/>
<path class="st6" d="M10.4,34.2c1.4-0.3,2.9-0.3,4.2,0c0.6,0.2,1.2,0.4,1.7,0.8c0.5,0.3,1,0.8,1.4,1.2c0-0.6,0-1.1,0-1.7
	c0.2,0,0.3,0,0.5,0c1.9,0,3.8,0,5.7,0c0,0.9,0,1.8,0,2.7c0,3.7,0,7.4,0,11.1c0,1.5,0.1,3.1-0.2,4.6c-0.1,1-0.5,2-1.1,2.9
	c-1.1,1.5-2.7,2.7-4.4,3.3c-2,0.7-4.1,0.8-6.1,0.6c-2.1-0.2-4.2-0.9-5.7-2.3c-1-0.8-1.9-1.9-2.3-3.1c-0.1-0.3-0.2-0.6-0.2-1
	c0.8,0,1.7,0,2.6,0c1.5,0,2.9,0,4.4,0c0.2,0.4,0.4,0.9,0.8,1.2c0.6,0.5,1.4,0.6,2.1,0.6c0.9,0,1.8-0.2,2.5-0.7c0.6-0.4,1-1,1.3-1.6
	c0.4-1.1,0.2-2.2,0.3-3.3c-0.3,0.2-0.6,0.5-1,0.8c-0.9,0.7-1.9,1.1-3,1.3c-2.2,0.3-4.5,0-6.3-1.2c-0.8-0.5-1.5-1.2-2.1-2
	c-0.7-1-1.2-2.2-1.4-3.4c-0.2-1.2-0.2-2.5,0-3.7c0.2-1.3,0.8-2.6,1.6-3.7C6.6,35.8,8.4,34.6,10.4,34.2L10.4,34.2z M13.3,38.9
	c-1.6,0.3-2.9,1.6-3.2,3.3c-0.1,0.9,0,1.8,0.4,2.5c0.6,0.9,1.5,1.7,2.6,1.9c0.9,0.2,1.9,0.1,2.7-0.3c0.7-0.4,1.3-1,1.7-1.7
	c0.5-0.9,0.5-2,0.2-3c-0.3-0.8-0.8-1.5-1.6-2C15.4,38.9,14.3,38.7,13.3,38.9L13.3,38.9z"/>
<path class="st6" d="M179.1,34.2c1.3-0.3,2.6-0.3,3.8-0.2c1.3,0.1,2.6,0.4,3.8,0.9c0.9,0.4,1.7,1,2.4,1.8c0.8,0.8,1.4,1.9,1.8,2.9
	c0.5,1.4,0.6,2.9,0.6,4.3c-4.3,0-8.6,0-12.9,0c0,1,0.2,2.1,1,2.8c0.5,0.5,1.3,0.8,2,0.9c0.7,0.1,1.4,0.1,2.1-0.1
	c0.6-0.2,1.2-0.7,1.6-1.2c0.1-0.1,0.1-0.2,0.2-0.2c2,0,3.9,0,5.9,0c-0.3,0.9-0.7,1.8-1.3,2.6c-0.6,0.9-1.5,1.5-2.4,2
	c-1.2,0.6-2.6,1-4,1.1c-1.3,0.1-2.6,0.1-3.8-0.2c-1.2-0.2-2.4-0.6-3.4-1.2c-1.9-1.1-3.3-3-3.8-5.1c-0.4-1.6-0.4-3.2,0-4.8
	c0.4-1.9,1.5-3.7,3.1-4.9C176.6,35,177.9,34.5,179.1,34.2L179.1,34.2z M179.5,38.8c-0.4,0.5-0.7,1.1-0.8,1.8c2.3,0,4.7,0,7,0
	c-0.2-0.9-0.6-1.8-1.4-2.3c-0.6-0.4-1.4-0.6-2.1-0.5C181.1,37.7,180.1,38,179.5,38.8L179.5,38.8z"/>
<path class="st6" d="M162,34.1c1.3-0.1,2.7,0.1,3.9,0.7c0.9,0.5,1.8,1.3,2.2,2.2c0.5,1,0.5,2.2,0.5,3.4c0,3.6,0,7.2,0,10.8
	c-2.1,0-4.1,0-6.2,0c0-2.3,0-4.7,0-7c0-1.1,0-2.1-0.1-3.2c-0.1-0.5-0.2-1-0.6-1.4c-0.4-0.6-1.2-0.9-1.9-0.9c-0.8,0-1.6,0.3-2.1,0.9
	c-0.4,0.5-0.6,1.1-0.8,1.7c-0.2,0.9-0.1,1.8-0.1,2.6c0,1.8,0,3.7,0,5.5c0,0.6,0,1.1,0,1.7c-2.1,0-4.1,0-6.2,0c0-2.9,0-5.8,0-8.8
	c0-0.6,0-1.1-0.2-1.7c-0.1-0.8-0.8-1.5-1.6-1.8c-1-0.3-2.3-0.1-3,0.8c-0.6,0.6-0.7,1.6-0.7,2.4c0,1.8,0,3.6,0,5.4c0,1.2,0,2.5,0,3.7
	c-2.1,0-4.1,0-6.2,0c0-5.2,0-10.3,0-15.5c0-0.4,0-0.9,0-1.3c2.1,0,4.1,0,6.2,0c0,0.7,0,1.4,0,2.1c0.6-0.6,1.3-1.2,2.1-1.5
	c1.6-0.8,3.4-0.9,5.1-0.7c0.9,0.2,1.9,0.5,2.6,1c0.7,0.5,1.3,1.2,1.8,1.9c0.3-0.5,0.7-0.9,1.1-1.3C159,34.9,160.5,34.3,162,34.1
	L162,34.1z"/>
<path class="st7" d="M59.2,24.6c1-0.4,2.2-0.6,3.3-0.6c0.9,0,1.8,0.3,2.6,0.6c0,1.7,0,3.5,0,5.2c-0.8-0.4-1.7-0.8-2.6-0.6
	c-0.7,0.1-1.3,0.5-1.5,1.2c-0.2,0.7-0.2,1.4-0.2,2.1c0,0.7,0,1.3,0,2c1.4,0,2.9,0,4.3,0c0,1.6,0,3.3,0,4.9c-1.4,0-2.9,0-4.3,0
	c0,0.6,0,1.2,0,1.8c0,3.4,0,6.7,0,10.1c-2.1,0-4.1,0-6.2,0c0-4,0-7.9,0-11.9c-0.7,0-1.5,0-2.2,0c0-1.6,0-3.3,0-4.9
	c0.7,0,1.5,0,2.2,0c0-0.9,0-1.9,0-2.8c0.1-1.3,0.3-2.6,0.9-3.8c0.4-0.7,0.9-1.3,1.4-1.8C57.6,25.5,58.4,25,59.2,24.6L59.2,24.6z"/>
<path class="st7" d="M126.5,24c2.1,0,4.1,0,6.2,0c0,9.1,0,18.1,0,27.2c-2.1,0-4.1,0-6.2,0c0-0.6,0-1.2,0-1.8
	c-0.3,0.3-0.5,0.5-0.8,0.8c-0.8,0.7-1.8,1.2-2.8,1.4c-2.4,0.5-5,0-6.9-1.4c-1-0.7-1.9-1.6-2.5-2.7c-0.6-1-1-2.2-1.1-3.5
	c-0.1-1.2-0.1-2.4,0.2-3.6c0.3-1.2,0.8-2.4,1.6-3.3c1.3-1.6,3.1-2.7,5.1-3.1c1.4-0.3,2.9-0.2,4.3,0.2c0.8,0.3,1.5,0.6,2.2,1.1
	c0.3,0.2,0.5,0.4,0.8,0.7C126.5,32.1,126.5,28,126.5,24L126.5,24z M121.9,39.1c-1.7,0.3-3.1,1.8-3.1,3.5c-0.1,1,0.3,2,1,2.7
	c0.7,0.9,1.8,1.3,3,1.3c1.1,0,2.2-0.4,3-1.3c0.8-0.8,1.1-2.1,0.9-3.2c-0.2-1.1-0.9-2-1.8-2.5C124,39,122.9,38.9,121.9,39.1
	L121.9,39.1z"/>
<path class="st7" d="M101.2,34.1c1.3-0.1,2.7,0,3.9,0.4c1.1,0.4,2.1,1.2,2.7,2.2c0.7,1.1,0.9,2.4,1,3.6c0,3.6,0,7.3,0,10.9
	c-2.1,0-4.1,0-6.2,0c0-2.5,0-5.1,0-7.6c0-0.9,0-1.7-0.1-2.6c-0.1-0.5-0.2-1.1-0.6-1.5c-0.5-0.6-1.3-0.8-2-0.8c-1,0-2,0.4-2.6,1.1
	c-0.5,0.6-0.6,1.4-0.6,2.2c0,3.1,0,6.1,0,9.2c-2.1,0-4.1,0-6.2,0c0-5.6,0-11.2,0-16.8c2.1,0,4.1,0,6.2,0c0,0.7,0,1.4,0,2.1
	c0.5-0.5,1-1,1.6-1.4C99,34.5,100.1,34.2,101.2,34.1L101.2,34.1z"/>
<path class="st7" d="M67.7,34.4c2.1,0,4.1,0,6.2,0c0,1.5,0,2.9,0,4.4c0,1.8,0,3.6,0,5.4c0,0.6,0.1,1.2,0.5,1.8
	c0.4,0.5,0.9,0.9,1.6,1c0.5,0.1,1.1,0.1,1.6,0.1c0.7-0.1,1.4-0.4,1.9-0.9c0.5-0.5,0.6-1.2,0.7-1.9c0-3.3,0-6.5,0-9.8
	c2.1,0,4.1,0,6.2,0c0,3.6,0,7.1,0,10.7c0,1.2-0.2,2.4-0.8,3.4c-0.5,0.9-1.3,1.6-2.2,2.1c-1.3,0.7-2.7,1-4.1,1.2
	c-1.3,0.1-2.5,0.1-3.8,0c-1.4-0.1-2.9-0.4-4.2-1.1c-1-0.5-2-1.3-2.6-2.3c-0.6-1-0.9-2.2-0.9-3.3C67.7,41.6,67.7,38,67.7,34.4
	L67.7,34.4z"/>
</svg>
