<?xml version="1.0" encoding="utf-8"?>
<!-- Generator: Adobe Illustrator 22.1.0, SVG Export Plug-In . SVG Version: 6.00 Build 0)  -->
<svg version="1.1" id="Layer_1" xmlns="http://www.w3.org/2000/svg" xmlns:xlink="http://www.w3.org/1999/xlink" x="0px" y="0px"
	 viewBox="0 0 200 105" style="enable-background:new 0 0 200 105;" xml:space="preserve">
<style type="text/css">
	.st0{fill:#EB1478;}
</style>
<path class="st0" d="M0,0.2h104.6v60.2H98V6.8H6.6v91.4H98v-6.6h6.6v13.2H0V0.2z M29.6,88.4V63.7H23v24.7H29.6z M46.4,75.1
	l-6.7-11.4h-6.9v24.7h6.3V75.5l0.1,0l7.6,12.8h6.1V63.7h-6.3L46.4,75.1L46.4,75.1z M64.3,63.7c7.9,0,11.6,2.1,11.6,12.3
	c0,10.4-3.7,12.4-11.5,12.4h-8.3V63.7H64.3z M64.7,69.7h-2v13H65c2.5,0,4.2-0.4,4.2-6.6C69.2,69.8,67.5,69.7,64.7,69.7z M84.9,88.4
	V63.7h-6.6v24.7H84.9z M150.2,76c0,6.6-1.6,12.6-10.8,12.6c-9.2,0-10.8-6-10.8-12.6c0-6.6,1.6-12.7,10.8-12.7
	C148.6,63.4,150.2,69.4,150.2,76z M143.5,76.3c0-4-0.5-6.5-4.1-6.5c-3.6,0-4.1,2.5-4.1,6.5c0,4.1,0.5,6.6,4.1,6.6
	C143,82.8,143.5,80.3,143.5,76.3z M196.4,76c0,6.6-1.6,12.6-10.8,12.6c-9.2,0-10.8-6-10.8-12.6c0-6.6,1.6-12.7,10.8-12.7
	C194.8,63.4,196.4,69.4,196.4,76z M189.7,76.3c0-4-0.5-6.5-4.1-6.5c-3.6,0-4.1,2.5-4.1,6.5c0,4.1,0.5,6.6,4.1,6.6
	C189.2,82.8,189.7,80.3,189.7,76.3z M200,86.3c0,1.1-0.3,1.9-1.5,1.9c-1.2,0-1.5-0.8-1.5-1.9c0-1.1,0.3-1.9,1.5-1.9
	C199.7,84.5,200,85.3,200,86.3z M199.7,86.3c0-0.9-0.2-1.6-1.2-1.6c-1,0-1.2,0.7-1.2,1.6c0,0.9,0.2,1.6,1.2,1.6
	C199.5,87.9,199.7,87.2,199.7,86.3z M198.9,86.6l0.4,0.8h-0.5l-0.3-0.8h-0.3v0.8h-0.5v-2.2h0.9c0.6,0,0.7,0.3,0.7,0.7
	C199.3,86.3,199.2,86.5,198.9,86.6z M198.9,85.9c0-0.2-0.1-0.3-0.3-0.3h-0.4v0.7h0.4C198.8,86.3,198.9,86.2,198.9,85.9z M115.9,78.8
	h4.3v0.4c0,2.7,0.1,3.9-3.2,3.9c-3,0-4.1-1.4-4.1-7c0-5.8,1.7-6.5,4.3-6.5c1.9,0,3.3,0.5,4.4,1.1l3.5-5.5c-1.9-1.2-4.6-2-7.7-2
	c-8.5,0-11.3,4.1-11.3,12.7c0,7.5,2,12.6,10.1,12.6c1.4,0,2.7-0.1,3.7-0.3h6.1V78v-4.6h-9.6L115.9,78.8z M162.1,78.8h4.3v0.4
	c0,2.7,0.1,3.9-3.2,3.9c-3,0-4.1-1.4-4.1-7c0-5.8,1.7-6.5,4.3-6.5c1.9,0,3.3,0.5,4.4,1.1l3.5-5.5c-1.9-1.2-4.6-2-7.7-2
	c-8.5,0-11.3,4.1-11.3,12.7c0,7.5,2,12.6,10.1,12.6c1.4,0,2.7-0.1,3.7-0.3h6.1V78v-4.6h-9.6L162.1,78.8z M104.6,69.7v-6H88.2v24.7
	h16.4v-5.9h-9.9v-3.7h6.5l0.8-5.9h-7.3v-3.2H104.6z"/>
</svg>
