<?xml version="1.0" encoding="utf-8"?>
<!-- Generator: Adobe Illustrator 22.1.0, SVG Export Plug-In . SVG Version: 6.00 Build 0)  -->
<svg version="1.1" id="Layer_1" xmlns="http://www.w3.org/2000/svg" xmlns:xlink="http://www.w3.org/1999/xlink" x="0px" y="0px"
	 viewBox="0 0 200 21.5" style="enable-background:new 0 0 200 21.5;" xml:space="preserve">
<style type="text/css">
	.st0{fill:#004650;}
</style>
<path class="st0" d="M181.9,5.6c0-3.4,1.8-5.2,5.1-5.2h6.1c3.7,0,6.6,2.8,6.6,6.4c0,1.9-0.8,3.5-2.1,4.6l1.8,2.9
	c0.5,0.8,0.7,1.6,0.7,2.5c0,2.6-2,4.6-4.6,4.6c-1.6,0-3.1-0.8-4-2.3l-0.5-0.9c-0.6,1.8-2.2,3.1-4.3,3.1c-2.6,0-4.7-2.2-4.7-4.8V5.6
	L181.9,5.6z M180.5,17.3c0,2.2-1.8,4-4,4h-7.3c-3.3,0-5.1-1.8-5.1-5.2V5.6c0-3.4,1.8-5.2,5.1-5.2h7.3c2.2,0,4,1.8,4,4
	c0,2-1.2,3.5-3,3.9c0.8,0.5,1.3,1.4,1.3,2.6c0,1.2-0.5,2-1.3,2.6C179.2,13.8,180.5,15.3,180.5,17.3L180.5,17.3z M158.5,16.6
	c0,2.6-2.2,4.7-5,4.7c-2.7,0-4.9-2.1-4.9-4.7V9.4c-2.3-0.1-4.2-2.1-4.2-4.5c0-2.5,2-4.5,4.5-4.5h9.5c2.5,0,4.5,2,4.5,4.5
	c0,2.4-1.9,4.4-4.2,4.5V16.6L158.5,16.6z M125.9,5.6c0-3.4,1.8-5.2,5.1-5.2h6.1c3.7,0,6.6,2.8,6.6,6.4c0,1.9-0.8,3.5-2.1,4.6
	l1.8,2.9c0.5,0.8,0.7,1.6,0.7,2.5c0,2.6-2,4.6-4.6,4.6c-1.6,0-3.1-0.8-4-2.3l-0.5-0.9c-0.6,1.8-2.2,3.1-4.3,3.1
	c-2.6,0-4.7-2.2-4.7-4.8V5.6L125.9,5.6z M114.4,17.3c-1.2,2.5-2.9,3.6-4.9,3.6c-3.7,0-6.3-3.4-4.7-7.1l4.3-10
	c1.1-2.5,2.7-3.8,5.3-3.8c2.7,0,4.3,1.3,5.3,3.8l4.3,10c1.6,3.8-1,7.1-4.7,7.1C117.3,20.9,115.6,19.8,114.4,17.3L114.4,17.3z
	 M102.2,16.6c0,2.6-2.2,4.7-5,4.7c-2.7,0-4.9-2.1-4.9-4.7V9.4C89.9,9.2,88,7.3,88,4.9c0-2.5,2-4.5,4.5-4.5h9.4c2.5,0,4.5,2,4.5,4.5
	c0,2.4-1.9,4.4-4.3,4.5V16.6L102.2,16.6z M88,14.5c0,4.2-3.2,6.8-8.6,6.8c-5.5,0-8.1-1.9-8.1-5c0-2.1,1.6-3.5,4-3.5h0l-1.3-1.2
	c-1.6-1.4-2.6-2.9-2.6-5c0-4.1,3-6.7,8.1-6.7c5.2,0,7.7,1.8,7.7,5c0,1.8-1.3,3.1-3.1,3.4l1.3,1.2C87,11,88,12.4,88,14.5L88,14.5z
	 M70.3,16.3c0,2.6-2.1,4.7-4.8,4.7c-1.5,0-3-0.7-3.9-2l-1-1.4c-0.5,2-2.2,3.4-4.5,3.4c-2.6,0-4.7-2.1-4.7-4.6V4.7
	c0-2.6,2-4.6,4.7-4.6c2.3,0,4.1,1.5,4.5,3.5l1.1-1.5c0.9-1.2,2.4-2,3.9-2c2.5,0,4.7,2,4.7,4.5c0,1-0.3,1.9-0.9,2.7l-2.2,3.1l2.2,3.1
	C70,14.4,70.3,15.3,70.3,16.3L70.3,16.3z M49.7,15.2c0,3.4-2.8,5.7-7.3,5.7c-6,0-10.4-4.5-10.4-10.4c0-6,4.4-10.4,10.4-10.4
	c4.5,0,7.3,2.4,7.3,5.7c0,2.2-1.1,3.8-3.3,4.7C48.6,11.4,49.7,13,49.7,15.2L49.7,15.2z M25.2,0.1c2.8,0,5.1,2.3,5,5v10.9
	c0,2.7-2.2,5-5.1,5c-2.8,0-5-2.3-5-5V5.1C20.2,2.4,22.4,0.1,25.2,0.1L25.2,0.1z M18.8,16.3c0,2.6-2.1,4.7-4.8,4.7
	c-1.5,0-3-0.7-3.9-2l-1-1.4c-0.5,2-2.2,3.4-4.5,3.4c-2.6,0-4.7-2.1-4.7-4.6V4.7c0-2.6,2-4.6,4.7-4.6c2.3,0,4.1,1.5,4.5,3.5l1.1-1.5
	c0.9-1.2,2.4-2,3.9-2c2.5,0,4.7,2,4.7,4.5c0,1-0.3,1.9-0.9,2.7l-2.2,3.1l2.2,3.1C18.5,14.4,18.8,15.3,18.8,16.3L18.8,16.3z"/>
</svg>
