<svg xmlns="http://www.w3.org/2000/svg" viewBox="0 0 788.41 151.7"><defs><style>.cls-1{fill:#fff;}</style></defs><title>Asset 1</title><g id="Layer_2" data-name="Layer 2"><g id="Layer_1-2" data-name="Layer 1"><path class="cls-1" d="M106.91,43.52S77.77,66.25,76.25,87.3A8,8,0,0,1,76.19,89q0-.84.06-1.68c-.2-4.84-3.27-20-30.37-43.78C45.88,43.52,5,67.65,5,89.23c0,20.83,10.16,45.71,10.16,45.71s28.55-22.76,30.76-43.48A13.34,13.34,0,0,1,46.05,89a23,23,0,0,1-.13,2.48C46,97,48.25,111.75,66,134.94c0,0,19.34-23.38,20.44-44.15a13.19,13.19,0,0,1,0-1.81c0,.6,0,1.2,0,1.81.1,5.25,2.08,21.57,20.44,44.15,0,0,29-22.39,30.35-44.42a10.69,10.69,0,0,1,0-1.54c0,.51,0,1,0,1.54.15,5,2.92,21.57,30.35,44.42,0,0,20.59-23.61,20.59-46,0-17.65-43.28-31.23-81.29-45.46m0-5a5.06,5.06,0,0,1,1.75.32c4.32,1.62,8.79,3.26,13.12,4.84,38.32,14,71.41,26.17,71.41,45.3,0,24-20.93,48.23-21.82,49.25a5,5,0,0,1-7,.55c-14.74-12.28-22.79-23-27.14-31.38-8.85,17.11-26.34,30.76-27.3,31.5a5,5,0,0,1-6.93-.8c-8.4-10.32-13.56-19.47-16.72-27a123.06,123.06,0,0,1-16.44,27.05A5,5,0,0,1,66,139.94h-.09A5,5,0,0,1,62.06,138c-9-11.69-14.19-21.41-17.21-29.12-9.24,16-25.65,29.25-26.58,30a5,5,0,0,1-4.37.93,5,5,0,0,1-3.37-2.95C10.1,135.78,0,110.79,0,89.23,0,78.75,7.47,67.06,22.2,54.48A166.31,166.31,0,0,1,43.34,39.22a5,5,0,0,1,5.84.55c14.6,12.81,22.61,23.44,27,31.53,8.9-16.92,26.72-31,27.69-31.72a5,5,0,0,1,3.08-1.06Z"/><path class="cls-1" d="M519.25,124.68C514.11,135,499.83,142,486.13,142a36.19,36.19,0,0,1-16.94-4.37c-7.81-4.76-12.95-13.52-12.95-25.51V59h-9.71s-.76,0-.76-.95V41.88a.74.74,0,0,1,.76-.76h9.71V26.65a.93.93,0,0,1,.95-.95l36.55-15s.95.19.76.95c0,0,.19,13.33.19,29.51h23.23s.57,0,.57,1v16c0,.95-.76.95-.76.95h-23v42.64a58.11,58.11,0,0,0,.38,6.09c2.48,15.42,14.28,12,21.7,12C520.2,119.73,520.58,122.21,519.25,124.68ZM525.72,0h38.07a.74.74,0,0,1,.76,1s.19,84.52.19,97.65c0,30.27,13,23.8,11.23,28.94-2.09,6.09-13.89,13.51-24.55,13.51-15.42,0-26.65-11-26.65-28.93V1A.93.93,0,0,1,525.72,0ZM693.23,127.54c-1.9,6.09-12.18,13.51-22.84,13.51-13.13,0-23.41-8.18-25.89-21.7-6.47,12.37-16.75,21.51-30.07,21.51-24,0-37.31-26.46-37.31-52,0-26.08,13.32-51.59,38.26-51.59,13.13,0,22.46,7.42,28.36,18.08V42.26a1.19,1.19,0,0,1,1-1.14h38.07a1,1,0,0,1,.77,1s-1.34,43.4-1.34,56.53C682.19,128.87,695.14,122.4,693.23,127.54ZM644.88,88.9c0-14.28-5-25.89-14.27-25.89S616.33,74.62,616.33,88.9s4.95,25.69,14.28,25.69S644.88,103.17,644.88,88.9Zm143.53,21.31c0,23-27.41,31-49.11,31-16.94,0-44.73-5.9-44.73-24.74,0-9.33,7.42-17.33,18.46-17.33,6.28,0,13.52,1.72,14.28,3.24,1.14,1.71.38,4.19.38,7.8,0,7.62,4.76,11.62,11.23,11.62,7,0,10.09-3.43,10.28-8.57-.38-9.14-13.14-11.23-27.22-15.8-13-4.57-25.7-13.7-25.89-28.74v-.57c0-19.8,23.41-31,42.83-31,22.27,0,44.92,7.8,44.92,24.75.19,9.13-6.66,16.56-18.46,16.56-6.66,0-13-2.1-13.71-3.43-.95-1.52-.19-4-.19-7.81,0-7.61-3.23-11-9.7-10.85a9.27,9.27,0,0,0-8.95,9c0,9.33,11.23,11.8,24.36,15.61C772.42,85.28,788.41,92.89,788.41,110.21Zm-344.79,1.4c-2.13,8.14-18.22,31-46.52,31a52.36,52.36,0,0,1-37.8-15.9c-8.34,9.89-17.64,15.9-34.7,16.09-14.54.2-25.59-11.24-27.72-22.1-6.59,12.6-17.06,21.91-30.63,21.91-24.43,0-38-26.95-38-52.92,0-26.56,13.57-52.53,39-52.53,13.37,0,22.87,7.56,28.88,18.41V42.21a1.22,1.22,0,0,1,1-1.16h38.58a1,1,0,0,1,.77,1s-.38,43.62-.77,57.77c0,15.89,7.17,17.25,13.37,12a55.82,55.82,0,0,1-4.65-22.1c0-28.3,21.9-52.73,55.25-52.73,31.79,0,45.55,20,45.55,33.73,0,30.44-35.47,34.12-60.87,29.85,6.79,19.39,32.57,21.33,56.22,8.14a2.06,2.06,0,0,1,2.52-.19C443.82,109.09,444.2,109.87,443.62,111.61ZM297.27,89.71c0-14.54-5-26.37-14.54-26.37s-14.54,11.83-14.54,26.37,5,26.17,14.54,26.17S297.27,104.25,297.27,89.71Zm85.48-6.21c17.25,1.56,25.79-4.84,25.79-15.31a9.34,9.34,0,0,0-10.28-9.3.19.19,0,0,1-.19.19h-.59a12.51,12.51,0,0,0-4.65,1.74C386.44,64.7,383.53,74,382.75,83.5Zm-169,66.2V28.7a2.56,2.56,0,0,0-5,0v121a2.56,2.56,0,0,0,5,0Z"/></g></g></svg>