<?xml version="1.0" encoding="utf-8"?>
<!-- Generator: Adobe Illustrator 22.1.0, SVG Export Plug-In . SVG Version: 6.00 Build 0)  -->
<svg version="1.1" id="Layer_1" xmlns="http://www.w3.org/2000/svg" xmlns:xlink="http://www.w3.org/1999/xlink" x="0px" y="0px"
	 viewBox="0 0 216 180" style="enable-background:new 0 0 216 180;" xml:space="preserve">
<style type="text/css">
	.st0{fill:#EF3E42;}
	.st1{fill:#00539F;}
	.st2{fill:#FFFFFF;}
</style>
<path class="st0" d="M108,12.5C60.4,12.5,9,42.2,9,90c0,47.8,51.4,77.5,99,77.5c47.6,0,99-29.6,99-77.5
	C207,42.2,155.6,12.5,108,12.5"/>
<path class="st1" d="M13,90c0-46.1,50.2-73.5,95-73.5c44.8,0,95,27.4,95,73.5c0,46.1-50.2,73.5-95,73.5C63.2,163.5,13,136.1,13,90"
	/>
<path class="st2" d="M39.2,90c0-25.9,30.8-48.6,68.8-48.6c38,0,68.8,22.6,68.8,48.6c0,25.9-30.8,48.6-68.8,48.6
	C70,138.6,39.2,115.9,39.2,90"/>
<path class="st2" d="M54.5,129.1l0.7,0.5c1.3,0.9,0.8,2,0.6,2.4c-0.1,0.2-1,1.4-2.6,0.3l-0.7-0.5L54.5,129.1z M45.2,136.7l4.1,2.9
	c0.7,0.5,3.7,2.2,5.7-0.6c1.3-1.8,0.8-3.2-0.3-4.4l0,0c0.7,0.4,2.6,0.7,3.9-1.1c0.9-1.2,1.3-3.4-1.1-5l-4.2-3L45.2,136.7z
	 M51.2,133.7l1,0.7c0.9,0.6,1.1,1.5,0.4,2.5c-1,1.5-2.4,0.5-2.7,0.3l-0.7-0.5L51.2,133.7z M69.9,144.6l-2.9-1.2l3.8-4.7l0,0
	L69.9,144.6z M69.2,150.2l3.1,1.3l1.3-14.5l-3.3-1.4l-9.6,11l2.9,1.2l2.1-2.5l4,1.7L69.2,150.2z M91.1,144.8
	c-0.7-0.5-1.7-1.1-2.5-1.3c-1-0.2-1.9,0.1-2.1,1.1c-0.5,2.5,5.1,2.4,4.1,7.3c-0.5,2.6-2.9,3.7-5.6,3.1c-1.7-0.3-3-1-3.5-1.3l0.7-2.6
	c0.9,0.6,1.6,1.2,2.8,1.5c1,0.2,2.1-0.1,2.3-1.2c0.5-2.6-5.1-2.5-4.1-7.3c0.1-0.4,1-3.8,5.5-2.9c1.2,0.3,2,0.6,3.1,1.1L91.1,144.8z
	 M100.4,143.1l8,0.3l-0.1,2.4l-4.9-0.2l-0.1,3.1l4.6,0.2l-0.1,2.4l-4.6-0.2l-0.1,3.5l5.1,0.2l-0.1,2.4l-8.2-0.3L100.4,143.1z
	 M119.7,145l0.8-0.1c1.6-0.2,2,0.9,2.1,1.4c0,0.3,0.2,1.7-1.7,1.9l-0.8,0.1L119.7,145z M118,156.9l5-0.6c0.8-0.1,4.2-0.9,3.8-4.3
	c-0.3-2.2-1.6-2.9-3.2-3l0,0c0.8-0.2,2.4-1.3,2.1-3.5c-0.2-1.5-1.3-3.3-4.2-3l-5.1,0.6L118,156.9z M120.4,150.6l1.2-0.2
	c1.1-0.1,1.8,0.4,2,1.6c0.2,1.8-1.4,2-1.8,2l-0.9,0.1L120.4,150.6z M141.6,146.4l-3,1l-0.2-6l0,0L141.6,146.4z M144.7,151.1l3.2-1
	l-8.5-11.9l-3.4,1.1l-0.1,14.6l3-1l0-3.2l4.1-1.3L144.7,151.1z M149.8,133.9l2.8-1.6l5.6,9.9l4-2.2l1.2,2.2l-6.9,3.8L149.8,133.9z
	 M162.4,126l2.4-2.2l7.5,8.5l3.4-3l1.7,1.9l-5.9,5.2L162.4,126z M191.9,142.1l0.7,0c0.5,0,1,0.1,1,0.6c0,0.6-0.4,0.7-0.9,0.7l-0.8,0
	L191.9,142.1z M190.9,146.4l1.1,0l0-2.2l0.5,0l1.2,2.2l1.2,0l-1.4-2.3c0.7-0.1,1.2-0.5,1.2-1.4c0-1.2-0.8-1.6-2-1.5l-1.9,0
	L190.9,146.4z M189.2,143.9c0-2.2,1.5-3.7,3.4-3.8c1.9,0,3.5,1.5,3.5,3.7c0,2.2-1.5,3.8-3.4,3.8
	C190.8,147.6,189.3,146.1,189.2,143.9 M187.8,143.9c0,2.7,2.3,4.9,5,4.8c2.7,0,4.9-2.3,4.8-5c0-2.7-2.3-4.9-5-4.8
	C190,139,187.8,141.2,187.8,143.9"/>
<path class="st0" d="M96.2,93.5c-1-2.3,0.2-7.6,0-8.6c-0.3-1.7-0.8-4.9-0.8-4.9c-0.9-0.5-1.9-1.5-2.7-2.9l-9.5,4.2
	c0,0-0.7,0.4-1.5,0.5l-0.8,0.4c0,0-3,1.8-4.2-1.2c-1.2-3,1.8-3.7,1.8-3.7l12.3-4.8c-0.1-0.2-0.1-0.5-0.2-0.7c-1-4.4,2-6.2,2.3-7.6
	c0.3-1.3,0.3-0.8-1.3-1c-0.8-0.1-1.2-1.8-2.5-1.3c0,0-4.4-5-4.4-7.9c0-2,1.6-4.9,4.8-6.5c-26,5.3-45.2,21.4-46.3,40.7
	c0.5,1.4,1.3,3.2,2.8,5l0.6-2.5c0.2-0.7,0.9-1.1,1.6-1c0.7,0.2,1.1,0.9,1,1.6l-1.1,4.1c0.8,0.8,1.8,1.5,2.8,2.2l0-2.5
	c0-0.7,0.6-1.3,1.3-1.3c0.7,0,1.3,0.6,1.3,1.3l0,4.1c1.2,0.7,2.5,1.3,4,1.9l-0.3-2.4c-0.1-0.7,0.4-1.4,1.1-1.5
	c0.7-0.1,1.4,0.4,1.5,1.2l0.5,3.8c1.4,0.5,2.8,0.9,4.4,1.3l-0.7-2.6c-0.2-0.7,0.3-1.4,1-1.6c0.7-0.2,1.4,0.3,1.6,1l1,4
	c0.9,0.2,1.9,0.4,2.9,0.6c0.6,0.1,1.2,0.2,1.7,0.3l-0.6-2.8c-0.2-0.7,0.3-1.4,1-1.6c0.7-0.2,1.4,0.3,1.6,1l0.9,3.9
	c1.6,0.3,3.2,0.7,4.7,1l-0.4-2.7c-0.1-0.7,0.4-1.4,1.1-1.5c0.7-0.1,1.4,0.4,1.5,1.1l0.6,3.9c2.8,0.7,5.4,1.5,7.8,2.3
	c1.9-0.8,4.1-1.8,4.1-1.8c0-3.7,1.5-6.7,2.4-9.4C97,98.9,97.2,95.9,96.2,93.5 M79.3,113.6c-0.5,0.5-1.4,0.5-1.9,0
	c-0.5-0.5-0.5-1.4,0-1.9l2.1-2.1c-1.4-0.3-2.9-0.7-4.4-1l-3,3.3c-0.5,0.5-1.3,0.6-1.9,0.1c-0.5-0.5-0.6-1.3-0.1-1.9l1.9-2.1
	c-0.6-0.1-1.2-0.2-1.9-0.3c-0.9-0.2-1.8-0.3-2.6-0.5l-2.8,3.3c-0.5,0.6-1.3,0.6-1.9,0.2c-0.6-0.5-0.6-1.3-0.1-1.9l1.9-2.2
	c-1.6-0.4-3.1-0.8-4.5-1.3l-3.4,3.1c-0.5,0.5-1.4,0.5-1.9-0.1c-0.5-0.5-0.5-1.4,0.1-1.9l2.4-2.2c-1.7-0.7-3.2-1.4-4.6-2.1l-3.5,2.5
	c-0.6,0.4-1.4,0.3-1.9-0.3c-0.4-0.6-0.3-1.4,0.3-1.9l2.5-1.8c-1.4-0.9-2.6-1.8-3.7-2.8l-2.2,0.8c3.5,12,14,22.2,28.5,28.6
	c-0.1-1.4-0.1-2.7-0.3-3.3c-0.3-1.7-0.8-4.7,0.2-7.7c0.2-0.7,1.3-0.9,2.3-0.9v0c0.5-1.5,4.5-0.7,4.5-0.7s1.1,0.1,2.2,0
	c0.1-0.1,0.2-0.2,0.3-0.3c1.1-1.2,2.9-2.1,4.4-2.7c-1.3-0.4-2.6-0.8-4.1-1.2L79.3,113.6z"/>
<path class="st1" d="M92.7,77.2c0.8,1.4,1.8,2.4,2.7,2.9c0,0,0.5,3.2,0.8,4.9c0.2,0.9-1,6.2,0,8.6c1,2.4,0.8,5.4,0.8,5.4
	c-0.8,2.7-2.3,5.7-2.4,9.4c0,0-2.2,0.9-4.1,1.8c0,0,0,0,0.1,0c0.4-0.1,0.7-0.2,0.8-0.3c2-0.8,5.5-2.3,5.5-2.3c0-3.7,1.5-6.7,2.3-9.4
	c0,0,0.2-3-0.8-5.4c-1-2.3,0.2-7.6,0-8.6c-0.3-1.7-0.8-4.9-0.8-4.9c-1-0.5-1.9-1.5-2.8-3L92.7,77.2z M133.2,49.2
	c0.1,0.6-0.2,1.3-0.9,1.5l-2.7,1c1,1.1,2,2.4,3,3.8l4.5-0.6c0.7-0.1,1.4,0.4,1.5,1.1c0.1,0.7-0.4,1.4-1.1,1.5l-3.2,0.4
	c0.8,1.3,1.6,2.7,2.4,4.2l4.4,0c0.7,0,1.3,0.6,1.3,1.3c0,0.7-0.6,1.3-1.3,1.3l-3.1,0c0.7,1.4,1.3,2.8,1.9,4.3l4.4,0.5
	c0.7,0.1,1.3,0.7,1.2,1.5c-0.1,0.7-0.7,1.3-1.5,1.2l-3-0.3c0.2,0.6,0.5,1.2,0.7,1.8c0.3,0.8,0.6,1.6,1,2.4l4.6,0.4
	c0.7,0.1,1.3,0.7,1.2,1.4c-0.1,0.7-0.7,1.3-1.5,1.2l-2.9-0.3c0.7,1.3,1.4,2.5,2.2,3.6L151,82c0.7-0.1,1.4,0.4,1.5,1.2
	c0.1,0.7-0.4,1.4-1.2,1.5l-3,0.3c1,1.1,1.9,2.1,3,3l4.3-1.6c0.7-0.3,1.5,0.1,1.7,0.8c0.3,0.7-0.1,1.5-0.8,1.7l-2.8,1
	c1.2,0.8,2.3,1.4,3.5,2l3.9-2.7c0.6-0.4,1.4-0.3,1.9,0.3c0.4,0.6,0.3,1.4-0.3,1.9l-2.4,1.7c1.4,0.4,2.7,0.8,3.9,1l3-3.5
	c0.5-0.6,1.3-0.6,1.9-0.2c0.6,0.5,0.6,1.3,0.2,1.9l-1.8,2.2c2.2,0.1,4,0,5.2-0.2c0.2-1.4,0.3-2.8,0.3-4.3
	C172.8,71.7,156.5,56,133.2,49.2 M152.1,72.6c-2.1,0-3.7-1.7-3.7-3.7c0-2.1,1.7-3.7,3.7-3.7c2.1,0,3.7,1.7,3.7,3.7
	C155.8,70.9,154.1,72.6,152.1,72.6 M82,114.6c0.9-0.1,2-0.4,2.6-1.1c0.6-0.7,1.5-1.3,2.3-1.8c-0.1,0-0.2-0.1-0.3-0.1
	c-1.5,0.6-3.2,1.5-4.4,2.7C82.2,114.4,82.1,114.5,82,114.6 M130.6,48.5c-1.9-0.5-3.8-0.9-5.8-1.3c0.9,0.7,1.9,1.4,2.8,2.3
	L130.6,48.5z M75.2,115.3c-1,0-2.1,0.2-2.3,0.9c-1,3-0.5,6-0.2,7.7c0.1,0.6,0.1,1.9,0.3,3.3c0.8,0.4,1.7,0.7,2.6,1.1
	c-0.4-2.1-0.3-4.4-0.5-5.3C74.7,121.3,74.2,118.3,75.2,115.3 M139,127c-1.2,0-3.2,1.3-5.9,0.5c-2.7-0.8-2-5.4-2-6.4c0-1-1-1.2-2-2.5
	c-0.5-0.7,0.5-2.2-1-3.2c-1.5-1-1.7-2.7-2-3.4c-0.3-0.7-1.8-0.5-2.9-1.8c-1-1.3-1.7-4.7-1.7-4.7c-4.3-3-7.5-6.9-10.1-7.2
	c0,0-4.2,13.3-8.4,17.5c-0.1,0.1-0.2,0.1-0.2,0.2c0.6,0.4,1.1,0.8,1.6,1.2l1.2-2.8c0.3-0.7,1.1-1,1.7-0.7c0.7,0.3,1,1.1,0.7,1.8
	l-1.6,3.6c1.1,1.1,2.1,2.3,2.9,3.6l2-2c0.5-0.5,1.4-0.5,1.9,0c0.5,0.5,0.5,1.4,0,1.9l-2.6,2.6c0.6,1.4,1.1,2.9,1.4,4.5l2.1-1.4
	c0.6-0.4,1.4-0.2,1.8,0.4c0.4,0.6,0.3,1.4-0.4,1.9l-3.2,2.1c0,0.5,0.1,1,0.1,1.6c11.2-0.5,21.6-3,30.5-6.9
	C141.2,127.2,139.4,127,139,127 M81.7,81.9c-0.9,0.1-2.1-0.1-2.7-1.7c-1.2-3,1.8-3.7,1.8-3.7l12.3-4.8C93.1,71.4,93,71.2,93,71
	c-1-4.4,2-6.2,2.4-7.6c0.3-1.3,0.3-0.8-1.3-1c-0.8-0.1-1.2-1.8-2.5-1.3c0,0-4.4-5-4.4-7.9c0-1.7,1.2-4.2,3.6-5.8
	c-0.4,0.1-0.8,0.1-1.2,0.2c-3.2,1.6-4.8,4.5-4.8,6.5c0,2.9,4.4,7.9,4.4,7.9c1.3-0.4,1.7,1.3,2.5,1.3c1.6,0.2,1.7-0.3,1.3,1
	c-0.3,1.3-3.4,3.2-2.3,7.6c0.1,0.2,0.1,0.5,0.2,0.7l-12.3,4.8c0,0-3,0.7-1.8,3.7c1.2,3,4.2,1.2,4.2,1.2L81.7,81.9z M167,97.1
	l0.8,2.9c0.2,0.7-0.2,1.4-1,1.6c-0.7,0.2-1.4-0.2-1.6-0.9l-1-3.9c-1.5-0.2-3.2-0.6-4.9-1.2l0,2.9c0,0.7-0.6,1.3-1.3,1.3
	c-0.7,0-1.3-0.6-1.3-1.4l0-3.9c-1.5-0.6-2.9-1.4-4.4-2.4l-0.7,2.7c-0.2,0.7-0.9,1.1-1.6,0.9c-0.7-0.2-1.1-0.9-0.9-1.6l1-3.8
	c-1.2-1-2.4-2.2-3.6-3.5l-1.3,2.4c-0.4,0.6-1.2,0.9-1.8,0.5c-0.6-0.4-0.9-1.2-0.5-1.8l1.9-3.3c-0.9-1.3-1.8-2.7-2.7-4.3l-1.8,2.1
	c-0.5,0.6-1.3,0.6-1.9,0.1c-0.6-0.5-0.6-1.3-0.1-1.9l2.5-3c-0.4-1-0.9-1.9-1.3-3c-0.2-0.5-0.4-0.9-0.5-1.4l-1.8,2
	c-0.5,0.6-1.3,0.6-1.9,0.1c-0.6-0.5-0.6-1.3-0.1-1.9l2.6-3c-0.6-1.4-1.2-2.8-1.8-4.1l-1.5,2.1c-0.4,0.6-1.3,0.7-1.9,0.3
	c-0.6-0.4-0.7-1.3-0.3-1.9l2.3-3.3c-0.7-1.3-1.4-2.6-2.1-3.7l-1.1,2.1c-0.3,0.6-1.1,0.9-1.8,0.6c-0.7-0.3-0.9-1.1-0.6-1.8l1.8-3.5
	c-0.9-1.3-1.8-2.5-2.7-3.5l-0.7,2.6c-0.2,0.7-0.9,1.1-1.6,0.9c-0.7-0.2-1.1-0.9-0.9-1.6l1.2-4.1c-1-1-2.1-1.8-3.1-2.5l-0.2,2.6
	c-0.1,0.7-0.7,1.3-1.4,1.2c-0.7-0.1-1.3-0.7-1.2-1.4l0.3-3.9c-1.2-0.6-2.4-1.1-3.6-1.5c-2.8-0.3-5.7-0.4-8.6-0.4
	c-3.1,0-6.2,0.2-9.2,0.5c1.6,1,2.4,2.8,2.4,2.8s3.9-0.9,4.4-0.3c0.6,0.7-1.9,4.4-1.9,4.4s0.6,1.8,0.7,2.4c0.1,0.8,1.2,0.8,1,2.5
	c-0.1,1.2-0.5,2.5,0.8,2c1.3-0.5,2.5,1.3,3.9,0.8c1.3-0.5,8.9,0,9.7-0.2s2.5-0.8,4.4-1.5c1.8-0.7,2.9,0.7,3.4,2.5
	c0.5,1.8-3.5,3.2-4.2,3.5c-0.7,0.3-0.2,1-1,1.8c-0.8,0.8-2-0.5-3.2,5.2c-1.2,5.7-4.2,4.7-3.9,6.7c0.3,2,1.7,5.4,2,6.5
	c0.3,1.2-0.2,2.3,0.8,2.9c2.7,1.3,6,5.7,9.2,8.7c1.7,1.6,2.9,3,3.4,6.2c0.5,3.2,5.2,6.6,5.9,8.1c3.5,7.4,1.6,8,1.6,8s0,0.8,0.3,1.6
	c2.5,0,3.3,1.6,4.8,2.1c1.5,0.5,4.9-0.7,5.3,1.4c12.2-6.7,20.8-16.4,23.3-27.4C170.7,97.1,168.9,97.2,167,97.1 M105.7,131.9
	c-0.7-0.3-1-1-0.8-1.7c0.3-0.7,1-1,1.7-0.8l2.9,1.1c-0.3-1.3-0.6-2.5-1.1-3.7l-4.7-0.8c-0.7-0.1-1.2-0.8-1.1-1.5
	c0.1-0.7,0.8-1.2,1.5-1.1l2.7,0.4c-0.6-0.9-1.3-1.8-2.1-2.6l-4.3,0.9c-0.7,0.2-1.4-0.3-1.6-1c-0.2-0.7,0.3-1.4,1-1.6l2.4-0.5
	c-0.7-0.6-1.5-1.1-2.3-1.6c-2,0.5-4.3,0.6-5.8,1.2c-2.3,1-5.9,3.2-6.7,2.9c-0.8-0.3-3.5-1-4,0.8c-0.5,1.8-2.2,2.5-2.2,2.5
	s-0.5,3-1.3,5c8.5,2.8,18,4.4,28.1,4.4c0.7,0,1.3,0,2,0c0-0.2,0-0.5,0-0.7L105.7,131.9z"/>
<path class="st2" d="M29.5,58.4l2-2.6l9.1,6.9l2.8-3.7l2,1.5l-4.8,6.3L29.5,58.4z M38.7,47.6l2.4-2.2l9.5,10.2l-2.4,2.2L38.7,47.6z
	 M49.6,41.9l-2.5,1.7l-1.4-2.1l7.7-5.2l1.4,2.1L52.3,40l6.4,9.4L56,51.3L49.6,41.9z M61.7,34.8L59,36l-1.1-2.3l8.4-4l1.1,2.3
	l-2.7,1.3l4.8,10.3l-3,1.4L61.7,34.8z M71.9,27.8l3.1-1l3.4,10.9l4.4-1.4l0.7,2.4L76,41.1L71.9,27.8z M85.1,24.1l7.9-1.3l0.4,2.4
	L88.6,26l0.5,3.1l4.6-0.8l0.4,2.4l-4.6,0.8l0.6,3.5l5.1-0.9l0.4,2.4l-8.2,1.4L85.1,24.1z M108.2,21.8l3.3,0.1l-0.4,11.4l4.6,0.2
	l-0.1,2.5l-7.9-0.3L108.2,21.8z M121.8,22.7l7.9,1.3l-0.4,2.4l-4.8-0.8l-0.5,3.1l4.6,0.7l-0.4,2.4l-4.6-0.7l-0.6,3.5l5.1,0.8
	l-0.4,2.4l-8.2-1.3L121.8,22.7z M140.1,35.5l-3-0.9l3.3-5l0,0L140.1,35.5z M139.8,41.1l3.2,1L143,27.5l-3.4-1.1l-8.6,11.9l3,0.9
	l1.9-2.7l4.2,1.3L139.8,41.1z M154.6,38.9l4.4,2.2l-3.4,6.6c-0.8,0-2.4-0.4-4.4-1.5c-2.3-1.2-5.3-4.2-2.6-9.5c1.6-3,5-5.5,9.7-3
	c1.5,0.8,2.4,1.6,3,2.2l-1.4,2.3c-0.5-0.6-1.2-1.5-2.5-2.2c-3.1-1.6-5.1,0.9-5.8,2.3c-1.2,2.3-1.1,4.7,1.2,5.8
	c0.4,0.2,0.8,0.3,1.1,0.3l1.4-2.8l-1.6-0.8L154.6,38.9z M167.8,39.8l2.5,2.1l-5.9,7.3c-0.9,1.1-1,2.1,0,2.9c1,0.8,2,0.5,2.8-0.6
	l5.9-7.3l2.5,2.1l-5.6,6.9c-2.2,2.7-4.9,2.9-7.3,0.9c-2.4-2-2.8-4.6-0.7-7.3L167.8,39.8z M181,51.7l5,6.3l-1.9,1.5l-3-3.8l-2.4,1.9
	l2.9,3.6l-1.9,1.5l-2.9-3.6l-2.8,2.2l3.2,4l-1.9,1.5l-5.1-6.5L181,51.7z"/>
</svg>
