<?xml version="1.0" encoding="utf-8"?>
<!-- Generator: Adobe Illustrator 22.1.0, SVG Export Plug-In . SVG Version: 6.00 Build 0)  -->
<svg version="1.1" id="Layer_1" xmlns="http://www.w3.org/2000/svg" xmlns:xlink="http://www.w3.org/1999/xlink" x="0px" y="0px"
	 viewBox="0 0 340 115.6" style="enable-background:new 0 0 340 115.6;" xml:space="preserve">
<style type="text/css">
	.st0{fill:#C0C4DA;}
	.st1{fill:none;stroke:#C0C4DA;stroke-miterlimit:10;}
	.st2{fill:#FFFFFF;enable-background:new    ;}
</style>
<path id="Path_1257" class="st0" d="M79.2,88.9c1.6-0.6,3.1-1.3,4.5-2.2c7.4-4.6,27.7-11.2,45.1-7.3c14.4,4.6,28,9.7,41.6,17
	c8.4,4.5,17.2,8,26.4,10.5c6.5,1.7,19.8,6.8,26.6,5.5c-8.5-0.8-16.3-4-23.4-7.2c8.2,2.1,16.6,4.5,25.7,5.8c9,1.4,19.2,0.8,27.5-2.8
	c-16.6,6.5-34.4,1.4-48.1-4c-14.1-5.4-27.5-12.5-39.9-21c15.2,6.9,32.6,14.8,50.8,21c9.1,2.8,19.1,5,28.7,3.3
	c8.9-1.7,17.1-6,23.5-12.4c1.8-1.8,3.5-3.7,4.9-5.8c-5.4,7-12.6,12.3-20.9,15.5c-8.8,3.4-19,3-28.1,0.4c-18.3-5.2-35.5-14-51-20.9
	c-14.5-6.4-27.9-13.8-46-16.6c-4.8-0.8-9.7-1.1-14.5-0.9c-9.8,0.4-19.4,2.4-28.5,6.1c-8,2.9-21.3,10-21,16.6c2.4-1.1,4.5-3,6.9-3.8
	c-0.6,1-1.3,1.9-2.1,2.8c1-0.4,1.9-0.9,2.8-1.6c-0.6,0.5-1,1.2-1.2,2c1.2-0.4,2.4-2,3.2-2.7c0.4-0.4,2.3-2.8,3.1-2.9
	c-1.4,1.8-3.2,3.8-4,5.7c0.6-0.3,1.2-0.6,1.8-0.8c-0.5,0.8-1.8,1.7-1.9,2.5c1.3-0.9,2.7-1.8,4.2-2.5c1.3-0.5,2.5-1.1,3.6-1.8
	c-1.3,1.1-3.1,2.3-3.6,3.7c0.7-0.2,1.4-0.5,2-1v0.3c0.3-0.2,0.8-0.2,1.1-0.4c0.1,0.2,0.2,0.2,0.2,0.4l-0.1-0.3"/>
<path class="st1" d="M166.4,89.4L166.4,89.4 M165.3,86.7L165.3,86.7 M174.2,86.1c14.9,6,30.1,11.1,45.6,15.4
	c12.3,3.4,26.5,3.5,36.8-2.7c10.3-5.6,17.5-13.7,20.6-20.3 M211,103.7c6.6,2.3,13.4,3.8,20.4,4.5c12.7,1.7,28.7-4.9,37.3-15.6"/>
<path class="st2" d="M19.5,16.6c0,0.1-0.1,0.1-0.2,0.1s-0.2,0-0.3-0.1c-0.6-3-2.5-4.6-5.6-4.6h-1.6c-1,0-1.6,0.2-2,0.5
	s-0.6,0.9-0.6,1.7V23h3.3c3,0,4.5-1,4.5-3c0-0.1,0.1-0.1,0.2-0.1s0.2,0,0.2,0.1v3.5c0,0.8,0,1.4,0,1.8v2.1c0,0.1-0.1,0.1-0.2,0.1
	s-0.2,0-0.2-0.1c0-2.3-1.5-3.4-4.6-3.4H9.2v8.6c0,0.9,0.1,1.5,0.3,1.9s0.6,0.7,1.3,0.8c0.6,0.2,1.6,0.2,2.9,0.2
	c0.1,0,0.1,0.1,0.1,0.2s0,0.2-0.1,0.2c-1.1,0-1.9,0-2.6,0H7.2H4.3c-0.5,0-1.2,0-2.1,0c-0.1,0-0.1-0.1-0.1-0.2s0-0.2,0.1-0.2
	c1,0,1.7-0.1,2.1-0.2s0.7-0.4,0.9-0.8s0.2-1,0.2-1.8V14.2c0-0.8-0.1-1.4-0.2-1.8c-0.1-0.4-0.4-0.6-0.9-0.8c-0.4-0.1-1.1-0.2-2-0.2
	c-0.1,0-0.1-0.1-0.1-0.2s0-0.2,0.1-0.2H19c0.3,0,0.4,0.1,0.4,0.4L19.5,16.6z M37.3,33.8c0.1,0,0.2,0.1,0.2,0.2c0,0.1,0,0.2-0.1,0.3
	l-4.1,2c-0.1,0.1-0.2,0.1-0.4,0.1c-0.4,0-0.8-0.2-1.1-0.7c-0.4-0.5-0.6-1.1-0.7-1.9L29.2,35c-0.6,0.5-1.2,0.8-1.7,1
	s-1.1,0.3-1.7,0.3c-1.1,0-1.9-0.3-2.5-0.8s-0.9-1.2-0.9-2.1c0-0.7,0.2-1.3,0.6-1.8s0.9-0.8,1.5-1.1s1.5-0.6,2.7-1.1l3.9-1.4v-2.4
	c0-1.7-0.2-2.9-0.5-3.6c-0.3-0.8-0.9-1.1-1.6-1.1c-0.9,0-1.5,0.3-1.9,1s-0.6,1.4-0.7,2.2c-0.2,1.4-0.8,2-2,2c-0.6,0-1-0.1-1.3-0.4
	s-0.4-0.6-0.4-1c0-0.7,0.4-1.5,1.3-2.2s2-1.3,3.2-1.7c1.3-0.4,2.4-0.7,3.3-0.7c1.1,0,2.1,0.4,2.7,1.1c0.7,0.7,1,1.8,1,3.2v7.2
	c0,0.8,0.1,1.5,0.4,1.9c0.3,0.4,0.7,0.6,1.2,0.6C36.2,34.2,36.7,34.1,37.3,33.8L37.3,33.8z M31,33.1v-0.4v-4l-2.4,1
	c-0.7,0.3-1.3,0.6-1.7,0.9c-0.4,0.4-0.7,0.9-0.7,1.5c0,0.6,0.2,1.2,0.6,1.5s0.9,0.6,1.5,0.6c0.5,0,1-0.2,1.5-0.5L31,33.1z
	 M67.7,35.8c0,0.2-0.1,0.2-0.2,0.2c-0.7,0-1.2,0-1.6,0h-2.3h-2.3c-0.4,0-0.9,0-1.6,0c-0.1,0-0.1-0.1-0.1-0.2s0-0.2,0.1-0.2
	c0.9,0,1.5-0.2,1.8-0.6c0.3-0.4,0.5-1.1,0.5-2.2v-6c0-1.5-0.3-2.6-0.8-3.3c-0.5-0.7-1.3-1.1-2.4-1.1c-0.7,0-1.4,0.2-2.2,0.5
	c-0.7,0.3-1.3,0.8-1.9,1.4v0.4v8c0,1.1,0.2,1.8,0.5,2.2s0.9,0.6,1.8,0.6c0.1,0,0.1,0.1,0.1,0.2s0,0.2-0.1,0.2c-0.7,0-1.2,0-1.6,0
	h-2.3h-2.3c-0.4,0-0.9,0-1.6,0c-0.1,0-0.1-0.1-0.1-0.2s0-0.2,0.1-0.2c0.9,0,1.5-0.2,1.8-0.6c0.3-0.4,0.5-1.1,0.5-2.2v-6
	c0-1.5-0.3-2.6-0.8-3.3c-0.5-0.7-1.3-1.1-2.4-1.1c-0.7,0-1.3,0.2-2,0.5s-1.3,0.7-1.8,1.3v8.6c0,1.1,0.1,1.8,0.4,2.2
	c0.3,0.4,0.9,0.6,1.8,0.6c0.1,0,0.1,0.1,0.1,0.2s0,0.2-0.1,0.2c-0.7,0-1.2,0-1.6,0h-2.3h-2.3c-0.4,0-0.9,0-1.6,0
	c-0.1,0-0.1-0.1-0.1-0.2s0-0.2,0.1-0.2c0.9,0,1.5-0.2,1.8-0.6c0.3-0.4,0.4-1.1,0.4-2.2v-7.6c0-0.9-0.1-1.5-0.3-1.9s-0.5-0.6-1-0.6
	c-0.4,0-1.1,0.2-2,0.6l0,0c-0.1,0-0.2-0.1-0.2-0.2c-0.1-0.1,0-0.2,0-0.2l5.2-2.6c0.2-0.1,0.3-0.1,0.3-0.1c0.3,0,0.5,0.3,0.8,0.9
	s0.4,1.4,0.5,2.3c1.8-2.2,3.7-3.3,5.8-3.3c1.2,0,2.2,0.3,3,0.9c0.7,0.6,1.2,1.5,1.4,2.6c1.9-2.3,3.9-3.5,6.1-3.5
	c1.4,0,2.5,0.4,3.3,1.2c0.8,0.8,1.1,2,1.1,3.7v7.7c0,1.1,0.2,1.8,0.5,2.2s0.9,0.6,1.8,0.6C67.6,35.5,67.7,35.6,67.7,35.8z
	 M69.9,35.8c0-0.2,0-0.2,0.1-0.2c0.9,0,1.5-0.2,1.8-0.6c0.3-0.4,0.4-1.1,0.4-2.2v-7.3c0-0.9-0.1-1.6-0.3-2c-0.2-0.4-0.5-0.6-1-0.6
	c-0.4,0-0.9,0.2-1.6,0.5l0,0c-0.1,0-0.2-0.1-0.2-0.2c-0.1-0.1,0-0.2,0-0.3l5.8-2.7H75c0.1,0,0.2,0.1,0.3,0.2
	c0.1,0.1,0.2,0.2,0.2,0.3v0.8c-0.1,1.1-0.1,2.4-0.1,4v7.3c0,1.1,0.2,1.8,0.5,2.2s0.9,0.6,1.8,0.6c0.1,0,0.1,0.1,0.1,0.2
	s0,0.2-0.1,0.2c-0.7,0-1.2,0-1.6,0h-2.3h-2.3c-0.4,0-0.9,0-1.6,0C69.9,36,69.9,35.9,69.9,35.8z M72.1,15.4c-0.4-0.4-0.6-0.9-0.6-1.6
	c0-0.7,0.2-1.2,0.6-1.5c0.4-0.4,0.9-0.5,1.6-0.5s1.2,0.2,1.6,0.5c0.4,0.4,0.6,0.9,0.6,1.5c0,0.7-0.2,1.2-0.5,1.6s-1,0.6-1.7,0.6
	C73,16,72.5,15.8,72.1,15.4z M80.3,35.8c0-0.2,0-0.2,0.1-0.2c0.9,0,1.5-0.2,1.8-0.6c0.3-0.4,0.5-1.1,0.5-2.2V12.3
	c0-0.9-0.1-1.6-0.3-2c-0.2-0.4-0.5-0.6-0.9-0.6s-0.9,0.2-1.6,0.5l0,0c-0.1,0-0.2-0.1-0.2-0.2c-0.1-0.1-0.1-0.2,0-0.3L85.2,7h0.2
	c0.1,0,0.2,0.1,0.4,0.2C85.9,7.3,86,7.4,86,7.4v25.3c0,1.1,0.1,1.8,0.4,2.2s0.9,0.6,1.8,0.6c0.1,0,0.1,0.1,0.1,0.2s0,0.2-0.1,0.2
	c-0.6,0-1.2,0-1.6,0h-2.4L82,36c-0.4,0-0.9,0-1.6,0C80.3,36,80.3,35.9,80.3,35.8z M107.1,20.8c0,0.2,0,0.2-0.1,0.2
	c-0.8,0-1.5,0.3-2.1,1c-0.6,0.6-1.1,1.6-1.6,2.9l-4.6,12.2c-1,2.6-1.9,4.6-2.8,6c-0.9,1.5-1.8,2.5-2.7,3.1c-0.9,0.6-1.9,0.9-3,0.9
	c-0.7,0-1.3-0.2-1.7-0.5C88.2,46.5,88,46,88,45.4c0-0.5,0.2-0.9,0.5-1.2s0.7-0.4,1.2-0.4c0.3,0,0.6,0,0.8,0.1
	c0.2,0.1,0.5,0.2,0.7,0.4c0.3,0.2,0.5,0.3,0.7,0.4c0.2,0.1,0.4,0.1,0.7,0.1c0.6,0,1.2-0.2,1.7-0.7s1.1-1.3,1.6-2.5
	c0.6-1.1,1.3-2.8,2.1-4.9l-6.3-12.8c-0.6-1.1-1-1.9-1.4-2.3C90,21.2,89.6,21,89.1,21c0,0-0.1,0-0.1-0.2s0-0.2,0.1-0.2
	c0.7,0,1.2,0,1.6,0h1.6H95c0.4,0,0.9,0,1.6,0c0.1,0,0.1,0.1,0.1,0.2s0,0.2-0.1,0.2c-0.7,0-1.2,0.1-1.6,0.2c-0.3,0.1-0.5,0.3-0.5,0.7
	c0,0.2,0.1,0.5,0.2,0.7l4.9,10.1l2.7-7.8c0.2-0.7,0.4-1.3,0.4-1.8c0-1.4-0.9-2.1-2.7-2.1c-0.1,0-0.1-0.1-0.1-0.2s0-0.2,0.1-0.2
	c0.7,0,1.3,0,1.6,0h2.4h1.6c0.3,0,0.8,0,1.4,0C107.1,20.6,107.1,20.6,107.1,20.8z M124.2,32.6c0,0.7,0.1,1.2,0.2,1.6
	c0.1,0.3,0.4,0.5,0.7,0.6c0.3,0.1,0.9,0.2,1.7,0.2h2.4c1.9,0,3.5-0.5,4.8-1.6s2.2-2.5,2.6-4.3c0-0.1,0.1-0.1,0.2-0.1
	c0.1,0,0.2,0.1,0.2,0.1c-0.2,2.5-0.4,4.6-0.4,6.2c0,0.2,0,0.4-0.1,0.5s-0.2,0.1-0.5,0.1h-18.7c-0.1,0-0.1-0.1-0.1-0.2s0-0.2,0.1-0.2
	c0.9,0,1.6-0.1,2-0.2s0.7-0.4,0.8-0.8c0.1-0.4,0.2-1,0.2-1.8V14.2c0-0.8-0.1-1.4-0.2-1.8c-0.1-0.4-0.4-0.6-0.9-0.8
	c-0.4-0.1-1.1-0.2-2-0.2c-0.1,0-0.1-0.1-0.1-0.2s0-0.2,0.1-0.2h2c1.2,0.1,2.1,0.1,2.9,0.1s1.8,0,3-0.1h2c0.1,0,0.1,0.1,0.1,0.2
	s0,0.2-0.1,0.2c-0.9,0-1.5,0.1-1.9,0.2c-0.4,0.1-0.7,0.4-0.8,0.8c-0.1,0.4-0.2,1-0.2,1.8C124.2,14.2,124.2,32.6,124.2,32.6z
	 M154.4,33.8c0.1,0,0.2,0.1,0.2,0.2c0,0.1,0,0.2-0.1,0.3l-4.1,2c-0.1,0.1-0.2,0.1-0.4,0.1c-0.4,0-0.8-0.2-1.1-0.7
	c-0.4-0.5-0.6-1.1-0.7-1.9l-1.8,1.3c-0.6,0.5-1.2,0.8-1.7,1s-1.1,0.3-1.7,0.3c-1.1,0-1.9-0.3-2.5-0.8s-0.9-1.2-0.9-2.1
	c0-0.7,0.2-1.3,0.6-1.8c0.4-0.5,0.9-0.8,1.5-1.1s1.5-0.6,2.7-1.1l3.9-1.4v-2.4c0-1.7-0.2-2.9-0.5-3.6c-0.3-0.8-0.9-1.1-1.6-1.1
	c-0.9,0-1.5,0.3-1.9,1s-0.6,1.4-0.7,2.2c-0.2,1.4-0.8,2-2,2c-0.6,0-1-0.1-1.3-0.4s-0.4-0.6-0.4-1c0-0.7,0.4-1.5,1.3-2.2
	c0.9-0.7,2-1.3,3.2-1.7c1.3-0.4,2.4-0.7,3.3-0.7c1.1,0,2.1,0.4,2.7,1.1c0.7,0.7,1,1.8,1,3.2v7.2c0,0.8,0.1,1.5,0.4,1.9
	c0.3,0.4,0.7,0.6,1.2,0.6C153.3,34.2,153.8,34.1,154.4,33.8L154.4,33.8z M148.1,33.1v-0.4v-4l-2.4,1c-0.7,0.3-1.3,0.6-1.7,0.9
	c-0.4,0.4-0.7,0.9-0.7,1.5c0,0.6,0.2,1.2,0.6,1.5s0.9,0.6,1.5,0.6c0.5,0,1-0.2,1.5-0.5L148.1,33.1z M181.7,20.8c0,0.2,0,0.2-0.1,0.2
	c-0.7,0-1.4,0.3-1.9,0.8s-1.1,1.4-1.6,2.6l-5,11.6c0,0.1-0.1,0.2-0.4,0.2c-0.3,0-0.5-0.1-0.5-0.2l-4.7-9.6l-4.1,9.6
	c0,0.1-0.1,0.2-0.4,0.2c-0.2,0-0.4-0.1-0.5-0.2l-5.9-12.1c-0.6-1.1-1.1-1.9-1.5-2.3s-0.9-0.6-1.4-0.6c-0.1,0-0.1-0.1-0.1-0.2
	s0-0.2,0.1-0.2c0.5,0,0.9,0,1.2,0h2.3h2.7c0.4,0,0.9,0,1.6,0c0.1,0,0.1,0.1,0.1,0.2s0,0.2-0.1,0.2c-1.4,0-2.1,0.3-2.1,0.9
	c0,0.2,0.1,0.4,0.2,0.6l4.7,9l2.6-6.3l-0.7-1.4c-0.6-1.2-1-1.9-1.4-2.3c-0.3-0.4-0.7-0.5-1.2-0.5c-0.1,0-0.1-0.1-0.1-0.2
	s0-0.2,0.1-0.2c0.5,0,0.8,0,1.1,0h2.1h2.8c0.4,0,0.9,0,1.6,0c0.1,0,0.1,0.1,0.1,0.2s0,0.2-0.1,0.2c-0.6,0-1.1,0.1-1.5,0.2
	c-0.4,0.2-0.5,0.4-0.5,0.7c0,0.1,0.1,0.3,0.2,0.6l4.6,9l3-7.3c0.2-0.6,0.3-1,0.3-1.4c0-0.6-0.2-1.1-0.7-1.4s-1.2-0.5-2-0.5
	c-0.1,0-0.1-0.1-0.1-0.2s0-0.2,0.1-0.2c0.7,0,1.3,0,1.6,0h2.4h1.6c0.3,0,0.7,0,1.4,0C181.6,20.6,181.7,20.6,181.7,20.8z M195.7,35.4
	c-1.2-0.8-2.2-1.8-2.8-3.1c-0.7-1.3-1-2.7-1-4.2c0-1.7,0.4-3.2,1.3-4.4c0.9-1.2,2-2.1,3.3-2.7s2.7-0.9,4.1-0.9c1.6,0,3,0.4,4.3,1.2
	c1.2,0.8,2.1,1.8,2.8,3.1c0.6,1.3,1,2.6,1,4.1c0,1.6-0.4,3-1.2,4.3s-1.8,2.2-3.2,2.9c-1.3,0.7-2.8,1-4.3,1
	C198.4,36.5,197,36.1,195.7,35.4z M203.9,34.2c0.6-1,0.9-2.6,0.9-4.6c0-1.8-0.2-3.3-0.7-4.7c-0.5-1.3-1.2-2.3-2-3s-1.8-1-2.7-1
	c-1.2,0-2.1,0.5-2.7,1.5s-0.9,2.4-0.9,4.4c0,1.7,0.2,3.3,0.7,4.7c0.5,1.4,1.1,2.4,2,3.2c0.8,0.8,1.8,1.2,2.8,1.2
	C202.4,35.7,203.3,35.2,203.9,34.2z M226.2,7.6c0.8,0.4,1.2,1,1.2,1.7c0,0.5-0.2,1-0.5,1.3c-0.4,0.3-0.8,0.5-1.3,0.5
	s-0.9-0.1-1.2-0.4c-0.3-0.2-0.5-0.6-0.8-1.1c-0.3-0.6-0.6-1-1-1.3c-0.3-0.3-0.8-0.4-1.4-0.4c-1.3,0-2.4,0.9-3.2,2.6s-1.2,4.4-1.2,8
	V21c1.4,0,2.9-0.1,4.6-0.4c0.1,0,0.1,0.1,0.2,0.3c0.1,0.2,0.1,0.4,0.1,0.7c0,0.2,0,0.5-0.1,0.7s-0.2,0.3-0.3,0.3
	c-1.6-0.4-3.1-0.6-4.5-0.6v10.8c0,0.8,0.1,1.4,0.3,1.8c0.2,0.4,0.5,0.6,1,0.8c0.5,0.1,1.3,0.2,2.4,0.2c0.1,0,0.2,0.1,0.2,0.2
	s-0.1,0.2-0.2,0.2h-2.7c-0.6,0-1.5,0-2.7,0h-2.4c-0.4,0-1,0-1.7,0c-0.1,0-0.2-0.1-0.2-0.2s0.1-0.2,0.2-0.2c0.7,0,1.3-0.1,1.6-0.2
	c0.3-0.1,0.6-0.4,0.7-0.8c0.1-0.4,0.2-1,0.2-1.8v-9c0-0.9-0.2-1.4-0.5-1.7s-1.1-0.4-2.2-0.4c-0.1,0-0.1-0.1-0.1-0.4
	c0-0.2,0-0.3,0.1-0.3c1,0,1.7-0.1,2-0.4c0.4-0.3,0.6-0.7,0.6-1.4c0.1-4.3,0.9-7.5,2.4-9.4s3.7-2.9,6.7-2.9
	C224.2,7,225.4,7.2,226.2,7.6z M238.9,17.9c0.5,0.8,1.1,1.4,1.8,2s1.7,1.2,3,2c1.4,0.9,2.4,1.6,3.2,2.2s1.5,1.4,2,2.3
	s0.8,1.9,0.8,3.1c0,1.4-0.4,2.6-1.1,3.6c-0.7,1.1-1.7,1.9-3,2.5s-2.8,0.9-4.4,0.9c-1.1,0-2.3-0.1-3.5-0.4c-1.2-0.3-2.1-0.7-2.7-1.1
	c-0.2-0.2-0.4-0.4-0.4-0.8l-0.2-6.1l0,0c0-0.1,0.1-0.2,0.2-0.2c0.1,0,0.2,0,0.2,0.1c0.9,2.2,1.9,4,3,5.4s2.6,2.1,4.3,2.1
	c1.1,0,2.1-0.3,2.9-0.9c0.8-0.6,1.2-1.7,1.2-3.1c0-1.2-0.3-2.2-0.8-3.1s-1.2-1.6-1.9-2.2c-0.8-0.6-1.8-1.3-3.1-2.2
	c-1.3-0.8-2.3-1.5-3-2.1s-1.3-1.3-1.8-2.1c-0.5-0.8-0.8-1.8-0.8-2.9c0-1.4,0.4-2.6,1.2-3.5c0.8-1,1.8-1.7,3-2.1
	c1.2-0.5,2.5-0.7,3.9-0.7c0.9,0,1.8,0.1,2.7,0.3s1.7,0.4,2.3,0.7c0.4,0.2,0.6,0.4,0.6,0.8l0.1,5.4c0,0.1-0.1,0.1-0.2,0.2
	c-0.1,0-0.2,0-0.3-0.1c-0.5-1.6-1.2-3.1-2.1-4.4s-2.2-2-4-2c-1.2,0-2.2,0.3-2.9,1s-1.1,1.6-1.1,2.8
	C238.1,16.2,238.4,17.1,238.9,17.9z M267,33.5c0.1,0,0.1,0.1,0.2,0.2c0.1,0.1,0.1,0.2,0,0.2c-1,0.9-2,1.6-3,2s-2.1,0.6-3.2,0.6
	c-1.6,0-3-0.4-4.2-1.1c-1.2-0.7-2.1-1.7-2.7-2.8c-0.6-1.2-0.9-2.4-0.9-3.8c0-1.6,0.4-3,1.2-4.3s1.8-2.3,3.2-3.1
	c1.3-0.8,2.8-1.1,4.5-1.1c1.6,0,2.8,0.4,3.7,1.2s1.3,1.9,1.3,3.4c0,0.8-0.2,1.2-0.5,1.2h-9.8c0,0.2,0,0.6,0,1.1
	c0,2.3,0.5,4.2,1.6,5.6c1.1,1.4,2.6,2.1,4.6,2.1c0.7,0,1.4-0.1,1.9-0.3C265.4,34.3,266.1,34,267,33.5L267,33.5z M258.2,22.1
	c-0.6,0.8-1,1.8-1.3,3.1l6.4-0.1c-0.1-2.8-1-4.2-2.7-4.2C259.6,21,258.8,21.4,258.2,22.1z M285.1,33.8c0.1,0,0.2,0.1,0.2,0.2
	c0,0.1,0,0.2-0.1,0.3l-4.1,2c-0.1,0.1-0.2,0.1-0.4,0.1c-0.4,0-0.8-0.2-1.1-0.7c-0.4-0.5-0.6-1.1-0.7-1.9L277,35
	c-0.6,0.5-1.2,0.8-1.7,1s-1.1,0.3-1.7,0.3c-1.1,0-1.9-0.3-2.5-0.8s-0.9-1.2-0.9-2.1c0-0.7,0.2-1.3,0.6-1.8s0.9-0.8,1.5-1.1
	c0.6-0.3,1.5-0.6,2.7-1.1l3.9-1.4v-2.4c0-1.7-0.2-2.9-0.5-3.6c-0.3-0.8-0.9-1.1-1.6-1.1c-0.9,0-1.5,0.3-1.9,1s-0.6,1.4-0.7,2.2
	c-0.2,1.4-0.8,2-2,2c-0.6,0-1-0.1-1.3-0.4s-0.4-0.6-0.4-1c0-0.7,0.4-1.5,1.3-2.2s2-1.3,3.2-1.7c1.3-0.4,2.4-0.7,3.3-0.7
	c1.1,0,2.1,0.4,2.7,1.1c0.7,0.7,1,1.8,1,3.2v7.2c0,0.8,0.1,1.5,0.4,1.9s0.7,0.6,1.2,0.6C283.9,34.2,284.4,34.1,285.1,33.8
	L285.1,33.8z M278.7,33.1v-0.4v-4l-2.4,1c-0.7,0.3-1.3,0.6-1.7,0.9c-0.4,0.4-0.7,0.9-0.7,1.5c0,0.6,0.2,1.2,0.6,1.5
	c0.4,0.4,0.9,0.6,1.5,0.6c0.5,0,1-0.2,1.5-0.5L278.7,33.1z M297.9,33.4c0.1,0,0.2,0.1,0.2,0.2c0.1,0.1,0.1,0.2,0,0.2
	c-1,0.9-1.9,1.6-2.8,2s-1.8,0.6-2.8,0.6c-1.1,0-2.1-0.3-2.9-0.8s-1.2-1.5-1.2-2.7v-9c0-0.9-0.1-1.5-0.4-1.8s-0.8-0.4-1.6-0.4
	c0,0-0.1,0-0.1-0.1s-0.1-0.1-0.1-0.2s0-0.2,0.1-0.2c0-0.1,0.1-0.1,0.1-0.1c2.5-0.1,4.1-1.2,4.7-3.2c0.1-0.1,0.2-0.2,0.3-0.2
	s0.3,0.1,0.3,0.2V21c1.3,0,3-0.2,5.3-0.4c0.1,0,0.1,0.1,0.2,0.3c0.1,0.2,0.1,0.4,0.1,0.7c0,0.2,0,0.5-0.1,0.7s-0.2,0.3-0.3,0.3
	c-1.5-0.3-3.2-0.6-5.2-0.6v9.7c0,1,0.3,1.8,0.8,2.3s1.2,0.7,2.2,0.7C295.8,34.6,296.9,34.3,297.9,33.4L297.9,33.4z M311.4,33.4
	c0.1,0,0.2,0.1,0.2,0.2c0.1,0.1,0.1,0.2,0,0.2c-1,0.9-1.9,1.6-2.8,2s-1.8,0.6-2.8,0.6c-1.1,0-2.1-0.3-2.9-0.8s-1.2-1.5-1.2-2.7v-9
	c0-0.9-0.1-1.5-0.4-1.8s-0.8-0.4-1.6-0.4c0,0-0.1,0-0.1-0.1s-0.1-0.1-0.1-0.2s0-0.2,0.1-0.2c0-0.1,0.1-0.1,0.1-0.1
	c2.5-0.1,4.1-1.2,4.7-3.2c0.1-0.1,0.2-0.2,0.3-0.2c0.2,0,0.3,0.1,0.3,0.2V21c1.3,0,3-0.2,5.3-0.4c0.1,0,0.1,0.1,0.2,0.3
	c0.1,0.2,0.1,0.4,0.1,0.7c0,0.2,0,0.5-0.1,0.7s-0.2,0.3-0.3,0.3c-1.5-0.3-3.2-0.6-5.2-0.6v9.7c0,1,0.3,1.8,0.8,2.3s1.2,0.7,2.2,0.7
	C309.3,34.6,310.3,34.3,311.4,33.4L311.4,33.4z M313.5,35.8c0-0.2,0-0.2,0.1-0.2c0.9,0,1.5-0.2,1.8-0.6c0.3-0.4,0.5-1.1,0.5-2.2
	V12.3c0-0.9-0.1-1.6-0.3-2c-0.2-0.4-0.5-0.6-0.9-0.6s-0.9,0.2-1.6,0.5l0,0c-0.1,0-0.2-0.1-0.2-0.2c-0.1-0.1-0.1-0.2,0-0.3l5.6-2.6
	h0.2c0.1,0,0.2,0.1,0.4,0.2c0.1,0.1,0.2,0.2,0.2,0.3v25.3c0,1.1,0.1,1.8,0.4,2.2s0.9,0.6,1.8,0.6c0.1,0,0.1,0.1,0.1,0.2
	s0,0.2-0.1,0.2c-0.6,0-1.2,0-1.6,0h-2.4h-2.3c-0.4,0-0.9,0-1.6,0C313.5,36,313.5,35.9,313.5,35.8z M337.9,33.5
	c0.1,0,0.1,0.1,0.2,0.2c0.1,0.1,0.1,0.2,0,0.2c-1,0.9-2,1.6-3,2s-2.1,0.6-3.2,0.6c-1.6,0-3-0.4-4.2-1.1c-1.2-0.7-2.1-1.7-2.7-2.8
	c-0.6-1.2-0.9-2.4-0.9-3.8c0-1.6,0.4-3,1.2-4.3c0.8-1.3,1.8-2.3,3.2-3.1c1.3-0.8,2.8-1.1,4.5-1.1c1.6,0,2.8,0.4,3.7,1.2
	s1.3,1.9,1.3,3.4c0,0.8-0.2,1.2-0.5,1.2h-9.8c0,0.2,0,0.6,0,1.1c0,2.3,0.5,4.2,1.6,5.6c1.1,1.4,2.6,2.1,4.6,2.1
	c0.7,0,1.4-0.1,1.9-0.3C336.2,34.3,336.9,34,337.9,33.5L337.9,33.5z M329,22.1c-0.6,0.8-1,1.8-1.3,3.1l6.4-0.1
	c-0.1-2.8-1-4.2-2.7-4.2C330.4,21,329.6,21.4,329,22.1z"/>
</svg>
