<?xml version="1.0" encoding="utf-8"?>
<!-- Generator: Adobe Illustrator 22.1.0, SVG Export Plug-In . SVG Version: 6.00 Build 0)  -->
<svg version="1.1" id="Layer_1" xmlns="http://www.w3.org/2000/svg" xmlns:xlink="http://www.w3.org/1999/xlink" x="0px" y="0px"
	 viewBox="0 0 282.7 70" style="enable-background:new 0 0 282.7 70;" xml:space="preserve">
<style type="text/css">
	.st0{fill:#FFFFFF;}
	.st1{fill:#F16724;}
	.st2{fill:#424D52;}
</style>
<path id="Fill-1" class="st0" d="M71.9,21l-1.3-2.1l-1.2,0.7C60.7,2.1,39.4-5,21.9,3.7c-6.9,3.4-12.4,9-15.9,15.8l-1.2-0.7l-1.3,2.1
	C1.2,25.2-0.1,30,0,34.9c-0.1,4.9,1.2,9.8,3.6,14L4.8,51L6,50.4C14.8,67.9,36,75,53.5,66.3c6.9-3.4,12.4-9,15.9-15.8l1.2,0.7
	l1.3-2.1c2.4-4.3,3.7-9.1,3.6-14C75.5,30.1,74.3,25.3,71.9,21"/>
<path class="st1" d="M16.8,22.2h42c1,0,2.1,0,3.1-0.1c-7.3-13.3-24-18.2-37.3-10.9c-4.6,2.5-8.4,6.3-10.9,10.9
	C14.7,22.2,15.7,22.2,16.8,22.2 M58.7,47.7l-42,0c-1.1,0-2.1,0.1-3.2,0.2c7.3,13.3,24,18.2,37.3,10.9c4.6-2.5,8.4-6.3,10.9-10.9
	C60.8,47.8,59.7,47.7,58.7,47.7"/>
<path id="Fill-8" class="st2" d="M58.7,45.3c6.4,0,9.9,1.9,11,2.5C71.9,43.9,73,39.5,73,35c0.1-4.5-1-8.9-3.2-12.7
	c-1.1,0.6-4.7,2.5-11,2.5c-4.4,0-37.5,0-42,0c-6.4,0-9.9-1.9-11-2.5c-2.2,3.9-3.3,8.3-3.3,12.7c-0.1,4.5,1,8.9,3.2,12.7
	c1.1-0.6,4.7-2.5,11-2.5C21.1,45.2,54.3,45.2,58.7,45.3"/>
<path id="Fill-10" class="st0" d="M65.8,63.3c0.5,0,0.9,0,0.9-0.6c0-0.5-0.4-0.6-0.8-0.6h-0.8v1.2H65.8z M65.1,65.4h-0.6v-3.8H66
	c0.9,0,1.3,0.3,1.3,1.1c0,0.5-0.4,1-0.9,1c0,0,0,0-0.1,0l1.1,1.7h-0.6l-1-1.6h-0.7L65.1,65.4z M65.8,66.2c1.5,0,2.8-1.2,2.8-2.7
	c0-1.5-1.2-2.8-2.7-2.8c-1.5,0-2.8,1.2-2.8,2.7c0,0,0,0,0,0c0,1.5,1.1,2.7,2.6,2.7C65.7,66.2,65.7,66.2,65.8,66.2z M62.4,63.5
	c0-1.9,1.4-3.4,3.3-3.4c1.9,0,3.4,1.4,3.4,3.3c0,1.9-1.4,3.4-3.3,3.4c0,0,0,0-0.1,0C64,66.8,62.4,65.4,62.4,63.5
	C62.4,63.5,62.4,63.5,62.4,63.5z"/>
<path class="st0" d="M26.8,34.2c2.4,0,4.5-0.1,4.5-1.9c0-1.7-2.1-1.9-4.5-1.9l-8.8,0v3.8L26.8,34.2z M13.8,34.2l0-6l12.1,0
	c3.7,0,9.7,0,9.7,4.2s-6,4.4-9.7,4.4l-7.9,0v5h-4.2L13.8,34.2z M57.4,32.2C56.7,31,55,30,49.8,30.1c-2.8,0-5.4,0.5-5.4,1.8
	c0,0.6,0.2,1.2,4.5,1.5l5.1,0.4c4.8,0.4,7.7,1.5,7.7,3.8c0,3.2-4.9,4.5-10.6,4.6c-9.2,0.2-11.5-2.7-12-3.7l4.1-0.9
	c0.8,1,2.4,2.4,8,2.3c3.4-0.1,6-0.8,6-2c0-0.9-1.3-1.4-4.4-1.6l-5.1-0.4c-5-0.3-7.8-1.7-7.7-3.7c0-4.1,8.4-4.2,10-4.3
	c9.3-0.2,10.8,2.5,11.4,3.5L57.4,32.2z"/>
<path class="st2" d="M64.4,48.3c-7.6,14.7-25.6,20.5-40.4,13c-5.6-2.9-10.1-7.4-13-13c-0.9,0.2-1.8,0.5-2.7,0.9
	c8.1,16.3,27.8,22.9,44,14.8c6.4-3.2,11.6-8.4,14.8-14.8C66.2,48.9,65.3,48.6,64.4,48.3 M11,21.6c7.6-14.7,25.6-20.5,40.4-13
	c5.6,2.9,10.1,7.4,13,13c0.9-0.2,1.9-0.5,2.8-0.9C59.1,4.5,39.4-2.1,23.1,5.9c-6.4,3.2-11.6,8.4-14.8,14.8
	C9.2,21.1,10.1,21.4,11,21.6"/>
<path class="st0" d="M89.3,34.9c2.2,0,3.3-1,3.3-2.9c0-1.9-1.2-2.6-3.3-2.6h-2.3v5.4L89.3,34.9z M83,26.3h6.6c3.9,0,7.1,1.4,7.1,5.8
	c0,4.2-3.2,6.1-7.1,6.1h-2.5v6.1H83V26.3z M116.9,36c0-1.6-0.7-2.7-2.3-2.7c-1.3,0-2.4,0.9-2.7,2.7H116.9z M114.5,30.2
	c3.9,0,5.8,2.8,5.8,6.5c0,0.6,0,1.1-0.2,1.7H112c0.2,1.8,1.8,3.1,3.6,3c1.1,0,2.1-0.3,3-0.9l1.4,2.4c-1.4,1-3.1,1.5-4.9,1.5
	c-3.9,0-7-2.6-7-7.1C108,32.9,111.2,30.2,114.5,30.2L114.5,30.2z M128.7,41.2c1.4,0,2.5-1.2,2.5-4c0-2.4-0.7-3.7-2.4-3.7
	c-0.9,0-1.8,0.5-2.4,1.2v5.6C127.1,40.9,127.9,41.2,128.7,41.2z M126.4,49.2h-3.9V30.5h3.6l0,1.3h0.1c1.1-1,2.4-1.6,3.9-1.7
	c3.3,0,5.4,2.7,5.4,6.9c0,4.7-2.8,7.4-5.8,7.4c-1.2,0-2.4-0.5-3.3-1.4L126.4,49.2z M161.2,41.2c1.4,0,2.5-1.2,2.5-4
	c0-2.4-0.7-3.7-2.4-3.7c-0.9,0-1.8,0.5-2.4,1.2v5.6C159.6,40.9,160.4,41.2,161.2,41.2z M158.9,49.2h-3.9V30.5h3.6l0,1.3h0.1
	c1.1-1,2.4-1.6,3.9-1.7c3.3,0,5.4,2.7,5.4,6.9c0,4.7-2.8,7.4-5.8,7.4c-1.2,0-2.4-0.5-3.3-1.4L158.9,49.2L158.9,49.2z M142.1,39.1
	c1.2,1.1,2.8,1.8,4.5,1.9c1.7,0,2.5-0.7,2.5-1.7c0-1.1-1-1.5-2.6-2.1l-2.4-1c-2.1-0.7-3.6-2.7-3.6-4.9c0-3,2.7-5.3,6.4-5.3
	c2.2,0,4.3,0.9,5.8,2.4l-2.1,2.6c-1-0.9-2.4-1.4-3.7-1.4c-1.4,0-2.3,0.6-2.3,1.6c0,1.1,1.2,1.5,2.7,2.1l2.3,0.9
	c2.2,0.9,3.6,2.3,3.6,4.9c0,3-2.5,5.5-6.8,5.5c-2.5,0-4.8-0.9-6.7-2.6L142.1,39.1z M176.4,41.2c1.7,0,2.5-1.5,2.5-3.9
	s-0.9-3.9-2.5-3.9c-1.7,0-2.5,1.5-2.5,3.9S174.7,41.2,176.4,41.2 M176.4,30.2c3.5,0,6.7,2.6,6.7,7.1s-3.2,7.1-6.7,7.1
	c-3.5,0-6.7-2.6-6.7-7.1S172.9,30.2,176.4,30.2 M185.2,30.5h3.9l0,1.8h0c0.7-1.4,2.2-2.3,3.7-2.1c0.6,0,1.1,0.1,1.6,0.3l-0.7,3.5
	c-0.5-0.1-1-0.2-1.5-0.2c-1.5,0.1-2.7,1.1-3.2,2.5v7.9h-3.9L185.2,30.5L185.2,30.5z M196.3,33.7v-3.2l2.1,0l0-3.6h3.8v3.6h3.3v3.2
	h-3.3v5.5c0,1.5,0.7,2.2,1.8,2.2c0.4,0,0.9-0.1,1.3-0.3L206,44c-1,0.3-2,0.5-3,0.5c-3.4,0-4.7-2.1-4.7-5.3v-5.5H196.3z M208.8,40.1
	c1,0.9,2.2,1.4,3.6,1.4c1.2,0,1.7-0.4,1.7-1.1c0-0.9-1.4-1.3-2.8-1.9c-1.7-0.6-3.6-1.8-3.6-4c0-2.5,2.1-4.3,5.3-4.3
	c1.8,0,3.5,0.6,4.9,1.7l-1.8,2.4c-0.8-0.7-1.8-1.1-2.9-1.2c-1.1,0-1.6,0.4-1.6,1.1c0,0.9,1.3,1.2,2.7,1.7c1.7,0.6,3.7,1.6,3.7,4.1
	c0,2.5-2,4.4-5.7,4.4c-1.9-0.1-3.8-0.7-5.3-1.9L208.8,40.1z M218.7,30.5h4l1.3,6.3c0.2,1.3,0.4,2.7,0.6,4h0.1c0.2-1.4,0.5-2.7,0.8-4
	l1.5-6.3h3.5l1.5,6.3c0.3,1.3,0.6,2.7,0.9,4h0.1c0.2-1.4,0.4-2.7,0.6-4l1.3-6.3h3.8l-3.3,13.6h-4.8l-1.2-5.4c-0.3-1.3-0.5-2.5-0.7-4
	h-0.1c-0.2,1.5-0.4,2.7-0.7,4l-1.2,5.4h-4.7L218.7,30.5z M248.5,36c0-1.6-0.7-2.7-2.3-2.7c-1.3,0-2.4,0.9-2.7,2.7H248.5z
	 M246.1,30.2c3.9,0,5.8,2.8,5.8,6.5c0,0.6,0,1.1-0.2,1.7h-8.2c0.2,1.8,1.8,3.1,3.6,3c1.1,0,2.1-0.3,3-0.9l1.4,2.4
	c-1.4,1-3.1,1.5-4.9,1.5c-3.9,0-7-2.6-7-7.1C239.6,32.9,242.8,30.2,246.1,30.2L246.1,30.2z M258.7,41.4c0.9,0,1.7-0.5,2.3-1.2v-2.4
	c-2.9,0.4-3.9,1.2-3.9,2.3C257.1,41,257.7,41.4,258.7,41.4 M261,35.4c0.1-1-0.8-1.9-1.8-2c-0.1,0-0.2,0-0.4,0
	c-1.3,0.1-2.6,0.5-3.7,1.2l-1.4-2.7c1.8-1.1,3.8-1.7,5.9-1.8c3.5,0,5.5,2,5.5,6.2v7.8h-3.6v-1.4h-0.1c-1.1,1.1-2.5,1.7-4,1.7
	c-2.2,0.1-4-1.6-4.1-3.8c0-0.1,0-0.2,0-0.3C253.3,37.5,255.6,36,261,35.4 M279.7,41.4c0.4,0,0.8,0,0.8-0.6c0-0.4-0.4-0.5-0.7-0.5
	h-0.7v1H279.7z M279.1,43.3h-0.5v-3.4h1.3c0.8,0,1.2,0.3,1.2,1c0,0.5-0.3,0.9-0.8,0.9c0,0,0,0-0.1,0l1,1.5h-0.6l-0.9-1.5h-0.6
	L279.1,43.3L279.1,43.3z M279.7,44.1c1.4,0,2.5-1.1,2.5-2.4c0-1.4-1.1-2.5-2.4-2.5s-2.5,1.1-2.5,2.4c0,0,0,0,0,0
	c0,1.3,1,2.4,2.3,2.5C279.6,44.1,279.6,44.1,279.7,44.1z M276.7,41.6c0-1.7,1.3-3,2.9-3.1c1.7,0,3,1.3,3.1,2.9c0,1.7-1.3,3-2.9,3.1
	c0,0,0,0,0,0C278.1,44.6,276.7,43.3,276.7,41.6C276.7,41.6,276.7,41.6,276.7,41.6z M98.7,30.5h3.9v1.8h0c0.7-1.4,2.2-2.3,3.8-2.1
	c0.6,0,1.1,0.1,1.6,0.3l-0.7,3.5c-0.5-0.1-1-0.2-1.5-0.2c-1.5,0.1-2.7,1.1-3.2,2.5v7.9h-3.9C98.7,44.2,98.7,30.5,98.7,30.5z
	 M267.2,30.5h3.9v1.8h0c0.7-1.4,2.2-2.3,3.7-2.1c0.6,0,1.1,0.1,1.6,0.3l-0.7,3.5c-0.5-0.1-1-0.2-1.5-0.2c-1.5,0.1-2.7,1.1-3.2,2.5
	v7.9h-3.9L267.2,30.5L267.2,30.5z"/>
</svg>
