<svg xmlns="http://www.w3.org/2000/svg" viewBox="0 0 40 39.944">
  <defs>
    <style>
      .cls-1 {
        fill: #fff;
        fill-rule: evenodd;
      }
    </style>
  </defs>
  <path id="Path_1062" data-name="Path 1062" class="cls-1" d="M20,39.944A19.972,19.972,0,1,1,40,19.972,20.011,20.011,0,0,1,20,39.944ZM36.86,22.708a25,25,0,0,0-10.635-.726,74.571,74.571,0,0,1,3.322,12.156A17.061,17.061,0,0,0,36.86,22.708ZM26.671,35.7a70.438,70.438,0,0,0-3.643-12.938c-.042.014-.07.028-.112.042-9.63,3.35-13.091,10.021-13.4,10.649A16.98,16.98,0,0,0,20,37.055,17.158,17.158,0,0,0,26.671,35.7ZM7.313,31.4c.391-.656,5.08-8.416,13.887-11.263l.67-.209c-.433-.963-.893-1.94-1.382-2.889A62.47,62.47,0,0,1,2.931,19.47c0,.167-.014.349-.014.516A16.954,16.954,0,0,0,7.313,31.4ZM3.28,16.5a63.4,63.4,0,0,0,15.785-2.08A106.565,106.565,0,0,0,12.729,4.55,17.146,17.146,0,0,0,3.28,16.5ZM15.994,3.419A90.567,90.567,0,0,1,22.373,13.4c6.071-2.275,8.639-5.722,8.946-6.155A17.043,17.043,0,0,0,20,2.945a16.481,16.481,0,0,0-4.006.475ZM33.217,9.211c-.363.488-3.224,4.145-9.532,6.727.391.809.782,1.633,1.13,2.47.126.293.251.586.363.879a40.359,40.359,0,0,1,11.891.544A16.86,16.86,0,0,0,33.217,9.211Z"/>
</svg>
