<svg xmlns="http://www.w3.org/2000/svg" viewBox="0 0 75 75">
  <defs>
    <style>
      .cls-1 {
        fill: #fff;
      }
    </style>
  </defs>
  <path id="Subtraction_33" data-name="Subtraction 33" class="cls-1" d="M-9862.5-2201a37.261,37.261,0,0,1-14.6-2.947,37.372,37.372,0,0,1-11.92-8.037,37.389,37.389,0,0,1-8.035-11.92,37.278,37.278,0,0,1-2.947-14.6,37.268,37.268,0,0,1,2.947-14.6,37.381,37.381,0,0,1,8.035-11.919,37.391,37.391,0,0,1,11.92-8.037,37.257,37.257,0,0,1,14.6-2.947,37.258,37.258,0,0,1,14.6,2.947,37.357,37.357,0,0,1,11.921,8.037,37.373,37.373,0,0,1,8.038,11.919,37.285,37.285,0,0,1,2.946,14.6,37.3,37.3,0,0,1-2.946,14.6,37.378,37.378,0,0,1-8.038,11.92,37.366,37.366,0,0,1-11.921,8.037A37.262,37.262,0,0,1-9862.5-2201Zm-4.783-37.58h0l-12.619,14.123a4.881,4.881,0,0,0,2.6.76h29.605a4.889,4.889,0,0,0,2.6-.76l-12.621-14.123-3.973,3.477a1.225,1.225,0,0,1-.812.3,1.233,1.233,0,0,1-.811-.3l-3.973-3.477Zm23.754-12.409h0l-12.328,10.786,12.463,13.944a4.872,4.872,0,0,0,.633-2.373v-19.735a4.924,4.924,0,0,0-.768-2.621Zm-37.937,0h0a4.921,4.921,0,0,0-.768,2.621v19.735a4.853,4.853,0,0,0,.633,2.373l12.463-13.946-12.328-10.783Zm4.166-2.314a4.841,4.841,0,0,0-2.35.623l17.15,15.01,17.156-15.01a4.854,4.854,0,0,0-2.352-.623Z" transform="translate(9900 2276)"/>
</svg>
