<svg xmlns="http://www.w3.org/2000/svg" viewBox="0 0 40 40">
  <defs>
    <style>
      .cls-1 {
        fill: #fff;
      }
    </style>
  </defs>
  <path id="Subtraction_31" data-name="Subtraction 31" class="cls-1" d="M-9880-2236a19.861,19.861,0,0,1-7.783-1.572,19.954,19.954,0,0,1-6.357-4.286,19.949,19.949,0,0,1-4.288-6.359A19.865,19.865,0,0,1-9900-2256a19.867,19.867,0,0,1,1.571-7.784,19.929,19.929,0,0,1,4.288-6.356,19.907,19.907,0,0,1,6.357-4.288A19.857,19.857,0,0,1-9880-2276a19.851,19.851,0,0,1,7.784,1.572,19.911,19.911,0,0,1,6.356,4.288,19.91,19.91,0,0,1,4.287,6.356A19.853,19.853,0,0,1-9860-2256a19.851,19.851,0,0,1-1.572,7.784,19.979,19.979,0,0,1-4.287,6.359,19.95,19.95,0,0,1-6.356,4.286A19.855,19.855,0,0,1-9880-2236Zm0-33.652c-3.7,0-4.181.016-5.629.083a10.2,10.2,0,0,0-3.317.636,6.612,6.612,0,0,0-2.417,1.572,6.807,6.807,0,0,0-1.574,2.421,10.22,10.22,0,0,0-.637,3.315c-.068,1.445-.083,1.881-.083,5.629s.015,4.185.083,5.627a10.137,10.137,0,0,0,.637,3.315,6.658,6.658,0,0,0,1.574,2.413,6.778,6.778,0,0,0,2.421,1.576,10.222,10.222,0,0,0,3.317.636c1.461.067,1.946.083,5.627.083s4.169-.016,5.629-.083a10.187,10.187,0,0,0,3.317-.636,6.644,6.644,0,0,0,2.409-1.576,6.779,6.779,0,0,0,1.578-2.421,10.222,10.222,0,0,0,.637-3.315v-.037c.062-1.375.082-1.839.082-5.591s-.021-4.215-.082-5.592v-.037a10.137,10.137,0,0,0-.637-3.315,6.679,6.679,0,0,0-1.578-2.413,6.725,6.725,0,0,0-2.421-1.576,10.156,10.156,0,0,0-3.313-.636C-9875.86-2269.636-9876.349-2269.651-9880-2269.651Zm0,24.844c-3.717,0-4.1-.013-5.516-.08a7.483,7.483,0,0,1-2.536-.471,4.188,4.188,0,0,1-1.57-1.021,4.213,4.213,0,0,1-1.019-1.566,7.483,7.483,0,0,1-.475-2.536c-.062-1.485-.077-1.97-.077-5.518,0-3.7.013-4.087.077-5.516a7.356,7.356,0,0,1,.475-2.534,4.2,4.2,0,0,1,1.019-1.569,4.173,4.173,0,0,1,1.57-1.02,7.468,7.468,0,0,1,2.536-.473c1.415-.067,1.8-.079,5.516-.079s4.1.012,5.514.079a7.484,7.484,0,0,1,2.539.473,4.251,4.251,0,0,1,1.567,1.02,4.254,4.254,0,0,1,1.019,1.568,7.564,7.564,0,0,1,.471,2.535c.067,1.463.081,1.9.081,5.516,0,3.6-.01,4.049-.081,5.518a7.6,7.6,0,0,1-.471,2.536,4.253,4.253,0,0,1-1.019,1.566,4.29,4.29,0,0,1-1.567,1.021,7.657,7.657,0,0,1-2.539.471C-9875.876-2244.824-9876.251-2244.807-9880-2244.807Zm0-18.2a7.021,7.021,0,0,0-7.015,7.011,7.022,7.022,0,0,0,7.015,7.012,7.021,7.021,0,0,0,7.013-7.012A7.02,7.02,0,0,0-9880-2263.01Zm7.287-1.918a1.644,1.644,0,0,0-1.642,1.642,1.643,1.643,0,0,0,1.642,1.64,1.642,1.642,0,0,0,1.64-1.64A1.643,1.643,0,0,0-9872.711-2264.928Zm-7.287,13.482a4.558,4.558,0,0,1-4.552-4.554,4.557,4.557,0,0,1,4.552-4.552,4.556,4.556,0,0,1,4.55,4.552A4.557,4.557,0,0,1-9880-2251.446Z" transform="translate(9900 2276)"/>
</svg>
