<svg xmlns="http://www.w3.org/2000/svg" viewBox="0 0 40 39.998">
  <defs>
    <style>
      .cls-1 {
        fill: #fff;
      }
    </style>
  </defs>
  <path id="Subtraction_29" data-name="Subtraction 29" class="cls-1" d="M20,40A19.991,19.991,0,0,1,5.858,5.858,20,20,0,1,1,27.783,38.426,19.869,19.869,0,0,1,20,40ZM16.021,15.491V32.6h5.312V24.139c0-2.173.38-4.394,3.193-4.394,2.763,0,2.763,2.622,2.763,4.536V32.6H32.6V23.21c0-4.232-.772-8.148-6.379-8.148a5.613,5.613,0,0,0-5.032,2.763h-.073V15.491Zm-8.652,0V32.6h5.315V15.491Zm2.66-8.5a3.084,3.084,0,1,0,3.079,3.084A3.065,3.065,0,0,0,10.028,6.986Z" transform="translate(0.001)"/>
</svg>
