<svg xmlns="http://www.w3.org/2000/svg" viewBox="0 0 40 40">
  <defs>
    <style>
      .cls-1 {
        fill: #fff;
      }
    </style>
  </defs>
  <path id="Path_1070" data-name="Path 1070" class="cls-1" d="M20,0A20,20,0,1,0,40,20,20,20,0,0,0,20,0ZM31.023,11.617,29.266,13.3a.521.521,0,0,0-.2.492V26.188a.521.521,0,0,0,.2.492l1.719,1.688v.367H22.336v-.367l1.781-1.727c.172-.172.172-.227.172-.492V16.133L19.336,28.7h-.664l-5.758-12.57v8.422a1.173,1.173,0,0,0,.32.969l2.313,2.8V28.7H8.984v-.367L11.3,25.516a1.133,1.133,0,0,0,.3-.969V14.82a.865.865,0,0,0-.281-.719L9.258,11.625V11.25h6.391l4.938,10.828L24.93,11.25h6.094Z"/>
</svg>
