<svg xmlns="http://www.w3.org/2000/svg" viewBox="0 0 75 75">
  <defs>
    <style>
      .cls-1 {
        fill: #fff;
      }
    </style>
  </defs>
  <path id="Subtraction_32" data-name="Subtraction 32" class="cls-1" d="M-9862.5-2201a37.261,37.261,0,0,1-14.6-2.947,37.372,37.372,0,0,1-11.92-8.037,37.389,37.389,0,0,1-8.035-11.92,37.278,37.278,0,0,1-2.947-14.6,37.268,37.268,0,0,1,2.947-14.6,37.381,37.381,0,0,1,8.035-11.919,37.391,37.391,0,0,1,11.92-8.037,37.257,37.257,0,0,1,14.6-2.947,37.258,37.258,0,0,1,14.6,2.947,37.357,37.357,0,0,1,11.921,8.037,37.373,37.373,0,0,1,8.038,11.919,37.285,37.285,0,0,1,2.946,14.6,37.3,37.3,0,0,1-2.946,14.6,37.378,37.378,0,0,1-8.038,11.92,37.366,37.366,0,0,1-11.921,8.037A37.262,37.262,0,0,1-9862.5-2201Zm-9.049-59.21a3.237,3.237,0,0,0-3.232,3.234v37.943a3.236,3.236,0,0,0,3.232,3.231h18.686a3.235,3.235,0,0,0,3.231-3.231v-37.943a3.236,3.236,0,0,0-3.231-3.234Zm9.344,41.213a2.065,2.065,0,0,1-2.062-2.064,2.064,2.064,0,0,1,2.062-2.062,2.064,2.064,0,0,1,2.06,2.062A2.065,2.065,0,0,1-9862.207-2219Zm10.15-7.069h-20.3v-28.687h20.3v28.686Zm-5.538-30.621h-9.224c-.233,0-.423-.351-.423-.782s.189-.777.423-.777h9.224c.234,0,.424.349.424.777S-9857.36-2256.687-9857.595-2256.687Z" transform="translate(9900 2276)"/>
</svg>
