<svg xmlns="http://www.w3.org/2000/svg" viewBox="0 0 37.127 60">
  <defs>
    <style>
      .cls-1 {
        fill: #142E81;
      }
    </style>
  </defs>
  <path id="Path_1055" data-name="Path 1055" class="cls-1" d="M36.961,28.031a18.577,18.577,0,0,0-18.39-16.262h-.164a25.033,25.033,0,0,1-2.265-9.85A1.791,1.791,0,0,0,14.969.309L14.805.227A1.843,1.843,0,0,0,13.987-.1a.447.447,0,0,0-.464.409c-.9,4.338.082,7.667,1.119,11.187.055.218.136.437.191.655A18.317,18.317,0,0,0,3.919,18.945a18.557,18.557,0,0,0,12.906,29.9c-1.01,4.857-1.965,6.112-2.565,6.93a4.823,4.823,0,0,0-.327.464,2.689,2.689,0,0,0-.573,2.156,1.978,1.978,0,0,0,1.228,1.146,3.594,3.594,0,0,0,1.446.355c.928,0,1.637-.573,2.237-1.746a37.281,37.281,0,0,0,3.056-9.413A18.52,18.52,0,0,0,36.961,28.031ZM17.807,43.311c-.136.982-.273,1.855-.409,2.674A15.7,15.7,0,0,1,6.183,20.719a15.464,15.464,0,0,1,9.359-5.757,25.381,25.381,0,0,1,.709,4.8c.573,11.623-2.4,15.307-3.165,16.044-.082-.491-.218-1.446-.355-2.265-.055-.382-.109-.737-.136-.982-.164-1.037-.873-1.037-1.392-1.037h-.055a1.148,1.148,0,0,0-1.282.928C8.83,35.507,7.711,36.571,7,37.09c-.3.218-.464.437-.464.628a.475.475,0,0,0,.246.382.952.952,0,0,0,.491.164,1.612,1.612,0,0,0,.764-.273,14.06,14.06,0,0,0,1.8-1.228,3.236,3.236,0,0,1-.191,1.446c-.3,1.01-.164,1.173.491,1.746l.082.082a2.428,2.428,0,0,0,1.473.764,1.366,1.366,0,0,0,.682-.191c.164-.082,3.6-1.937,6.221-8.186A60.353,60.353,0,0,1,17.807,43.311Zm3.574-16.48c1.992,1.692,6.412,5.593,6.821,7.149.355,1.31-.764,4.584-6.03,7.04A72.4,72.4,0,0,0,21.381,26.83Zm9.55,13.151a15.636,15.636,0,0,1-9.141,5.73c.136-1.091.246-2.21.327-3.3,3.793-1.555,8.186-5.157,9.332-8.868a4.782,4.782,0,0,0-.573-4.447c-.055-.055-5.457-6.276-9.031-11.378-.709-1.037-1.364-2.019-1.937-2.974a15.7,15.7,0,0,1,14.161,13.67A15.264,15.264,0,0,1,30.931,39.982Z" transform="translate(0.014 0.1)"/>
</svg>
