<svg xmlns="http://www.w3.org/2000/svg" viewBox="0 0 249.162 402.667">
  <defs>
    <style>
      .cls-1 {
        fill: #fff;
      }
    </style>
  </defs>
  <path id="Path_1053" data-name="Path 1053" class="cls-1" d="M248.131,188.69c-7.874-62.259-60.794-109.136-123.419-109.136h-1.1c-9.705-21.241-14.283-41.933-15.2-66.1-.366-7.141-5.31-9.522-7.874-10.8l-1.1-.549C97.611,1,95.6-.1,93.949-.1a3,3,0,0,0-3.113,2.747c-6.043,29.115.549,51.455,7.508,75.077.366,1.465.916,2.93,1.282,4.395a122.929,122.929,0,0,0-73.245,45.6,124.539,124.539,0,0,0,86.613,200.692C106.218,361,99.809,369.423,95.78,374.917a32.369,32.369,0,0,0-2.2,3.113c-3.845,6.043-4.944,10.621-3.845,14.466q1.648,4.944,8.24,7.691a24.118,24.118,0,0,0,9.705,2.38c6.226,0,10.987-3.845,15.015-11.719,9.705-19.776,16.3-41.2,20.509-63.174A124.289,124.289,0,0,0,248.131,188.69ZM119.585,291.234c-.916,6.592-1.831,12.452-2.747,17.945a105.356,105.356,0,0,1-75.26-169.563,103.778,103.778,0,0,1,62.808-38.637,170.333,170.333,0,0,1,4.761,32.228c3.845,78.006-16.114,102.727-21.241,107.671-.549-3.3-1.465-9.705-2.38-15.2-.366-2.564-.732-4.944-.916-6.592-1.1-6.958-5.86-6.958-9.339-6.958h-.366c-3.662,0-6.592.549-8.606,6.226C59.341,238.863,51.833,246,47.072,249.484c-2.014,1.465-3.113,2.93-3.113,4.212a3.186,3.186,0,0,0,1.648,2.564,6.39,6.39,0,0,0,3.3,1.1c1.465,0,2.747-.549,5.127-1.831a94.355,94.355,0,0,0,12.086-8.24,21.716,21.716,0,0,1-1.282,9.705c-2.014,6.775-1.1,7.874,3.3,11.719l.549.549c3.113,2.564,6.043,5.127,9.888,5.127a9.168,9.168,0,0,0,4.578-1.282c1.1-.549,24.171-13,41.75-54.934C125.628,237.4,124.163,258.823,119.585,291.234Zm23.988-110.6c13.367,11.353,43.032,37.538,45.778,47.976,2.38,8.789-5.127,30.763-40.468,47.243A485.852,485.852,0,0,0,143.573,180.633Zm64.09,88.261a104.935,104.935,0,0,1-61.343,38.454c.916-7.325,1.648-14.832,2.2-22.157,25.453-10.437,54.934-34.608,62.625-59.512,3.479-11.353,2.38-21.241-3.845-29.847-.366-.366-36.623-42.116-60.611-76.358-4.761-6.958-9.156-13.55-13-19.959,48.708,4.212,88.81,42.3,95.036,91.74A102.44,102.44,0,0,1,207.663,268.894Z" transform="translate(0.014 0.1)"/>
</svg>
