<svg xmlns="http://www.w3.org/2000/svg" viewBox="0 0 50 50">
  <defs>
    <style>
      .cls-1 {
        fill: #fff;
      }
    </style>
  </defs>
  <path id="Subtraction_16" data-name="Subtraction 16" class="cls-1" d="M25,50A25.007,25.007,0,0,1,15.269,1.965,25.007,25.007,0,0,1,34.731,48.036,24.843,24.843,0,0,1,25,50Zm3.343-20.453h0l.511.511V31.43L37.426,40,40,37.426l-8.57-8.571H30.058l-.511-.511a10.67,10.67,0,0,0,2.743-7.2A11.145,11.145,0,1,0,21.145,32.29a10.793,10.793,0,0,0,7.2-2.743Zm-7.2-.692a7.682,7.682,0,1,1,5.465-2.247A7.676,7.676,0,0,1,21.145,28.855Z"/>
</svg>
