<svg xmlns="http://www.w3.org/2000/svg" viewBox="0 0 43.23 27.22">
  <title>Asset 1</title>
  <style type="text/css">
  	.st1{fill:#ffffff;}
  </style>
  <g class="scrollicon" id="Layer_2" data-name="Layer 2">
    <g id="Layer_1-2" data-name="Layer 1">
      <path class="st1" d="M42.93,2.32a1.61,1.61,0,0,0,.3-.9,1.61,1.61,0,0,0-.5-1.1,1.43,1.43,0,0,0-2,.2l-19.1,23.1L4.43,2.82h19a1.37,1.37,0,0,0,1.4-1.4A1.37,1.37,0,0,0,23.43,0h-22a1.56,1.56,0,0,0-1.3.8,1.37,1.37,0,0,0,.2,1.5l20.2,24.4a1.46,1.46,0,0,0,2.2,0Z"/>
    </g>
  </g>
</svg>
