<?xml version="1.0" encoding="iso-8859-1"?>
<!-- Generator: Adobe Illustrator 19.0.0, SVG Export Plug-In . SVG Version: 6.00 Build 0)  -->
<svg xmlns="http://www.w3.org/2000/svg" xmlns:xlink="http://www.w3.org/1999/xlink" version="1.1" id="Capa_1" x="0px" y="0px" viewBox="0 0 512.002 512.002" style="enable-background:new 0 0 512.002 512.002;" xml:space="preserve" width="512px" height="512px">
<g>
	<g>
		<path d="M506.857,313.175c-21.066-11.702-33.643-33.076-33.643-57.174c0-24.098,12.577-45.472,33.643-57.174    c4.01-2.227,5.991-6.898,4.803-11.33c-1.187-4.431-5.215-7.488-9.825-7.41c-24.073,0.418-45.673-11.822-57.723-32.692    c-12.049-20.869-11.844-45.668,0.549-66.335c2.359-3.935,1.739-8.97-1.505-12.214c-3.245-3.244-8.279-3.865-12.214-1.505    c-20.668,12.393-45.466,12.599-66.335,0.549c-20.869-12.05-33.091-33.628-32.692-57.723c0.076-4.587-2.979-8.637-7.41-9.825    c-4.431-1.186-9.102,0.792-11.33,4.803c-11.702,21.066-33.076,33.643-57.174,33.643c-24.098,0-45.472-12.577-57.174-33.643    c-2.228-4.01-6.898-5.99-11.33-4.803c-4.431,1.188-7.486,5.238-7.41,9.825c0.399,24.095-11.822,45.674-32.692,57.723    c-20.868,12.049-45.667,11.844-66.335-0.549c-3.935-2.359-8.97-1.738-12.214,1.505c-3.244,3.244-3.864,8.279-1.505,12.214    c12.393,20.667,12.598,45.465,0.549,66.335c-12.05,20.87-33.642,33.076-57.723,32.692c-4.63-0.072-8.638,2.979-9.825,7.41    c-1.188,4.432,0.793,9.102,4.803,11.33c21.066,11.702,33.643,33.076,33.643,57.174s-12.577,45.472-33.643,57.174    c-4.01,2.227-5.991,6.898-4.803,11.33c1.187,4.431,5.233,7.514,9.825,7.41c24.098-0.379,45.673,11.822,57.723,32.692    c12.049,20.869,11.844,45.668-0.549,66.335c-2.359,3.935-1.739,8.97,1.505,12.214c3.244,3.244,8.279,3.866,12.214,1.505    c20.668-12.393,45.466-12.598,66.335-0.549c20.869,12.05,33.091,33.628,32.692,57.723c-0.076,4.587,2.979,8.637,7.41,9.825    c4.431,1.187,9.102-0.793,11.33-4.803c11.702-21.066,33.076-33.643,57.174-33.643s45.472,12.577,57.174,33.643    c1.796,3.232,5.177,5.145,8.741,5.145c0.859,0,1.729-0.112,2.589-0.342c4.431-1.188,7.486-5.238,7.41-9.825    c-0.399-24.095,11.822-45.674,32.692-57.723c20.868-12.049,45.667-11.844,66.335,0.549c3.936,2.361,8.97,1.738,12.214-1.505    c3.244-3.244,3.864-8.279,1.505-12.214c-12.393-20.667-12.598-45.465-0.549-66.335c12.05-20.87,33.647-33.109,57.723-32.692    c4.606,0.076,8.637-2.979,9.825-7.41C512.848,320.073,510.867,315.403,506.857,313.175z M426.793,354.607    c-11.361,19.679-14.378,42.035-9.085,63.101c-21.067-5.293-43.422-2.276-63.101,9.085c-19.678,11.361-33.468,29.213-39.417,50.104    c-15.596-15.118-36.465-23.683-59.188-23.683c-22.723,0-43.592,8.565-59.188,23.683c-5.948-20.891-19.739-38.743-39.417-50.104    c-19.681-11.361-42.032-14.378-63.101-9.085c5.293-21.066,2.276-43.422-9.085-63.101C73.848,334.928,56,321.138,35.107,315.19    c15.117-15.596,23.682-36.465,23.682-59.188c0-22.723-8.566-43.592-23.683-59.189c20.89-5.948,38.743-19.739,50.104-39.417    c11.361-19.679,14.378-42.035,9.085-63.101c21.067,5.294,43.422,2.276,63.101-9.085c19.678-11.361,33.468-29.213,39.417-50.104    c15.596,15.118,36.466,23.683,59.188,23.683s43.591-8.566,59.188-23.683c5.948,20.891,19.739,38.743,39.417,50.104    c19.681,11.362,42.033,14.379,63.101,9.085c-5.293,21.066-2.276,43.422,9.085,63.101c11.363,19.679,29.211,33.469,50.104,39.417    c-15.117,15.596-23.682,36.465-23.682,59.188c0,22.723,8.566,43.592,23.683,59.189    C456.007,321.138,438.154,334.929,426.793,354.607z" fill="#3d3d3d"/>
	</g>
</g>
<g>
	<g>
		<path d="M388.54,149.532c-23.794-29.584-57.151-50.581-93.926-59.124c-5.376-1.248-10.753,2.099-12.003,7.478    c-1.25,5.379,2.098,10.753,7.478,12.003c68.248,15.854,115.914,75.938,115.914,146.112c0,82.71-67.29,150-150,150    s-150-67.29-150-150c0-68.48,46.252-128.218,112.477-145.271c5.348-1.377,8.567-6.83,7.19-12.178s-6.829-8.567-12.178-7.19    c-75.064,19.329-127.49,87.031-127.49,164.639c0,93.738,76.262,170,170,170s170-76.262,170.001-169.999    C426.003,217.381,412.698,179.569,388.54,149.532z" fill="#3d3d3d"/>
	</g>
</g>
<g>
	<g>
		<path d="M256.252,86.001h-0.25c-5.523,0-10,4.477-10,10s4.477,10,10,10h0.25c5.523,0,10-4.477,10-10    S261.775,86.001,256.252,86.001z" fill="#3d3d3d"/>
	</g>
</g>
<g>
	<g>
		<path d="M366.257,278.215c-5.296-1.565-10.859,1.459-12.425,6.755c-8.669,29.328-29.821,53.011-58.032,64.978    c-5.084,2.156-7.458,8.027-5.301,13.111c1.616,3.81,5.316,6.097,9.21,6.097c1.303,0,2.627-0.256,3.902-0.796    c33.735-14.311,59.03-42.639,69.401-77.72C374.577,285.343,371.553,279.781,366.257,278.215z" fill="#3d3d3d"/>
	</g>
</g>
<g>
	<g>
		<path d="M368.002,246.03c-5.523,0-10,4.507-10,10.03s4.477,10,10,10c5.523,0,10-4.477,10-10V256    C378.002,250.477,373.525,246.03,368.002,246.03z" fill="#3d3d3d"/>
	</g>
</g>
<g>
</g>
<g>
</g>
<g>
</g>
<g>
</g>
<g>
</g>
<g>
</g>
<g>
</g>
<g>
</g>
<g>
</g>
<g>
</g>
<g>
</g>
<g>
</g>
<g>
</g>
<g>
</g>
<g>
</g>
</svg>
