<svg xmlns="http://www.w3.org/2000/svg" viewBox="0 0 50 50">
  <defs>
    <style>
      .cls-1 {
        fill: #fff;
      }
    </style>
  </defs>
  <path id="Subtraction_18" data-name="Subtraction 18" class="cls-1" d="M25,50A25.007,25.007,0,0,1,15.269,1.965,25.007,25.007,0,0,1,34.731,48.036,24.843,24.843,0,0,1,25,50ZM14.74,18.544V28.12a5.592,5.592,0,0,0,1.908,4.524,7.883,7.883,0,0,0,5.2,1.6,7.883,7.883,0,0,0,5.2-1.6,5.592,5.592,0,0,0,1.908-4.524V18.544H25.084V27.76a3.192,3.192,0,0,1-.828,2.4,3.371,3.371,0,0,1-2.412.792,3.371,3.371,0,0,1-2.412-.792,3.192,3.192,0,0,1-.828-2.4V18.544Zm16.536,0V34H35.14V18.544Z"/>
</svg>
